<svg id="svg" version="1.1" width="959" height="500" xmlns="http://www.w3.org/2000/svg" xmlns:xlink="http://www.w3.org/1999/xlink" style="display: block;"><g id="svgg"><path id="path0" d="M193.949 36.536 C 195.438 37.108,197.138 38.038,197.726 38.601 C 199.061 39.880,199.275 39.876,200.664 38.545 C 201.284 37.951,202.984 37.022,204.441 36.481 L 207.091 35.497 199.166 35.496 L 191.241 35.494 193.949 36.536 M233.342 40.247 C 234.431 42.579,234.676 42.854,235.232 42.368 C 236.483 41.276,238.564 40.459,240.125 40.446 C 242.675 40.426,239.308 39.149,233.146 37.800 L 232.091 37.569 233.342 40.247 M161.454 39.229 C 158.089 40.110,157.387 40.456,158.950 40.464 C 159.505 40.467,160.783 40.940,161.791 41.516 C 162.799 42.092,163.667 42.513,163.721 42.450 C 163.950 42.181,165.589 38.803,165.589 38.598 C 165.589 38.238,164.748 38.367,161.454 39.229 M250.530 45.076 C 252.460 47.139,253.768 49.528,254.168 51.721 C 254.424 53.124,254.511 53.185,256.410 53.296 C 261.306 53.582,265.798 58.349,265.798 63.260 C 265.798 67.620,265.348 67.987,260.015 67.987 L 255.608 67.987 254.498 66.652 C 251.495 63.037,250.701 62.416,249.936 63.087 C 247.211 65.474,242.207 65.863,237.057 64.088 L 234.072 63.059 233.799 64.518 C 232.744 70.141,226.694 71.851,210.845 71.008 C 202.475 70.563,201.537 70.236,200.448 67.385 C 199.535 64.995,198.866 64.986,197.755 67.350 C 196.281 70.486,195.865 70.614,185.719 71.053 C 170.811 71.699,165.580 70.098,164.464 64.546 C 164.188 63.172,163.927 63.152,160.754 64.259 C 156.825 65.631,152.502 65.497,149.578 63.913 L 147.258 62.657 145.575 64.592 C 144.649 65.657,143.612 66.856,143.270 67.258 C 142.616 68.025,134.683 68.364,133.637 67.668 C 132.880 67.165,132.128 64.296,132.294 62.549 C 132.526 60.120,131.830 61.197,130.753 64.936 L 129.814 68.196 123.823 68.456 C 120.527 68.600,110.104 68.740,100.660 68.769 C 80.961 68.829,82.442 68.605,81.493 71.671 C 81.091 72.971,80.632 74.129,80.475 74.244 C 80.139 74.488,78.415 81.159,78.415 82.214 C 78.415 82.610,78.245 82.996,78.036 83.073 C 77.630 83.222,76.330 91.266,76.330 93.627 C 76.330 94.410,76.142 95.166,75.912 95.308 C 75.652 95.468,75.495 99.483,75.495 105.968 C 75.495 112.626,75.645 116.371,75.912 116.371 C 76.142 116.371,76.330 117.116,76.330 118.025 C 76.330 120.304,77.573 129.032,77.936 129.295 C 78.098 129.413,78.668 131.481,79.202 133.889 C 79.736 136.298,80.302 138.363,80.461 138.478 C 80.619 138.592,81.098 139.859,81.525 141.293 C 81.952 142.727,82.429 143.900,82.585 143.900 C 82.742 143.900,83.117 144.651,83.420 145.568 L 83.971 147.237 89.302 147.237 C 92.234 147.237,94.732 147.076,94.854 146.879 C 95.071 146.527,104.156 146.227,129.510 145.733 L 142.440 145.482 144.526 147.666 C 146.909 150.162,150.718 153.493,151.189 153.493 C 151.364 153.493,151.378 151.945,151.221 150.052 C 150.808 145.058,151.290 144.608,156.849 144.801 C 160.495 144.927,161.052 145.052,162.011 145.954 L 163.087 146.965 164.102 146.011 C 167.859 142.482,179.881 142.263,183.525 145.659 C 184.270 146.352,184.466 146.369,185.510 145.828 C 188.336 144.367,198.607 143.756,201.251 144.892 C 202.279 145.334,202.743 145.330,203.845 144.874 C 206.565 143.746,216.163 144.310,219.090 145.770 C 220.225 146.337,220.413 146.319,221.387 145.552 C 225.685 142.172,238.195 142.616,241.054 146.250 C 241.714 147.089,241.919 147.162,242.201 146.658 C 243.348 144.608,250.736 143.884,252.926 145.607 L 254.036 146.480 253.752 150.870 C 253.478 155.102,253.497 155.245,254.263 154.831 C 255.378 154.229,261.427 147.884,263.393 145.255 L 265.031 143.066 273.461 143.066 C 283.055 143.066,283.097 143.058,283.449 141.181 L 283.709 139.794 289.196 139.645 C 292.213 139.563,294.998 139.642,295.384 139.821 C 296.444 140.311,313.562 140.226,313.869 139.729 C 314.010 139.499,314.483 139.312,314.918 139.312 C 315.740 139.312,318.303 137.004,319.644 135.056 C 320.068 134.440,320.819 133.874,321.313 133.797 C 322.127 133.670,322.089 133.592,320.909 132.956 C 314.621 129.570,311.818 120.615,311.804 103.858 C 311.790 88.016,314.566 79.579,320.900 76.218 C 322.621 75.305,322.623 75.300,321.450 75.159 C 320.246 75.014,318.665 73.940,318.665 73.268 C 318.665 73.063,317.890 72.119,316.942 71.171 L 315.219 69.447 306.619 69.525 C 301.889 69.568,294.597 69.721,290.414 69.865 L 282.809 70.125 282.118 68.398 C 281.214 66.140,280.471 65.902,274.308 65.902 L 269.213 65.902 267.646 62.878 C 263.728 55.318,258.262 49.097,252.242 45.345 C 248.739 43.161,248.739 43.161,250.530 45.076 M146.260 45.034 C 141.209 47.907,136.756 52.483,133.869 57.769 C 132.328 60.590,132.604 60.448,134.907 57.232 C 136.765 54.636,138.882 53.423,141.800 53.282 C 143.487 53.200,143.894 53.037,143.897 52.441 C 143.901 51.353,146.146 46.602,146.981 45.915 C 147.589 45.415,148.757 43.705,148.398 43.840 C 148.333 43.865,147.371 44.402,146.260 45.034 M144.137 71.518 C 151.861 74.745,139.442 99.978,126.547 107.255 C 125.289 107.966,123.995 109.071,123.657 109.724 C 122.687 111.599,120.506 114.806,119.336 116.078 C 118.665 116.807,118.426 117.355,118.699 117.538 C 118.939 117.699,121.939 120.177,125.366 123.045 C 137.143 132.900,141.849 135.292,149.531 135.328 C 157.383 135.365,163.504 130.995,163.504 125.353 C 163.504 117.906,149.254 122.953,148.699 130.596 C 148.626 131.605,148.548 132.564,148.527 132.728 C 148.276 134.649,145.151 133.423,145.151 131.404 C 145.151 122.096,162.754 114.809,165.824 122.847 C 169.310 131.976,155.288 140.857,142.510 137.613 C 135.192 135.755,131.411 133.236,117.661 121.061 L 115.656 119.285 113.615 120.201 C 107.362 123.007,98.945 120.698,99.882 116.432 C 100.895 111.823,106.696 110.579,112.826 113.657 C 116.403 115.454,116.508 115.455,117.527 113.728 C 117.979 112.963,118.647 111.881,119.012 111.324 L 119.675 110.311 116.251 110.313 C 102.026 110.321,99.339 93.179,112.209 84.529 C 115.137 82.561,119.773 81.566,120.876 82.669 C 122.237 84.031,120.912 85.506,118.328 85.506 C 108.118 85.506,103.205 102.107,112.135 106.430 C 118.138 109.336,120.800 108.115,123.030 101.432 C 124.001 98.523,125.042 95.579,125.344 94.891 C 125.647 94.202,126.679 91.769,127.638 89.482 C 132.961 76.793,137.049 71.644,142.349 70.950 C 142.529 70.926,143.333 71.182,144.137 71.518 M313.869 72.778 C 313.869 73.277,313.537 73.669,313.034 73.762 C 310.913 74.156,308.269 80.216,308.244 84.741 C 308.241 85.353,308.066 85.916,307.856 85.992 C 306.361 86.537,306.302 119.013,307.794 120.125 C 307.948 120.240,308.389 122.141,308.773 124.350 C 309.158 126.559,309.946 129.308,310.524 130.459 C 311.102 131.609,311.575 132.768,311.575 133.033 C 311.575 133.298,312.200 133.776,312.963 134.095 C 315.604 135.199,315.721 136.392,313.188 136.392 C 312.436 136.392,309.496 133.665,309.491 132.963 C 309.490 132.798,309.040 131.672,308.491 130.461 C 307.513 128.304,306.152 122.649,306.152 120.741 C 306.152 120.211,305.985 119.715,305.781 119.639 C 304.283 119.078,304.198 86.983,305.691 85.923 C 305.853 85.808,306.326 83.876,306.742 81.630 C 307.158 79.383,307.715 77.319,307.980 77.042 C 308.245 76.765,308.798 75.776,309.211 74.845 C 310.394 72.175,313.869 70.633,313.869 72.778 M140.111 74.360 C 138.052 75.747,135.976 78.966,133.686 84.323 C 131.821 88.685,130.898 91.090,128.270 98.436 C 127.736 99.927,126.997 101.851,126.626 102.711 C 125.546 105.222,126.575 104.644,130.810 100.361 C 140.763 90.294,147.713 73.410,141.903 73.410 C 141.693 73.410,140.886 73.837,140.111 74.360 M330.031 74.960 C 330.662 75.055,331.694 75.055,332.325 74.960 C 332.956 74.864,332.440 74.786,331.178 74.786 C 329.917 74.786,329.400 74.864,330.031 74.960 M168.855 93.644 C 173.504 99.553,166.530 113.452,158.917 113.452 C 153.257 113.452,152.677 109.713,157.010 101.148 C 159.484 96.257,159.634 95.493,157.718 97.544 C 155.556 99.859,154.019 98.723,155.900 96.200 C 158.276 93.014,161.573 92.006,162.915 94.054 C 163.872 95.515,163.491 97.029,160.767 102.585 C 157.694 108.851,157.410 110.949,159.633 110.949 C 164.253 110.949,169.018 100.984,166.215 97.185 C 164.028 94.220,166.598 90.774,168.855 93.644 M151.283 93.831 C 156.405 96.954,153.734 108.457,146.967 112.423 C 143.045 114.721,138.726 113.357,137.640 109.476 C 135.276 101.033,144.933 89.959,151.283 93.831 M184.296 94.068 C 188.474 97.583,184.211 103.481,174.930 107.025 C 173.362 107.624,173.119 107.867,173.343 108.611 C 174.266 111.676,177.890 110.635,180.708 106.495 C 182.498 103.866,184.282 104.899,182.852 107.737 C 179.093 115.200,168.926 115.324,168.926 107.907 C 168.926 99.378,179.400 89.947,184.296 94.068 M146.924 95.792 C 146.636 95.908,146.403 96.707,146.403 97.572 C 146.403 99.236,145.574 100.324,144.108 100.583 C 142.459 100.874,140.406 107.265,141.217 109.583 C 142.451 113.114,146.462 110.330,148.851 104.285 C 151.282 98.131,150.431 94.377,146.924 95.792 M179.981 95.848 C 178.075 96.274,175.182 99.653,174.102 102.715 C 173.350 104.846,173.399 104.881,175.729 103.850 C 181.144 101.455,184.682 94.798,179.981 95.848 M204.797 101.186 C 204.797 102.112,204.889 102.170,205.689 101.741 C 206.873 101.108,210.284 101.576,212.421 102.666 C 218.529 105.782,217.027 110.436,209.460 111.841 C 206.557 112.380,206.048 111.964,206.048 109.048 C 206.048 106.918,205.411 104.357,204.986 104.781 C 204.874 104.893,204.977 106.360,205.215 108.041 C 205.693 111.407,205.525 111.765,203.461 111.777 C 202.584 111.782,202.029 111.343,200.959 109.802 L 199.583 107.821 199.455 109.357 C 199.345 110.676,199.154 110.931,198.100 111.163 C 197.424 111.311,196.872 111.605,196.872 111.816 C 196.872 112.894,193.572 112.184,192.843 110.949 C 191.847 109.264,190.394 109.286,188.956 111.008 C 187.953 112.210,187.777 112.274,186.840 111.780 C 185.210 110.920,185.211 110.588,186.850 107.881 C 187.703 106.471,188.727 104.333,189.125 103.128 C 189.523 101.924,189.997 100.938,190.180 100.938 C 190.362 100.938,191.066 100.827,191.745 100.692 C 192.944 100.452,193.001 100.516,193.710 102.881 C 194.112 104.222,194.692 106.069,194.998 106.986 L 195.555 108.655 195.588 106.701 C 195.606 105.626,195.426 104.235,195.188 103.609 C 194.107 100.766,196.830 100.786,199.486 103.641 L 201.668 105.987 201.527 103.459 C 201.386 100.940,201.391 100.927,202.774 100.346 C 204.424 99.652,204.797 99.807,204.797 101.186 M209.574 106.645 C 209.803 107.636,210.215 108.446,210.488 108.446 C 213.160 108.446,212.920 105.519,210.209 105.033 C 209.167 104.846,209.160 104.863,209.574 106.645 M192.888 119.781 C 193.717 122.688,194.633 126.718,194.924 128.736 L 195.454 132.406 196.749 130.124 C 198.497 127.043,200.277 123.078,201.635 119.236 L 202.760 116.053 205.342 115.563 C 206.763 115.293,208.221 114.987,208.583 114.882 C 209.106 114.731,209.390 115.395,209.975 118.139 C 211.193 123.848,215.832 137.308,215.044 132.847 C 214.099 127.491,213.733 121.013,214.234 118.509 C 214.521 117.069,214.991 116.961,218.711 117.471 L 220.647 117.736 220.647 122.308 L 220.647 126.881 222.002 126.024 C 222.748 125.553,224.592 123.929,226.100 122.415 L 228.842 119.663 232.669 119.415 C 236.655 119.157,237.371 119.465,235.626 120.688 C 234.198 121.688,228.571 127.225,228.571 127.631 C 228.571 128.290,237.578 133.781,237.988 133.371 C 238.253 133.106,236.962 124.062,236.477 122.784 C 235.037 118.999,238.930 117.600,248.924 118.309 L 252.722 118.579 253.368 120.195 C 254.532 123.103,254.629 123.045,248.592 123.045 C 245.577 123.045,243.170 123.215,243.170 123.428 C 243.170 125.026,243.529 125.116,248.841 124.847 L 254.015 124.585 254.015 126.136 C 254.015 129.013,253.720 129.196,248.574 129.530 L 243.959 129.829 244.086 130.921 C 244.156 131.521,244.400 132.009,244.630 132.005 C 244.859 132.001,247.158 131.741,249.739 131.428 L 254.432 130.858 254.464 128.516 C 254.521 124.335,255.129 123.139,258.124 121.318 C 259.580 120.433,260.845 119.708,260.935 119.708 C 261.024 119.708,260.979 121.643,260.834 124.008 C 260.436 130.520,262.024 133.573,264.514 131.083 C 266.076 129.521,265.982 125.743,264.244 120.311 C 263.705 118.623,268.835 116.522,270.287 117.836 C 270.909 118.399,271.181 118.396,272.822 117.806 C 275.756 116.753,283.127 118.363,288.897 121.316 C 296.993 125.459,294.573 130.597,283.907 131.910 L 280.185 132.369 280.433 135.022 C 280.721 138.107,280.599 138.213,276.160 138.715 L 273.618 139.002 273.618 136.167 C 273.618 132.856,272.824 127.824,272.381 128.328 C 272.213 128.519,271.752 129.520,271.357 130.553 C 269.161 136.291,261.348 139.193,257.290 135.778 C 256.142 134.813,255.918 134.758,255.318 135.299 C 254.924 135.652,252.192 136.278,248.801 136.791 C 245.589 137.276,242.304 137.853,241.502 138.073 C 239.436 138.639,238.582 138.574,238.582 137.852 C 238.582 137.109,237.362 137.040,235.912 137.701 C 234.979 138.126,234.228 137.824,228.651 134.781 C 225.230 132.914,222.329 131.387,222.204 131.387 C 221.928 131.387,223.077 135.895,223.603 136.879 C 224.029 137.675,222.759 138.210,219.352 138.669 C 217.597 138.905,217.448 139.014,217.624 139.935 C 217.806 140.887,217.729 140.930,216.208 140.721 C 210.527 139.938,210.547 139.948,208.965 136.973 L 207.508 134.233 205.422 134.475 C 204.275 134.608,202.961 134.722,202.503 134.728 C 201.951 134.736,201.244 135.450,200.417 136.836 C 198.125 140.677,198.528 140.485,195.770 139.043 C 194.051 138.143,193.079 137.861,192.492 138.091 C 190.418 138.906,189.847 138.594,189.573 136.496 C 188.421 127.681,188.028 126.638,187.292 130.443 C 186.102 136.588,186.042 136.742,184.740 136.992 C 180.846 137.742,181.212 137.840,180.640 135.888 C 180.170 134.285,178.276 130.553,177.932 130.553 C 177.857 130.553,177.889 131.848,178.002 133.432 L 178.208 136.311 175.757 136.793 C 174.409 137.058,173.039 137.365,172.713 137.474 C 171.834 137.768,171.442 136.852,171.435 134.484 C 171.427 131.790,170.312 125.243,169.313 122.020 C 168.889 120.653,168.582 119.508,168.630 119.476 C 169.197 119.089,173.574 117.205,173.905 117.205 C 174.853 117.205,179.845 122.850,181.166 125.417 C 182.564 128.132,182.889 127.578,184.504 119.724 L 185.401 115.361 187.904 114.456 C 191.087 113.306,191.026 113.241,192.888 119.781 M104.354 115.136 C 101.275 118.005,107.077 120.244,111.982 118.080 L 113.640 117.348 112.607 116.691 C 108.563 114.115,105.973 113.628,104.354 115.136 M279.052 124.369 C 279.256 125.132,279.534 126.295,279.669 126.953 C 279.936 128.249,281.260 128.305,284.776 127.171 C 287.289 126.361,284.600 123.946,280.426 123.266 L 278.682 122.981 279.052 124.369 M204.216 128.476 C 203.343 130.659,203.291 130.553,205.214 130.553 C 206.775 130.553,207.376 130.073,206.497 129.530 C 206.285 129.399,205.989 128.731,205.838 128.045 C 205.468 126.358,205.016 126.478,204.216 128.476 M240.017 162.872 C 239.281 163.436,239.341 163.449,240.667 163.019 C 242.478 162.432,242.708 162.252,241.651 162.252 C 241.198 162.252,240.462 162.531,240.017 162.872 " stroke="none" fill="#010101" fill-rule="evenodd"></path><path id="path1" d="M206.257 35.882 C 205.699 36.128,206.046 36.169,207.299 36.003 C 208.332 35.866,209.254 35.687,209.350 35.604 C 209.712 35.290,207.053 35.529,206.257 35.882 M231.575 38.060 C 231.939 38.347,232.530 39.145,232.890 39.833 C 233.249 40.521,233.550 40.897,233.558 40.667 C 233.585 39.940,231.942 37.539,231.418 37.539 C 231.109 37.539,231.170 37.741,231.575 38.060 M164.343 41.280 C 163.763 42.682,163.525 42.787,162.669 42.023 C 162.171 41.579,162.166 41.611,162.636 42.231 C 162.940 42.633,163.349 42.961,163.544 42.961 C 163.960 42.961,165.320 40.468,165.050 40.198 C 164.950 40.097,164.632 40.584,164.343 41.280 M157.982 40.754 C 158.501 40.854,159.252 40.850,159.650 40.745 C 160.049 40.641,159.625 40.559,158.707 40.564 C 157.789 40.569,157.463 40.654,157.982 40.754 M239.312 40.761 C 240.057 40.853,241.277 40.853,242.023 40.761 C 242.769 40.668,242.158 40.592,240.667 40.592 C 239.176 40.592,238.566 40.668,239.312 40.761 M250.249 45.255 C 251.490 46.632,252.589 47.852,252.691 47.967 C 252.793 48.081,252.678 47.800,252.435 47.341 C 252.192 46.882,251.093 45.662,249.993 44.630 L 247.993 42.753 250.249 45.255 M132.756 60.167 C 132.535 60.454,132.341 61.721,132.324 62.982 L 132.294 65.276 132.613 62.937 C 132.789 61.651,133.065 60.384,133.227 60.122 C 133.624 59.479,133.259 59.514,132.756 60.167 M249.583 63.100 L 248.801 64.025 249.687 63.278 C 250.547 62.552,250.613 62.564,251.981 63.680 C 253.112 64.604,253.226 64.640,252.559 63.867 C 251.163 62.248,250.458 62.066,249.583 63.100 M145.751 63.921 L 144.526 65.276 145.881 64.051 C 147.145 62.909,147.428 62.565,147.106 62.565 C 147.034 62.565,146.424 63.175,145.751 63.921 M163.560 63.236 C 163.935 63.349,164.359 64.026,164.501 64.739 C 164.644 65.452,164.847 65.949,164.953 65.843 C 165.438 65.358,164.428 63.185,163.682 63.110 C 163.110 63.053,163.075 63.090,163.560 63.236 M246.090 64.651 C 245.231 64.926,245.194 64.991,245.881 65.020 C 246.340 65.039,246.997 64.873,247.341 64.651 C 248.072 64.178,247.564 64.178,246.090 64.651 M136.094 67.879 C 137.422 67.962,139.487 67.961,140.683 67.877 C 141.879 67.793,140.792 67.725,138.269 67.726 C 135.746 67.727,134.767 67.796,136.094 67.879 M257.888 67.879 C 259.215 67.962,261.280 67.961,262.476 67.877 C 263.672 67.793,262.586 67.725,260.063 67.726 C 257.539 67.727,256.561 67.796,257.888 67.879 M190.101 70.792 C 190.851 70.885,191.977 70.883,192.604 70.788 C 193.231 70.693,192.617 70.617,191.241 70.619 C 189.864 70.622,189.352 70.700,190.101 70.792 M205.944 70.792 C 206.689 70.884,207.909 70.884,208.655 70.792 C 209.400 70.699,208.790 70.624,207.299 70.624 C 205.808 70.624,205.198 70.699,205.944 70.792 M182.377 71.195 C 182.779 71.300,183.436 71.300,183.837 71.195 C 184.239 71.090,183.910 71.004,183.107 71.004 C 182.304 71.004,181.976 71.090,182.377 71.195 M144.013 76.330 C 144.013 77.362,144.095 77.784,144.194 77.268 C 144.294 76.752,144.294 75.907,144.194 75.391 C 144.095 74.875,144.013 75.297,144.013 76.330 M146.499 75.912 C 146.499 76.715,146.585 77.044,146.690 76.642 C 146.795 76.241,146.795 75.584,146.690 75.182 C 146.585 74.781,146.499 75.109,146.499 75.912 M103.977 98.644 C 103.981 99.791,104.062 100.211,104.157 99.577 C 104.253 98.943,104.251 98.005,104.152 97.492 C 104.053 96.979,103.974 97.497,103.977 98.644 M150.262 98.227 C 150.266 99.145,150.352 99.471,150.451 98.952 C 150.551 98.434,150.547 97.683,150.443 97.284 C 150.339 96.885,150.257 97.310,150.262 98.227 M169.879 99.062 C 169.883 100.209,169.964 100.628,170.059 99.994 C 170.155 99.360,170.153 98.422,170.054 97.909 C 169.955 97.396,169.876 97.914,169.879 99.062 M130.742 100.626 L 129.093 102.398 130.865 100.750 C 131.840 99.843,132.638 99.045,132.638 98.977 C 132.638 98.661,132.275 98.977,130.742 100.626 M203.337 100.165 C 202.555 100.515,202.561 100.528,203.419 100.366 C 204.196 100.220,204.354 100.405,204.461 101.589 L 204.588 102.984 205.631 102.142 C 206.567 101.385,206.578 101.346,205.735 101.759 C 204.891 102.173,204.797 102.116,204.797 101.186 C 204.797 99.929,204.432 99.675,203.337 100.165 M201.738 100.799 C 201.585 100.952,201.460 102.102,201.460 103.353 C 201.460 105.456,201.404 105.586,200.730 105.069 C 200.328 104.761,200.454 105.019,201.010 105.642 C 201.565 106.265,202.128 106.656,202.261 106.511 C 202.394 106.365,202.311 106.177,202.076 106.092 C 201.813 105.997,201.737 104.902,201.877 103.229 C 202.002 101.740,202.085 100.521,202.060 100.521 C 202.036 100.521,201.891 100.647,201.738 100.799 M137.340 107.195 C 137.340 108.227,137.421 108.650,137.521 108.133 C 137.620 107.617,137.620 106.773,137.521 106.257 C 137.421 105.740,137.340 106.163,137.340 107.195 M169.045 107.821 C 169.048 108.968,169.129 109.387,169.225 108.753 C 169.321 108.119,169.319 107.181,169.220 106.668 C 169.121 106.155,169.042 106.674,169.045 107.821 M195.533 107.602 C 195.433 108.285,195.502 109.083,195.688 109.375 C 195.890 109.694,196.027 109.197,196.031 108.133 C 196.039 106.075,195.795 105.815,195.533 107.602 M204.838 107.855 C 204.861 108.754,205.034 109.958,205.222 110.532 C 205.434 111.180,205.475 110.627,205.331 109.072 C 205.061 106.174,204.778 105.474,204.838 107.855 M209.447 107.508 C 209.394 108.667,209.521 108.856,210.323 108.815 C 210.989 108.781,211.057 108.713,210.557 108.581 C 210.169 108.478,209.775 107.890,209.681 107.274 C 209.526 106.261,209.504 106.284,209.447 107.508 M206.167 108.655 C 206.170 109.802,206.251 110.222,206.347 109.588 C 206.443 108.954,206.441 108.015,206.342 107.502 C 206.243 106.989,206.164 107.508,206.167 108.655 M149.300 110.428 L 147.862 111.992 149.426 110.554 C 150.287 109.764,150.991 109.060,150.991 108.990 C 150.991 108.672,150.638 108.972,149.300 110.428 M189.480 109.802 C 189.258 110.089,188.945 110.605,188.784 110.949 C 188.623 111.293,188.804 111.152,189.187 110.636 C 190.022 109.509,191.745 109.403,192.573 110.428 C 193.106 111.086,193.119 111.066,192.709 110.219 C 192.200 109.169,190.172 108.907,189.480 109.802 M114.807 110.413 C 115.438 110.509,116.470 110.509,117.101 110.413 C 117.732 110.318,117.216 110.240,115.954 110.240 C 114.692 110.240,114.176 110.318,114.807 110.413 M197.497 110.949 C 196.972 111.175,196.894 111.307,197.289 111.307 C 197.633 111.307,198.290 111.146,198.749 110.949 C 199.275 110.723,199.352 110.590,198.957 110.590 C 198.613 110.590,197.956 110.752,197.497 110.949 M105.839 112.077 C 106.356 112.177,107.200 112.177,107.716 112.077 C 108.233 111.978,107.810 111.897,106.778 111.897 C 105.746 111.897,105.323 111.978,105.839 112.077 M189.572 113.929 C 188.805 114.273,188.813 114.289,189.678 114.125 C 190.258 114.014,190.771 114.210,191.021 114.637 C 191.243 115.017,191.430 115.117,191.437 114.858 C 191.459 114.028,190.460 113.530,189.572 113.929 M270.131 117.997 C 270.876 118.806,271.152 118.885,271.800 118.472 C 272.551 117.993,272.550 117.985,271.785 118.227 C 271.326 118.372,270.627 118.173,270.117 117.752 C 269.255 117.041,269.255 117.046,270.131 117.997 M201.506 119.337 C 201.249 120.074,201.112 120.750,201.201 120.840 C 201.290 120.929,201.574 120.399,201.831 119.662 C 202.088 118.925,202.225 118.248,202.136 118.159 C 202.046 118.070,201.763 118.600,201.506 119.337 M239.277 118.352 C 239.174 118.525,242.213 118.680,246.030 118.699 C 251.040 118.723,252.159 118.651,250.052 118.438 C 245.987 118.028,239.503 117.976,239.277 118.352 M106.465 119.161 C 106.867 119.266,107.523 119.266,107.925 119.161 C 108.326 119.056,107.998 118.971,107.195 118.971 C 106.392 118.971,106.064 119.056,106.465 119.161 M214.121 122.419 C 214.120 124.484,214.190 125.381,214.278 124.413 C 214.365 123.445,214.366 121.756,214.280 120.659 C 214.194 119.562,214.122 120.355,214.121 122.419 M231.804 119.585 C 232.320 119.685,233.165 119.685,233.681 119.585 C 234.197 119.486,233.775 119.405,232.742 119.405 C 231.710 119.405,231.288 119.486,231.804 119.585 M235.787 120.081 C 235.366 120.755,235.399 120.863,235.996 120.775 C 236.386 120.718,236.672 120.544,236.632 120.388 C 236.383 119.421,236.233 119.366,235.787 120.081 M226.903 121.585 C 225.890 122.617,225.155 123.462,225.269 123.462 C 225.384 123.462,226.307 122.617,227.320 121.585 C 228.333 120.553,229.068 119.708,228.954 119.708 C 228.839 119.708,227.916 120.553,226.903 121.585 M259.437 120.579 L 258.394 121.432 259.437 120.899 C 260.010 120.605,260.620 120.405,260.792 120.454 C 260.965 120.502,261.105 120.355,261.105 120.125 C 261.105 119.495,260.592 119.635,259.437 120.579 M253.251 120.542 C 253.273 121.626,253.929 123.406,253.944 122.419 C 253.950 121.960,253.795 121.210,253.597 120.751 C 253.378 120.240,253.244 120.159,253.251 120.542 M260.532 122.263 C 260.175 124.047,260.214 128.984,260.590 129.571 C 260.759 129.834,260.897 128.004,260.897 125.504 C 260.897 120.442,260.897 120.439,260.532 122.263 M231.908 123.670 C 230.895 124.703,230.160 125.547,230.275 125.547 C 230.389 125.547,231.312 124.703,232.325 123.670 C 233.338 122.638,234.074 121.794,233.959 121.794 C 233.844 121.794,232.921 122.638,231.908 123.670 M149.087 123.983 L 147.862 125.339 149.218 124.114 C 149.964 123.440,150.574 122.830,150.574 122.758 C 150.574 122.436,150.229 122.720,149.087 123.983 M179.769 123.775 C 180.315 124.520,180.827 125.130,180.906 125.130 C 181.223 125.130,180.189 123.566,179.505 123.011 C 179.055 122.645,179.155 122.936,179.769 123.775 M278.694 123.879 C 278.716 124.963,279.372 126.743,279.387 125.756 C 279.394 125.297,279.238 124.546,279.041 124.088 C 278.821 123.577,278.687 123.496,278.694 123.879 M166.103 125.130 C 166.103 125.933,166.189 126.262,166.294 125.860 C 166.399 125.459,166.399 124.802,166.294 124.400 C 166.189 123.999,166.103 124.327,166.103 125.130 M243.344 124.807 C 243.430 125.213,244.654 125.302,248.527 125.183 L 253.597 125.027 253.591 126.434 C 253.582 128.384,253.213 128.796,251.298 128.992 L 249.635 129.161 251.393 129.231 C 253.434 129.313,254.015 128.627,254.015 126.136 L 254.015 124.585 248.832 124.847 C 245.527 125.015,243.574 124.959,243.441 124.693 C 243.326 124.463,243.283 124.515,243.344 124.807 M182.959 125.978 C 182.791 126.818,182.530 127.166,182.214 126.970 C 181.911 126.783,181.839 126.851,182.025 127.151 C 182.189 127.416,182.484 127.633,182.682 127.633 C 183.076 127.633,183.722 125.189,183.411 124.877 C 183.304 124.771,183.101 125.266,182.959 125.978 M265.799 127.007 C 265.803 127.925,265.889 128.251,265.988 127.732 C 266.088 127.214,266.084 126.463,265.980 126.064 C 265.876 125.665,265.794 126.090,265.799 127.007 M254.565 128.467 C 254.565 129.958,254.641 130.568,254.733 129.823 C 254.826 129.077,254.826 127.857,254.733 127.112 C 254.641 126.366,254.565 126.976,254.565 128.467 M272.256 126.632 C 271.791 127.097,271.890 128.553,272.367 128.259 C 272.597 128.117,272.799 128.434,272.817 128.964 C 272.835 129.494,272.939 129.710,273.048 129.444 C 273.328 128.759,272.625 126.263,272.256 126.632 M205.858 128.154 C 206.014 128.670,206.313 129.276,206.523 129.500 C 206.733 129.725,206.694 129.302,206.436 128.562 C 205.907 127.047,205.419 126.702,205.858 128.154 M237.893 131.488 C 237.928 132.806,238.097 133.885,238.269 133.887 C 238.662 133.890,238.634 132.903,238.181 130.761 C 237.846 129.175,237.832 129.211,237.893 131.488 M246.403 129.596 C 246.919 129.695,247.763 129.695,248.279 129.596 C 248.796 129.496,248.373 129.415,247.341 129.415 C 246.309 129.415,245.886 129.496,246.403 129.596 M177.301 130.606 C 177.320 131.182,177.430 131.351,177.565 131.012 C 177.740 130.570,177.992 130.671,178.603 131.429 C 179.262 132.246,179.332 132.270,178.987 131.561 C 178.228 129.999,177.263 129.453,177.301 130.606 M214.837 131.804 C 214.802 132.662,214.715 132.736,214.344 132.221 C 213.970 131.701,213.936 131.724,214.142 132.359 C 214.278 132.780,214.393 133.249,214.396 133.402 C 214.400 133.555,214.603 133.399,214.847 133.055 C 215.196 132.564,215.243 132.655,215.067 133.476 C 214.809 134.673,215.364 135.928,215.822 135.185 C 215.979 134.931,215.926 134.724,215.705 134.724 C 215.483 134.724,215.382 134.395,215.478 133.994 C 215.575 133.592,215.480 132.701,215.267 132.013 C 214.900 130.830,214.876 130.819,214.837 131.804 M285.089 131.387 L 283.420 131.686 284.880 131.703 C 285.683 131.713,286.809 131.571,287.383 131.387 C 288.723 130.958,287.486 130.958,285.089 131.387 M171.562 134.307 C 171.562 135.798,171.638 136.408,171.730 135.662 C 171.823 134.917,171.823 133.697,171.730 132.951 C 171.638 132.205,171.562 132.815,171.562 134.307 M177.814 134.098 C 177.817 135.474,177.895 135.987,177.987 135.238 C 178.080 134.488,178.078 133.362,177.983 132.735 C 177.888 132.108,177.812 132.722,177.814 134.098 M245.777 132.091 C 246.178 132.196,246.835 132.196,247.237 132.091 C 247.638 131.987,247.310 131.901,246.507 131.901 C 245.704 131.901,245.375 131.987,245.777 132.091 M281.027 132.099 C 281.546 132.199,282.296 132.195,282.695 132.091 C 283.094 131.986,282.669 131.905,281.752 131.909 C 280.834 131.914,280.508 131.999,281.027 132.099 M189.469 135.349 C 189.474 136.267,189.559 136.593,189.659 136.074 C 189.759 135.556,189.755 134.805,189.651 134.406 C 189.546 134.007,189.464 134.432,189.469 135.349 M202.612 134.602 C 203.131 134.701,203.881 134.698,204.280 134.593 C 204.679 134.489,204.254 134.407,203.337 134.412 C 202.419 134.416,202.093 134.502,202.612 134.602 M208.342 135.975 C 208.698 136.663,209.083 137.226,209.198 137.226 C 209.312 137.226,209.115 136.663,208.759 135.975 C 208.403 135.287,208.018 134.724,207.903 134.724 C 207.789 134.724,207.986 135.287,208.342 135.975 M266.736 135.586 C 266.048 136.027,265.699 136.389,265.960 136.390 C 266.221 136.391,266.878 136.023,267.420 135.572 C 268.660 134.539,268.362 134.545,266.736 135.586 M280.340 136.680 C 280.302 137.396,279.907 137.688,278.519 138.027 L 276.747 138.459 278.379 138.275 C 280.290 138.059,280.863 137.609,280.588 136.541 C 280.420 135.888,280.381 135.910,280.340 136.680 M260.792 137.108 C 261.423 137.203,262.456 137.203,263.087 137.108 C 263.717 137.012,263.201 136.934,261.940 136.934 C 260.678 136.934,260.162 137.012,260.792 137.108 M191.241 138.060 C 190.715 138.286,190.638 138.419,191.032 138.419 C 191.376 138.419,192.033 138.258,192.492 138.060 C 193.018 137.835,193.095 137.702,192.701 137.702 C 192.357 137.702,191.700 137.863,191.241 138.060 M146.726 138.366 C 147.707 138.455,149.209 138.453,150.063 138.364 C 150.917 138.274,150.115 138.202,148.279 138.203 C 146.444 138.205,145.745 138.278,146.726 138.366 M217.119 138.866 C 216.987 139.079,217.099 139.390,217.367 139.556 C 217.661 139.737,217.744 139.678,217.577 139.406 C 217.415 139.145,217.697 138.877,218.242 138.773 C 219.180 138.593,219.180 138.591,218.273 138.534 C 217.770 138.503,217.251 138.652,217.119 138.866 M214.291 140.441 C 214.809 140.541,215.560 140.537,215.959 140.433 C 216.358 140.328,215.933 140.247,215.016 140.251 C 214.098 140.256,213.772 140.341,214.291 140.441 M170.177 143.459 C 169.604 143.629,170.918 143.690,173.097 143.592 C 175.276 143.495,177.247 143.352,177.477 143.274 C 178.338 142.980,171.175 143.162,170.177 143.459 M228.895 143.372 C 229.876 143.460,231.378 143.459,232.232 143.369 C 233.086 143.279,232.284 143.207,230.448 143.209 C 228.613 143.210,227.914 143.284,228.895 143.372 M161.835 146.257 L 163.149 147.364 164.265 146.165 L 165.381 144.966 164.234 145.966 L 163.087 146.965 162.121 146.058 C 161.590 145.559,161.013 145.151,160.838 145.151 C 160.663 145.151,161.112 145.649,161.835 146.257 M185.610 145.777 C 185.036 146.105,184.755 146.373,184.984 146.373 C 185.214 146.373,185.871 146.105,186.444 145.777 C 187.018 145.449,187.299 145.181,187.070 145.181 C 186.840 145.181,186.184 145.449,185.610 145.777 M252.837 145.777 C 253.221 146.236,253.612 147.362,253.705 148.279 L 253.874 149.948 253.944 148.240 C 253.998 146.928,253.797 146.348,253.076 145.737 C 252.145 144.949,252.143 144.949,252.837 145.777 M151.157 146.571 C 151.033 146.894,150.997 147.785,151.078 148.553 C 151.206 149.776,151.248 149.704,151.423 147.967 C 151.627 145.935,151.552 145.541,151.157 146.571 M253.176 152.953 C 253.064 154.606,253.122 155.807,253.306 155.622 C 253.490 155.437,253.582 154.084,253.510 152.617 L 253.380 149.948 253.176 152.953 " stroke="none" fill="#4c4c4c" fill-rule="evenodd"></path><path id="path2" d="M209.906 35.741 C 210.308 35.846,210.965 35.846,211.366 35.741 C 211.767 35.636,211.439 35.550,210.636 35.550 C 209.833 35.550,209.505 35.636,209.906 35.741 M253.766 52.555 C 253.803 53.517,253.968 53.601,255.892 53.640 L 257.977 53.683 256.021 53.514 C 254.404 53.374,254.036 53.187,253.896 52.429 C 253.755 51.671,253.733 51.693,253.766 52.555 M141.507 53.688 C 142.141 53.784,143.080 53.782,143.593 53.683 C 144.106 53.584,143.587 53.505,142.440 53.508 C 141.293 53.511,140.873 53.592,141.507 53.688 M265.396 63.191 C 265.399 64.338,265.480 64.758,265.576 64.124 C 265.672 63.490,265.669 62.551,265.570 62.038 C 265.471 61.525,265.392 62.044,265.396 63.191 M154.020 64.950 C 154.654 65.046,155.593 65.043,156.106 64.944 C 156.619 64.845,156.100 64.767,154.953 64.770 C 153.806 64.773,153.386 64.854,154.020 64.950 M242.446 64.950 C 243.080 65.046,244.018 65.043,244.531 64.944 C 245.044 64.845,244.526 64.767,243.379 64.770 C 242.231 64.773,241.812 64.854,242.446 64.950 M143.206 66.762 C 142.928 67.040,140.966 67.157,137.948 67.075 C 135.299 67.003,133.220 67.086,133.327 67.258 C 133.726 67.899,142.926 67.616,143.483 66.945 C 144.076 66.230,143.873 66.096,143.206 66.762 M257.681 67.463 C 259.123 67.544,261.376 67.544,262.686 67.461 C 263.996 67.379,262.815 67.312,260.063 67.313 C 257.310 67.313,256.238 67.381,257.681 67.463 M186.966 70.778 C 187.367 70.883,188.024 70.883,188.425 70.778 C 188.827 70.673,188.498 70.587,187.696 70.587 C 186.893 70.587,186.564 70.673,186.966 70.778 M177.372 71.211 C 178.233 71.301,179.640 71.301,180.501 71.211 C 181.361 71.121,180.657 71.047,178.936 71.047 C 177.216 71.047,176.512 71.121,177.372 71.211 M217.634 71.213 C 218.615 71.301,220.116 71.300,220.970 71.210 C 221.825 71.121,221.022 71.049,219.187 71.050 C 217.351 71.052,216.653 71.125,217.634 71.213 M198.540 103.233 C 199.318 104.035,200.049 104.692,200.164 104.692 C 200.278 104.692,199.735 104.035,198.957 103.233 C 198.179 102.430,197.448 101.773,197.334 101.773 C 197.219 101.773,197.762 102.430,198.540 103.233 M204.380 104.251 C 204.380 104.952,204.452 105.527,204.539 105.527 C 204.893 105.527,205.077 103.406,204.741 103.198 C 204.542 103.075,204.380 103.549,204.380 104.251 M175.600 119.082 C 176.378 119.885,177.108 120.542,177.223 120.542 C 177.338 120.542,176.795 119.885,176.017 119.082 C 175.238 118.279,174.508 117.623,174.393 117.623 C 174.278 117.623,174.821 118.279,175.600 119.082 M244.948 118.756 C 245.582 118.852,246.521 118.849,247.034 118.750 C 247.547 118.651,247.028 118.573,245.881 118.576 C 244.734 118.579,244.314 118.660,244.948 118.756 M234.969 119.586 C 235.683 119.770,235.668 119.862,234.761 120.893 L 233.785 122.002 234.932 120.991 C 236.325 119.763,236.386 119.275,235.141 119.339 C 234.378 119.379,234.346 119.425,234.969 119.586 M220.366 122.836 C 220.368 124.442,220.444 125.048,220.534 124.183 C 220.624 123.317,220.623 122.003,220.530 121.263 C 220.438 120.522,220.364 121.230,220.366 122.836 M243.031 122.906 C 242.878 123.059,242.756 123.387,242.759 123.636 C 242.764 123.936,242.868 123.927,243.072 123.608 C 243.241 123.345,243.848 123.042,244.421 122.935 L 245.464 122.741 244.387 122.685 C 243.794 122.653,243.184 122.753,243.031 122.906 M248.488 122.933 C 249.463 123.021,251.058 123.021,252.033 122.933 C 253.008 122.845,252.211 122.773,250.261 122.773 C 248.311 122.773,247.513 122.845,248.488 122.933 M278.206 122.987 C 278.206 123.185,278.676 123.257,279.249 123.147 C 279.823 123.037,280.292 122.876,280.292 122.788 C 280.292 122.700,279.823 122.628,279.249 122.628 C 278.676 122.628,278.206 122.789,278.206 122.987 M247.445 125.418 C 247.847 125.523,248.504 125.523,248.905 125.418 C 249.307 125.313,248.978 125.227,248.175 125.227 C 247.372 125.227,247.044 125.313,247.445 125.418 M272.254 125.382 C 272.087 125.550,271.950 125.974,271.950 126.326 C 271.950 126.796,272.073 126.842,272.414 126.502 C 272.669 126.246,272.806 125.822,272.718 125.558 C 272.630 125.294,272.421 125.215,272.254 125.382 M228.566 126.596 C 227.753 127.461,227.679 127.734,228.138 128.160 C 228.582 128.572,228.631 128.565,228.380 128.123 C 228.190 127.789,228.441 127.173,229.018 126.559 C 229.540 126.003,229.874 125.547,229.760 125.547 C 229.645 125.547,229.108 126.019,228.566 126.596 M214.487 127.216 C 214.487 128.019,214.573 128.347,214.678 127.946 C 214.782 127.544,214.782 126.887,214.678 126.486 C 214.573 126.084,214.487 126.413,214.487 127.216 M292.007 128.626 L 291.000 129.927 292.193 128.793 C 292.849 128.169,293.303 127.583,293.200 127.492 C 293.097 127.401,292.560 127.911,292.007 128.626 M247.862 129.172 C 248.264 129.277,248.921 129.277,249.322 129.172 C 249.724 129.067,249.395 128.981,248.592 128.981 C 247.789 128.981,247.461 129.067,247.862 129.172 M203.067 130.658 C 203.277 130.868,203.893 130.971,204.436 130.885 C 205.271 130.754,205.212 130.695,204.054 130.503 C 203.225 130.366,202.836 130.427,203.067 130.658 M280.035 131.988 C 279.908 132.319,279.892 132.929,280.000 133.344 C 280.130 133.848,280.211 133.725,280.244 132.975 C 280.287 131.966,280.473 131.836,282.065 131.692 L 283.837 131.533 282.052 131.460 C 280.829 131.410,280.193 131.577,280.035 131.988 M202.920 134.139 C 204.840 134.451,208.041 134.492,207.861 134.202 C 207.754 134.030,206.411 133.915,204.876 133.946 C 203.341 133.978,202.461 134.064,202.920 134.139 M171.951 135.766 C 171.955 136.684,172.041 137.010,172.141 136.491 C 172.240 135.973,172.237 135.222,172.132 134.823 C 172.028 134.424,171.946 134.849,171.951 135.766 M189.781 136.576 C 189.781 137.365,189.925 138.100,190.102 138.209 C 190.278 138.318,190.352 137.672,190.266 136.774 C 190.074 134.757,189.781 134.638,189.781 136.576 M216.348 138.037 C 216.472 138.509,216.739 138.895,216.941 138.895 C 217.504 138.895,217.380 138.221,216.717 137.671 C 216.230 137.267,216.164 137.333,216.348 138.037 M273.625 138.165 C 273.620 138.655,273.926 138.884,274.557 138.862 C 275.184 138.840,275.288 138.750,274.870 138.591 C 274.526 138.460,274.106 138.146,273.938 137.894 C 273.749 137.611,273.629 137.715,273.625 138.165 M193.018 144.612 C 193.537 144.712,194.288 144.708,194.687 144.604 C 195.086 144.499,194.661 144.418,193.743 144.422 C 192.826 144.427,192.500 144.512,193.018 144.612 M210.115 144.611 C 210.631 144.711,211.475 144.711,211.992 144.611 C 212.508 144.512,212.086 144.431,211.053 144.431 C 210.021 144.431,209.599 144.512,210.115 144.611 M154.432 145.022 C 154.833 145.127,155.490 145.127,155.892 145.022 C 156.293 144.917,155.965 144.831,155.162 144.831 C 154.359 144.831,154.030 144.917,154.432 145.022 M246.810 145.035 C 247.551 145.127,248.865 145.129,249.730 145.038 C 250.595 144.948,249.990 144.873,248.384 144.871 C 246.778 144.869,246.070 144.943,246.810 145.035 M151.521 151.825 C 151.521 152.857,151.603 153.279,151.702 152.763 C 151.801 152.247,151.801 151.403,151.702 150.886 C 151.603 150.370,151.521 150.792,151.521 151.825 " stroke="none" fill="#949494" fill-rule="evenodd"></path><path id="path3" d="M181.752 35.761 C 182.956 35.845,184.927 35.845,186.131 35.761 C 187.336 35.677,186.350 35.608,183.942 35.608 C 181.533 35.608,180.547 35.677,181.752 35.761 M213.025 35.755 C 213.766 35.847,215.079 35.848,215.945 35.758 C 216.810 35.668,216.204 35.592,214.599 35.590 C 212.993 35.589,212.285 35.662,213.025 35.755 M203.128 37.331 C 202.555 37.658,202.273 37.927,202.503 37.927 C 202.732 37.927,203.389 37.658,203.962 37.331 C 204.536 37.003,204.818 36.734,204.588 36.734 C 204.359 36.734,203.702 37.003,203.128 37.331 M226.694 37.122 C 227.153 37.319,227.904 37.475,228.363 37.468 C 229.033 37.458,228.993 37.390,228.154 37.122 C 226.728 36.665,225.632 36.665,226.694 37.122 M168.300 37.539 C 167.774 37.765,167.697 37.898,168.092 37.898 C 168.436 37.898,169.093 37.736,169.552 37.539 C 170.077 37.313,170.155 37.181,169.760 37.181 C 169.416 37.181,168.759 37.342,168.300 37.539 M244.039 41.449 C 244.468 41.833,246.924 42.961,246.924 42.774 C 246.924 42.534,244.612 41.293,244.164 41.293 C 244.000 41.293,243.943 41.363,244.039 41.449 M148.260 45.151 L 146.611 46.924 148.384 45.275 C 149.359 44.368,150.156 43.571,150.156 43.502 C 150.156 43.187,149.793 43.503,148.260 45.151 M148.454 62.717 C 149.009 63.401,150.574 64.435,150.574 64.118 C 150.574 64.039,149.964 63.527,149.218 62.981 C 148.379 62.367,148.088 62.266,148.454 62.717 M252.555 63.816 C 253.451 64.734,254.278 65.485,254.392 65.485 C 254.507 65.485,253.868 64.734,252.972 63.816 C 252.076 62.899,251.249 62.148,251.134 62.148 C 251.019 62.148,251.659 62.899,252.555 63.816 M160.792 63.623 C 159.749 64.125,159.715 64.183,160.584 63.970 C 161.766 63.682,163.094 63.004,162.461 63.014 C 162.231 63.017,161.481 63.291,160.792 63.623 M197.004 67.466 C 196.861 67.868,196.445 68.571,196.078 69.030 C 195.424 69.850,195.428 69.851,196.309 69.108 C 196.802 68.691,197.301 67.987,197.417 67.543 C 197.680 66.537,197.355 66.476,197.004 67.466 M172.263 70.470 C 173.305 70.824,175.893 71.045,175.565 70.752 C 175.469 70.667,174.453 70.489,173.306 70.356 C 171.899 70.194,171.560 70.231,172.263 70.470 M189.468 70.377 C 190.328 70.467,191.736 70.467,192.596 70.377 C 193.457 70.287,192.753 70.213,191.032 70.213 C 189.312 70.213,188.608 70.287,189.468 70.377 M205.735 70.377 C 206.595 70.467,208.003 70.467,208.863 70.377 C 209.724 70.287,209.020 70.213,207.299 70.213 C 205.579 70.213,204.875 70.287,205.735 70.377 M223.983 70.490 C 222.569 70.788,222.562 70.798,223.775 70.811 C 224.463 70.818,225.495 70.674,226.069 70.490 C 227.436 70.052,226.064 70.052,223.983 70.490 M183.635 70.789 C 184.269 70.885,185.207 70.883,185.720 70.784 C 186.233 70.685,185.714 70.606,184.567 70.609 C 183.420 70.613,183.000 70.694,183.635 70.789 M212.826 70.789 C 213.457 70.884,214.489 70.884,215.120 70.789 C 215.751 70.693,215.235 70.615,213.973 70.615 C 212.711 70.615,212.195 70.693,212.826 70.789 M190.461 101.268 C 190.348 101.450,190.900 101.523,191.687 101.431 C 192.474 101.339,193.118 101.191,193.118 101.101 C 193.118 100.787,190.662 100.942,190.461 101.268 M198.540 103.572 C 198.540 103.643,199.150 104.253,199.896 104.927 L 201.251 106.152 200.026 104.797 C 198.884 103.533,198.540 103.249,198.540 103.572 M196.083 107.612 C 196.021 108.874,195.932 110.422,195.886 111.053 C 195.839 111.684,195.948 112.200,196.128 112.200 C 196.308 112.200,196.455 111.919,196.455 111.575 C 196.455 111.230,196.689 110.946,196.976 110.943 C 197.372 110.938,197.378 110.860,197.000 110.620 C 196.726 110.446,196.433 109.182,196.349 107.811 L 196.195 105.318 196.083 107.612 M190.063 106.946 C 189.767 107.718,190.125 108.029,191.310 108.029 C 191.972 108.029,192.273 107.795,192.251 107.299 C 192.231 106.863,192.133 106.779,192.007 107.091 C 191.892 107.377,191.443 107.612,191.011 107.612 C 190.483 107.612,190.303 107.406,190.464 106.986 C 190.596 106.642,190.611 106.361,190.496 106.361 C 190.381 106.361,190.186 106.624,190.063 106.946 M198.706 107.364 C 198.583 107.686,198.558 108.578,198.653 109.345 C 198.800 110.549,198.833 110.487,198.890 108.890 L 198.957 107.039 200.313 108.264 L 201.668 109.489 200.443 108.133 C 199.045 106.586,199.011 106.571,198.706 107.364 M206.562 108.446 C 206.562 109.249,206.648 109.578,206.753 109.176 C 206.857 108.775,206.857 108.118,206.753 107.716 C 206.648 107.315,206.562 107.643,206.562 108.446 M189.215 109.184 C 189.106 109.360,189.752 109.434,190.650 109.349 C 191.549 109.263,192.284 109.119,192.284 109.028 C 192.284 108.717,189.413 108.863,189.215 109.184 M206.821 111.472 C 207.031 111.682,207.647 111.784,208.190 111.699 C 209.025 111.567,208.966 111.508,207.808 111.316 C 206.979 111.179,206.590 111.240,206.821 111.472 M219.660 118.321 C 219.920 118.510,220.236 119.041,220.362 119.499 C 220.543 120.157,220.576 120.120,220.515 119.324 C 220.473 118.768,220.156 118.238,219.812 118.145 C 219.399 118.033,219.347 118.093,219.660 118.321 M241.397 118.751 C 241.913 118.851,242.758 118.851,243.274 118.751 C 243.790 118.652,243.368 118.570,242.336 118.570 C 241.303 118.570,240.881 118.652,241.397 118.751 M214.538 122.419 C 214.537 124.484,214.607 125.381,214.695 124.413 C 214.782 123.445,214.783 121.756,214.697 120.659 C 214.611 119.562,214.539 120.355,214.538 122.419 M281.960 119.114 C 281.960 119.396,284.127 120.183,284.334 119.976 C 284.428 119.882,283.933 119.605,283.233 119.361 C 282.533 119.117,281.960 119.006,281.960 119.114 M231.109 119.880 C 231.426 120.193,235.213 120.296,235.510 120.000 C 235.670 119.839,234.706 119.708,233.368 119.708 C 232.030 119.708,231.013 119.785,231.109 119.880 M219.875 122.836 C 219.873 124.213,220.023 125.714,220.208 126.173 C 220.405 126.658,220.465 125.785,220.353 124.088 C 220.102 120.273,219.879 119.692,219.875 122.836 M184.202 122.680 C 183.855 124.418,184.192 124.755,184.567 123.045 C 184.726 122.324,184.768 121.647,184.662 121.541 C 184.556 121.434,184.349 121.947,184.202 122.680 M232.303 122.941 L 230.865 124.505 232.430 123.067 C 233.885 121.729,234.186 121.376,233.867 121.376 C 233.797 121.376,233.093 122.080,232.303 122.941 M242.700 122.941 C 242.196 123.582,242.206 123.609,242.775 123.166 C 243.143 122.880,245.130 122.601,247.364 122.522 L 251.303 122.384 247.288 122.297 C 243.893 122.224,243.184 122.324,242.700 122.941 M280.292 122.716 C 280.407 122.829,281.153 123.142,281.951 123.411 C 282.749 123.681,283.218 123.722,282.994 123.503 C 282.769 123.283,282.023 122.970,281.335 122.807 C 280.647 122.644,280.177 122.603,280.292 122.716 M259.983 126.173 C 259.986 127.550,260.063 128.062,260.156 127.313 C 260.249 126.563,260.247 125.437,260.152 124.810 C 260.057 124.183,259.981 124.797,259.983 126.173 M249.948 125.418 C 250.349 125.523,251.006 125.523,251.408 125.418 C 251.809 125.313,251.481 125.227,250.678 125.227 C 249.875 125.227,249.546 125.313,249.948 125.418 M289.885 129.718 C 289.082 130.158,288.576 130.526,288.759 130.535 C 289.201 130.558,291.554 129.335,291.554 129.082 C 291.554 128.809,291.529 128.818,289.885 129.718 M206.882 130.107 C 206.882 130.320,206.460 130.576,205.944 130.675 C 205.139 130.830,205.169 130.864,206.152 130.913 C 206.919 130.951,207.299 130.762,207.299 130.344 C 207.299 130.000,207.205 129.718,207.091 129.718 C 206.976 129.718,206.882 129.893,206.882 130.107 M212.949 130.657 C 213.105 131.173,213.404 131.779,213.614 132.003 C 213.824 132.227,213.784 131.805,213.526 131.065 C 212.998 129.549,212.510 129.205,212.949 130.657 M268.378 133.994 L 267.153 135.349 268.509 134.124 C 269.254 133.450,269.864 132.840,269.864 132.769 C 269.864 132.446,269.520 132.730,268.378 133.994 M222.077 134.515 C 222.240 135.203,222.553 135.950,222.773 136.174 C 222.992 136.398,222.951 135.929,222.681 135.131 C 222.050 133.264,221.694 132.901,222.077 134.515 M279.994 135.766 C 279.997 136.913,280.078 137.333,280.174 136.699 C 280.270 136.065,280.267 135.127,280.168 134.614 C 280.069 134.101,279.991 134.619,279.994 135.766 M274.160 136.392 C 274.160 137.654,274.239 138.170,274.334 137.539 C 274.430 136.908,274.430 135.876,274.334 135.245 C 274.239 134.614,274.160 135.130,274.160 136.392 M216.235 136.548 C 216.253 137.334,216.395 137.899,216.551 137.804 C 216.707 137.708,216.953 137.821,217.097 138.054 C 217.241 138.287,217.582 138.472,217.856 138.465 C 218.129 138.458,218.024 138.261,217.623 138.027 C 217.221 137.793,216.890 137.283,216.886 136.893 C 216.883 136.503,216.728 135.944,216.542 135.651 C 216.333 135.322,216.216 135.666,216.235 136.548 M172.888 136.809 C 172.363 137.035,172.286 137.168,172.680 137.168 C 173.024 137.168,173.681 137.006,174.140 136.809 C 174.666 136.583,174.743 136.451,174.348 136.451 C 174.004 136.451,173.347 136.612,172.888 136.809 M260.792 136.691 C 261.423 136.786,262.456 136.786,263.087 136.691 C 263.717 136.595,263.201 136.517,261.940 136.517 C 260.678 136.517,260.162 136.595,260.792 136.691 M173.201 143.782 C 173.832 143.877,174.864 143.877,175.495 143.782 C 176.126 143.686,175.610 143.608,174.348 143.608 C 173.087 143.608,172.570 143.686,173.201 143.782 M229.309 143.785 C 230.059 143.878,231.185 143.876,231.811 143.781 C 232.438 143.686,231.825 143.610,230.448 143.612 C 229.072 143.614,228.559 143.692,229.309 143.785 M195.933 144.611 C 196.449 144.711,197.294 144.711,197.810 144.611 C 198.326 144.512,197.904 144.431,196.872 144.431 C 195.839 144.431,195.417 144.512,195.933 144.611 M207.200 144.612 C 207.719 144.712,208.469 144.708,208.868 144.604 C 209.267 144.499,208.843 144.418,207.925 144.422 C 207.007 144.427,206.681 144.512,207.200 144.612 M190.516 145.029 C 191.035 145.129,191.785 145.125,192.184 145.021 C 192.583 144.916,192.158 144.835,191.241 144.839 C 190.323 144.844,189.997 144.929,190.516 145.029 M203.729 145.383 C 202.933 146.021,202.933 146.025,203.754 145.648 C 204.213 145.437,204.870 145.160,205.214 145.032 C 205.754 144.832,205.751 144.795,205.189 144.767 C 204.832 144.749,204.175 145.026,203.729 145.383 M212.622 145.029 C 213.141 145.129,213.892 145.125,214.291 145.021 C 214.689 144.916,214.265 144.835,213.347 144.839 C 212.430 144.844,212.103 144.929,212.622 145.029 M153.811 145.446 C 154.330 145.546,155.081 145.542,155.479 145.438 C 155.878 145.333,155.454 145.252,154.536 145.256 C 153.618 145.261,153.292 145.346,153.811 145.446 M157.769 145.439 C 158.170 145.544,158.827 145.544,159.228 145.439 C 159.630 145.334,159.301 145.248,158.498 145.248 C 157.696 145.248,157.367 145.334,157.769 145.439 M246.624 145.458 C 247.720 145.545,249.409 145.543,250.378 145.456 C 251.346 145.369,250.448 145.298,248.384 145.299 C 246.319 145.301,245.527 145.372,246.624 145.458 M164.017 146.584 L 163.218 147.600 162.224 146.688 L 161.231 145.777 162.232 146.924 C 163.434 148.303,163.165 148.317,164.272 146.820 C 165.376 145.327,165.161 145.129,164.017 146.584 M151.922 151.825 C 151.922 152.628,152.007 152.956,152.112 152.555 C 152.217 152.153,152.217 151.496,152.112 151.095 C 152.007 150.693,151.922 151.022,151.922 151.825 M251.490 156.726 L 250.052 158.290 251.616 156.852 C 253.072 155.515,253.372 155.162,253.054 155.162 C 252.984 155.162,252.280 155.865,251.490 156.726 M162.252 161.998 C 162.252 162.088,162.896 162.236,163.683 162.328 C 164.470 162.420,165.022 162.347,164.910 162.165 C 164.708 161.839,162.252 161.684,162.252 161.998 M239.678 162.165 C 239.566 162.347,240.118 162.420,240.905 162.328 C 241.692 162.236,242.336 162.088,242.336 161.998 C 242.336 161.684,239.880 161.839,239.678 162.165 M173.723 166.423 C 174.181 166.621,174.932 166.776,175.391 166.770 C 176.062 166.760,176.021 166.692,175.182 166.423 C 173.756 165.967,172.660 165.967,173.723 166.423 M228.630 166.485 C 227.859 166.707,227.303 166.962,227.393 167.052 C 227.484 167.143,228.490 166.961,229.629 166.649 C 230.768 166.336,231.324 166.081,230.865 166.081 C 230.407 166.081,229.401 166.263,228.630 166.485 M182.935 168.477 C 183.414 168.682,184.916 168.953,186.272 169.081 C 188.576 169.297,188.615 169.287,186.861 168.926 C 183.536 168.242,181.962 168.062,182.935 168.477 M216.997 168.796 C 217.398 168.901,218.055 168.901,218.457 168.796 C 218.858 168.691,218.530 168.606,217.727 168.606 C 216.924 168.606,216.595 168.691,216.997 168.796 M213.873 169.221 C 214.392 169.321,215.143 169.317,215.542 169.213 C 215.941 169.108,215.516 169.027,214.599 169.031 C 213.681 169.036,213.355 169.121,213.873 169.221 M194.056 170.048 C 194.458 170.153,195.115 170.153,195.516 170.048 C 195.918 169.943,195.589 169.857,194.786 169.857 C 193.983 169.857,193.655 169.943,194.056 170.048 M204.280 170.055 C 204.799 170.155,205.550 170.151,205.949 170.047 C 206.347 169.942,205.923 169.861,205.005 169.865 C 204.088 169.870,203.761 169.955,204.280 170.055 M152.248 177.594 C 152.239 178.356,153.458 178.722,154.043 178.133 C 154.424 177.749,154.360 177.703,153.764 177.930 C 153.284 178.112,152.852 178.003,152.623 177.642 C 152.348 177.206,152.253 177.194,152.248 177.594 M159.611 178.797 C 159.214 179.194,159.267 180.515,159.689 180.776 C 159.886 180.897,159.952 180.505,159.838 179.905 C 159.680 179.083,159.763 178.895,160.171 179.147 C 160.528 179.368,160.611 179.318,160.415 179.001 C 160.070 178.442,159.987 178.421,159.611 178.797 M197.706 181.600 C 197.706 181.689,198.259 181.843,198.935 181.942 C 199.611 182.041,200.069 181.969,199.953 181.781 C 199.747 181.446,197.706 181.282,197.706 181.600 M200.568 184.334 C 201.109 184.806,201.750 185.193,201.993 185.193 C 202.506 185.193,202.481 185.172,200.834 184.208 L 199.583 183.475 200.568 184.334 " stroke="none" fill="#cfcfcf" fill-rule="evenodd"></path><path id="path4" d="M175.026 36.319 C 173.449 36.535,170.840 37.113,169.230 37.602 L 166.301 38.492 165.221 40.935 C 163.973 43.759,164.029 43.738,161.752 42.231 C 156.065 38.468,144.734 45.193,144.734 52.332 C 144.734 53.777,144.701 53.806,143.042 53.806 C 137.515 53.806,133.055 58.116,133.055 63.457 C 133.055 64.997,133.270 66.367,133.556 66.653 C 134.147 67.244,143.066 67.364,143.066 66.781 C 143.066 66.120,146.877 62.148,147.512 62.148 C 147.850 62.148,148.803 62.664,149.630 63.295 C 151.016 64.352,151.432 64.442,154.921 64.441 C 158.614 64.439,158.950 64.363,163.968 62.370 C 164.496 62.160,164.696 62.448,164.897 63.706 C 165.837 69.578,171.332 71.360,185.735 70.462 C 195.510 69.852,195.775 69.775,197.258 67.082 C 197.849 66.010,198.473 64.992,198.646 64.821 C 199.152 64.319,200.928 66.265,201.198 67.618 C 201.576 69.507,203.137 69.894,212.722 70.477 C 226.047 71.287,232.013 69.642,232.964 64.897 C 233.553 61.956,233.332 62.063,236.416 63.227 C 241.414 65.112,245.955 65.095,248.777 63.180 C 250.948 61.707,253.044 62.764,254.821 66.228 C 255.292 67.145,255.481 67.176,259.980 67.062 L 264.651 66.945 265.022 65.026 C 266.045 59.733,261.857 54.355,256.368 53.914 L 253.696 53.700 253.437 51.806 C 252.334 43.760,241.014 38.087,235.573 42.854 C 234.508 43.787,233.864 43.302,233.007 40.918 C 232.094 38.380,232.055 38.356,226.694 37.076 C 216.954 34.749,204.540 35.804,200.814 39.275 C 199.312 40.674,198.786 40.742,198.012 39.637 C 195.873 36.584,184.772 34.981,175.026 36.319 M202.585 100.984 C 201.928 101.367,201.869 101.786,202.117 104.308 C 202.464 107.831,202.227 107.867,199.609 104.689 C 198.259 103.051,197.241 102.190,196.655 102.190 C 195.356 102.190,195.249 102.461,195.865 104.186 C 196.169 105.038,196.426 106.814,196.436 108.133 C 196.454 110.409,196.508 110.532,197.497 110.532 C 198.433 110.532,198.540 110.363,198.540 108.888 C 198.540 106.157,199.424 106.538,202.294 110.503 C 204.445 113.476,205.359 109.124,204.104 101.877 C 203.849 100.405,203.716 100.326,202.585 100.984 M189.968 102.802 C 189.636 103.598,189.364 104.322,189.364 104.413 C 189.364 104.503,188.627 105.918,187.726 107.556 C 186.159 110.407,186.124 110.554,186.901 110.970 C 187.887 111.498,188.458 111.192,188.962 109.866 C 189.559 108.295,191.990 108.446,192.976 110.115 C 193.382 110.803,193.941 111.366,194.216 111.366 C 194.492 111.366,195.015 111.480,195.378 111.619 C 196.283 111.967,196.208 111.346,195.032 108.771 C 194.478 107.560,193.784 105.396,193.488 103.962 C 192.817 100.708,191.082 100.136,189.968 102.802 M205.738 102.504 C 205.334 102.782,205.409 103.399,206.073 105.289 C 206.559 106.673,206.872 108.458,206.800 109.438 C 206.682 111.042,206.751 111.166,207.826 111.290 C 211.773 111.744,216.657 108.311,215.432 105.943 C 214.172 103.505,207.645 101.190,205.738 102.504 M212.356 105.365 C 213.369 106.281,213.350 107.401,212.304 108.446 C 210.956 109.794,209.521 109.549,209.252 107.925 C 209.128 107.179,208.893 106.024,208.728 105.358 C 208.379 103.944,210.791 103.948,212.356 105.365 M192.021 106.465 C 192.409 107.916,192.355 108.029,191.265 108.029 C 189.926 108.029,189.673 107.534,190.448 106.429 C 191.255 105.276,191.705 105.287,192.021 106.465 M187.716 115.103 L 185.859 115.842 185.310 119.131 C 185.008 120.939,184.499 123.264,184.179 124.296 C 183.860 125.328,183.484 126.689,183.345 127.320 C 182.995 128.904,182.699 128.769,181.022 126.267 C 176.869 120.065,174.711 117.858,173.176 118.243 C 169.138 119.257,169.040 119.456,170.419 123.879 C 171.087 126.020,172.257 133.403,172.260 135.499 C 172.262 136.742,172.368 136.873,173.201 136.666 C 173.717 136.537,174.941 136.305,175.921 136.149 C 177.635 135.876,177.695 135.816,177.506 134.565 C 176.951 130.889,176.854 128.884,177.231 128.884 C 177.877 128.884,180.471 133.078,181.059 135.072 L 181.593 136.881 183.497 136.597 C 185.800 136.255,185.359 137.006,186.428 131.602 C 186.927 129.082,187.419 126.936,187.522 126.833 C 188.276 126.079,189.684 130.461,190.033 134.648 L 190.309 137.947 191.960 137.576 C 193.395 137.254,193.905 137.364,195.849 138.417 L 198.087 139.629 199.792 136.759 L 201.497 133.889 204.711 133.892 L 207.925 133.895 209.513 136.812 C 211.036 139.607,211.167 139.729,212.642 139.733 C 213.489 139.736,214.894 139.856,215.764 140.000 L 217.348 140.261 216.324 138.336 C 215.761 137.278,214.970 135.516,214.565 134.421 C 214.160 133.326,213.701 132.242,213.545 132.013 C 212.938 131.122,210.110 121.853,209.546 118.906 C 208.826 115.140,209.263 115.490,205.976 116.053 L 203.219 116.525 202.052 119.889 C 200.561 124.184,197.754 130.037,195.969 132.570 C 195.121 133.775,195.152 133.862,193.965 127.007 C 193.489 124.254,192.975 121.721,192.824 121.376 C 192.672 121.032,192.149 119.343,191.661 117.623 C 190.670 114.135,190.468 114.006,187.716 115.103 M214.810 122.101 C 214.812 126.919,215.668 133.474,216.647 136.184 L 217.250 137.852 220.077 137.732 C 223.310 137.594,223.516 137.492,222.815 136.370 C 221.774 134.703,221.054 130.553,221.805 130.553 C 222.351 130.553,225.805 132.381,228.989 134.353 C 229.333 134.567,230.498 135.177,231.578 135.710 C 232.659 136.243,233.806 136.897,234.127 137.164 C 234.576 137.537,235.061 137.503,236.216 137.021 C 238.151 136.213,238.999 136.224,238.999 137.060 C 238.999 137.827,239.297 137.804,247.967 136.384 C 255.401 135.166,255.266 135.201,255.266 134.507 C 255.266 133.692,256.475 133.710,256.789 134.531 C 257.433 136.207,262.152 136.975,265.318 135.919 C 268.408 134.888,271.173 131.000,271.730 126.903 C 271.894 125.699,272.164 124.713,272.331 124.713 C 272.702 124.713,273.999 131.818,274.331 135.671 C 274.532 137.999,274.692 138.461,275.244 138.301 C 275.611 138.195,276.822 137.979,277.934 137.822 L 279.955 137.537 279.811 134.566 L 279.666 131.595 283.420 131.259 C 294.663 130.253,296.268 124.043,286.131 120.767 C 284.870 120.359,283.274 119.779,282.586 119.478 C 278.534 117.706,271.116 117.678,271.116 119.435 C 271.116 119.657,270.672 119.322,270.130 118.691 L 269.145 117.544 266.832 118.638 L 264.518 119.733 265.208 121.076 C 267.229 125.014,266.022 132.221,263.342 132.221 C 260.652 132.221,259.544 129.475,260.051 124.065 C 260.381 120.542,260.392 120.552,257.956 122.106 C 255.698 123.547,254.658 125.917,254.950 128.956 C 255.126 130.787,255.045 131.073,254.269 131.360 C 253.235 131.742,244.043 132.827,243.842 132.591 C 243.444 132.124,243.250 130.264,243.548 129.781 C 243.775 129.414,245.419 129.103,248.377 128.866 C 250.844 128.669,252.907 128.451,252.962 128.383 C 253.017 128.314,253.164 127.595,253.289 126.785 L 253.516 125.311 248.189 125.477 L 242.862 125.643 242.670 124.336 C 242.367 122.271,242.984 122.060,248.575 122.318 C 254.029 122.569,253.696 122.756,252.674 120.021 L 252.245 118.874 246.699 118.874 C 243.648 118.874,240.892 118.774,240.573 118.651 C 240.254 118.529,239.535 118.830,238.975 119.320 C 238.414 119.810,237.637 120.437,237.248 120.714 C 236.599 121.174,236.591 121.369,237.163 123.027 C 238.141 125.868,238.966 134.064,238.290 134.233 C 237.680 134.385,230.237 130.053,228.598 128.591 L 227.529 127.639 231.178 124.073 C 235.539 119.813,235.469 120.125,232.067 120.125 L 229.306 120.125 225.580 123.670 C 220.480 128.524,219.488 128.175,219.965 121.694 C 220.231 118.074,220.504 118.383,216.580 117.852 L 214.807 117.613 214.810 122.101 M283.881 123.891 C 288.120 125.816,287.840 127.199,283.009 128.187 C 279.420 128.921,279.205 128.842,278.870 126.669 C 278.722 125.708,278.493 124.320,278.361 123.585 L 278.121 122.249 279.728 122.492 C 280.612 122.625,282.481 123.254,283.881 123.891 M206.589 128.100 C 207.463 131.074,207.598 130.789,205.146 131.145 C 202.557 131.520,202.337 131.015,203.777 128.003 C 205.253 124.914,205.657 124.928,206.589 128.100 M167.781 144.772 C 165.959 145.349,164.904 145.965,164.273 146.819 L 163.370 148.040 161.962 146.804 C 158.587 143.841,150.997 145.229,151.631 148.694 C 151.799 149.613,151.958 151.556,151.985 153.011 C 152.029 155.413,152.148 155.752,153.285 156.696 C 156.845 159.656,161.136 161.835,163.402 161.835 C 163.977 161.835,165.354 162.487,166.462 163.283 C 170.005 165.828,186.146 169.453,196.246 169.971 C 203.272 170.332,220.155 168.793,226.060 167.253 C 226.868 167.042,229.571 166.387,232.067 165.796 C 235.729 164.929,236.946 164.442,238.367 163.278 C 239.335 162.485,240.591 161.835,241.157 161.835 C 243.821 161.835,248.464 159.455,251.616 156.472 L 253.180 154.992 253.180 150.748 C 253.180 145.389,253.240 145.445,247.766 145.633 C 243.745 145.771,243.537 145.825,242.638 146.953 L 241.701 148.128 240.767 146.865 C 238.028 143.161,226.335 142.774,221.644 146.233 C 220.737 146.902,220.216 147.057,219.909 146.749 C 218.359 145.199,207.618 144.236,204.477 145.365 C 202.518 146.070,202.288 146.073,200.666 145.425 C 197.734 144.251,189.376 144.803,185.714 146.411 C 184.739 146.839,183.942 147.027,183.942 146.829 C 183.942 144.394,173.264 143.035,167.781 144.772 M236.913 174.068 C 231.429 175.906,230.293 177.685,234.605 177.685 C 239.286 177.685,241.028 176.580,239.842 174.364 C 239.330 173.407,238.987 173.373,236.913 174.068 M150.991 174.578 C 150.991 175.385,152.972 178.093,153.493 177.999 C 154.892 177.747,154.517 174.908,153.046 174.613 C 151.420 174.288,150.991 174.281,150.991 174.578 M225.500 177.533 C 224.135 178.898,224.113 179.353,225.409 179.353 C 225.964 179.353,226.700 179.462,227.045 179.594 C 227.845 179.901,228.709 178.359,228.358 177.252 C 227.996 176.114,226.802 176.231,225.500 177.533 M156.248 178.348 C 156.108 178.713,156.099 179.182,156.228 179.391 C 156.653 180.079,157.147 179.787,157.349 178.728 C 157.573 177.558,156.670 177.247,156.248 178.348 M159.750 179.688 C 159.750 180.207,160.025 180.737,160.362 180.866 C 161.533 181.315,161.707 180.807,160.731 179.779 L 159.750 178.745 159.750 179.688 M163.504 181.035 C 163.504 181.650,164.628 181.997,165.485 181.647 C 166.155 181.374,166.146 181.321,165.381 181.006 C 164.204 180.523,163.504 180.533,163.504 181.035 M205.161 182.379 L 204.065 183.733 202.032 182.959 C 198.737 181.705,197.447 181.623,197.178 182.652 C 196.916 183.656,198.014 183.880,198.900 183.003 C 199.322 182.586,199.508 182.627,199.838 183.212 C 200.735 184.801,204.851 185.786,207.057 184.940 C 208.212 184.496,207.705 181.016,206.486 181.023 C 206.360 181.024,205.763 181.634,205.161 182.379 " stroke="none" fill="#ffffff" fill-rule="evenodd"></path><path id="path5" d="M194.290 35.349 C 197.573 35.419,202.828 35.419,205.969 35.348 C 209.109 35.277,206.423 35.220,200.000 35.220 C 193.577 35.220,191.007 35.278,194.290 35.349 M231.493 37.242 C 231.769 37.546,237.409 38.851,237.603 38.657 C 237.686 38.574,237.048 38.301,236.186 38.050 C 234.125 37.448,231.226 36.950,231.493 37.242 M163.712 38.373 C 162.649 38.830,163.746 38.830,165.172 38.373 C 166.010 38.105,166.051 38.037,165.381 38.027 C 164.922 38.020,164.171 38.176,163.712 38.373 M158.081 39.716 C 157.278 39.955,156.819 40.222,157.060 40.311 C 157.301 40.400,158.239 40.201,159.145 39.870 C 161.033 39.178,160.266 39.068,158.081 39.716 M240.611 39.849 C 241.383 40.185,242.321 40.445,242.696 40.427 C 243.072 40.410,242.722 40.142,241.919 39.833 C 239.943 39.072,238.852 39.086,240.611 39.849 M146.507 44.449 C 145.532 45.033,144.734 45.598,144.734 45.705 C 144.734 45.904,147.378 44.575,148.488 43.818 C 149.795 42.926,148.200 43.434,146.507 44.449 M250.886 44.429 C 251.345 44.802,252.096 45.292,252.555 45.518 L 253.389 45.927 252.555 45.248 C 252.096 44.874,251.345 44.384,250.886 44.159 L 250.052 43.750 250.886 44.429 M140.949 48.439 C 137.565 51.352,134.855 54.834,132.801 58.905 C 130.732 63.008,131.087 62.941,133.302 58.811 C 135.766 54.218,138.085 51.240,141.189 48.683 C 144.279 46.138,144.555 45.881,144.203 45.881 C 144.048 45.881,142.584 47.032,140.949 48.439 M255.474 47.607 C 258.122 49.889,260.434 52.202,262.716 54.849 C 263.915 56.240,264.192 56.448,263.547 55.474 C 262.265 53.540,256.688 47.950,254.849 46.756 C 253.826 46.092,254.013 46.347,255.474 47.607 M265.045 58.263 C 265.398 58.994,265.895 59.721,266.149 59.878 C 266.709 60.224,266.105 59.035,265.078 57.769 C 264.450 56.994,264.448 57.030,265.045 58.263 M267.446 62.347 C 267.945 63.375,268.425 64.144,268.512 64.056 C 268.701 63.868,267.016 60.480,266.733 60.480 C 266.626 60.480,266.947 61.320,267.446 62.347 M129.988 65.798 C 129.876 66.199,129.655 66.997,129.496 67.570 C 129.303 68.270,129.346 68.476,129.628 68.196 C 130.086 67.740,130.751 65.068,130.405 65.068 C 130.288 65.068,130.100 65.396,129.988 65.798 M274.870 65.899 C 278.196 66.060,280.959 66.221,281.009 66.256 C 281.059 66.291,281.380 66.835,281.722 67.466 C 282.064 68.097,282.352 68.399,282.361 68.138 C 282.430 66.161,281.016 65.695,274.803 65.650 L 268.822 65.606 274.870 65.899 M108.988 68.715 C 111.007 68.792,114.198 68.792,116.079 68.715 C 117.960 68.637,116.309 68.575,112.409 68.575 C 108.509 68.576,106.970 68.639,108.988 68.715 M282.484 69.239 C 282.675 69.938,295.597 70.401,297.309 69.770 C 297.791 69.593,294.789 69.510,290.640 69.586 C 284.704 69.696,283.012 69.607,282.705 69.169 C 282.394 68.727,282.349 68.742,282.484 69.239 M344.108 74.661 C 343.390 74.891,344.038 74.995,346.194 74.995 C 347.914 74.995,349.791 74.845,350.365 74.661 C 351.084 74.431,350.436 74.327,348.279 74.327 C 346.559 74.327,344.682 74.477,344.108 74.661 M331.178 75.085 C 329.660 75.276,331.246 75.382,335.871 75.400 C 339.855 75.416,342.857 75.263,342.857 75.044 C 342.857 74.613,334.713 74.641,331.178 75.085 M352.033 75.078 C 352.033 75.308,352.409 75.495,352.868 75.495 C 353.326 75.495,353.702 75.308,353.702 75.078 C 353.702 74.849,353.326 74.661,352.868 74.661 C 352.409 74.661,352.033 74.849,352.033 75.078 M322.211 75.495 C 322.051 75.754,322.832 75.912,324.272 75.912 C 325.547 75.912,326.590 75.725,326.590 75.495 C 326.590 75.266,325.663 75.078,324.529 75.078 C 323.396 75.078,322.352 75.266,322.211 75.495 M354.327 75.495 C 354.469 75.725,354.856 75.912,355.186 75.912 C 355.517 75.912,355.787 75.725,355.787 75.495 C 355.787 75.266,355.401 75.078,354.928 75.078 C 354.456 75.078,354.186 75.266,354.327 75.495 M320.125 76.693 C 319.437 77.120,318.405 78.004,317.831 78.657 L 316.788 79.844 318.258 78.608 C 319.066 77.928,320.193 77.054,320.761 76.664 C 322.161 75.704,321.682 75.726,320.125 76.693 M358.707 77.053 C 358.707 77.253,359.645 77.753,360.792 78.166 C 361.940 78.578,362.878 79.047,362.878 79.208 C 362.878 79.369,363.676 79.917,364.651 80.427 C 366.519 81.404,368.892 82.967,370.009 83.954 C 371.087 84.908,371.637 85.166,371.637 84.719 C 371.637 84.249,364.193 79.199,362.252 78.352 C 361.564 78.052,360.907 77.687,360.792 77.541 C 360.428 77.078,358.707 76.675,358.707 77.053 M316.075 81.022 C 315.372 82.121,314.857 83.420,315.125 83.420 C 315.227 83.420,315.695 82.669,316.163 81.752 C 317.088 79.938,317.038 79.518,316.075 81.022 M313.438 86.952 C 312.541 90.037,312.872 90.369,313.827 87.341 C 314.230 86.062,314.462 84.918,314.343 84.799 C 314.224 84.679,313.817 85.648,313.438 86.952 M117.101 85.383 C 117.617 85.482,118.462 85.482,118.978 85.383 C 119.494 85.284,119.072 85.202,118.040 85.202 C 117.007 85.202,116.585 85.284,117.101 85.383 M372.054 85.243 C 372.054 85.328,374.444 87.440,377.365 89.936 C 380.285 92.431,382.960 94.773,383.308 95.139 C 389.012 101.133,395.829 110.154,395.829 111.708 C 395.829 111.979,396.037 112.200,396.291 112.200 C 396.567 112.200,396.632 111.907,396.452 111.470 C 396.287 111.069,396.057 110.412,395.942 110.010 C 395.826 109.609,395.606 109.281,395.453 109.281 C 395.300 109.281,394.819 108.670,394.385 107.925 C 393.158 105.818,389.035 100.525,386.907 98.324 C 385.850 97.231,384.984 96.173,384.984 95.974 C 384.984 95.775,384.543 95.323,384.004 94.970 C 383.465 94.617,382.170 93.516,381.127 92.523 C 380.084 91.531,378.340 89.969,377.252 89.051 C 376.165 88.133,374.691 86.870,373.977 86.242 C 372.808 85.214,372.054 84.823,372.054 85.243 M311.748 103.650 C 311.749 108.008,311.811 109.735,311.886 107.486 C 311.961 105.238,311.961 101.671,311.885 99.561 C 311.809 97.451,311.748 99.291,311.748 103.650 M140.668 107.821 C 140.673 108.738,140.758 109.065,140.858 108.546 C 140.958 108.027,140.954 107.276,140.850 106.877 C 140.745 106.479,140.664 106.903,140.668 107.821 M312.088 113.869 C 312.088 114.672,312.174 115.000,312.279 114.599 C 312.384 114.197,312.384 113.540,312.279 113.139 C 312.174 112.737,312.088 113.066,312.088 113.869 M397.522 114.780 C 398.441 117.125,399.507 118.646,398.954 116.825 C 398.391 114.968,397.514 113.094,397.082 112.827 C 396.846 112.681,397.045 113.560,397.522 114.780 M312.859 118.934 C 312.820 119.748,314.485 125.279,314.703 125.060 C 314.838 124.926,313.502 119.709,313.066 118.665 C 312.970 118.436,312.877 118.557,312.859 118.934 M399.726 123.253 C 399.727 125.089,399.801 125.788,399.889 124.806 C 399.977 123.825,399.976 122.324,399.886 121.470 C 399.796 120.615,399.724 121.418,399.726 123.253 M150.756 125.652 L 149.531 127.007 150.886 125.782 C 152.150 124.640,152.434 124.296,152.111 124.296 C 152.040 124.296,151.430 124.906,150.756 125.652 M314.915 125.672 C 314.892 127.671,320.880 133.889,322.828 133.889 C 323.746 133.889,323.188 133.146,322.106 132.928 C 320.451 132.593,317.569 129.959,316.147 127.479 C 315.472 126.302,314.917 125.489,314.915 125.672 M398.339 128.333 C 397.781 129.148,396.893 130.012,396.368 130.251 C 395.513 130.641,395.040 131.387,395.648 131.387 C 396.287 131.387,398.878 129.016,399.219 128.120 C 399.799 126.594,399.477 126.672,398.339 128.333 M377.372 132.531 C 379.035 132.610,381.757 132.610,383.420 132.531 C 385.083 132.452,383.723 132.387,380.396 132.387 C 377.070 132.387,375.709 132.452,377.372 132.531 M352.033 133.070 C 352.033 133.307,354.178 133.472,357.247 133.472 C 360.316 133.472,362.461 133.307,362.461 133.070 C 362.461 132.833,360.316 132.668,357.247 132.668 C 354.178 132.668,352.033 132.833,352.033 133.070 M329.718 133.472 C 329.565 133.721,330.062 133.889,330.945 133.889 C 331.762 133.889,332.430 133.702,332.430 133.472 C 332.430 133.243,331.878 133.055,331.203 133.055 C 330.528 133.055,329.860 133.243,329.718 133.472 M335.141 133.472 C 334.985 133.724,335.554 133.889,336.576 133.889 C 337.507 133.889,338.269 133.702,338.269 133.472 C 338.269 133.243,337.623 133.055,336.834 133.055 C 336.044 133.055,335.283 133.243,335.141 133.472 M283.499 141.044 C 283.085 143.076,283.138 143.066,273.400 143.066 C 268.730 143.066,264.821 143.206,264.715 143.379 C 264.608 143.551,268.633 143.637,273.658 143.572 C 283.709 143.440,284.390 143.236,283.960 140.483 C 283.841 139.718,283.746 139.833,283.499 141.044 M262.165 146.796 C 261.333 147.930,258.830 150.593,256.603 152.713 C 252.583 156.541,252.454 156.902,256.250 153.702 C 258.731 151.610,264.578 144.734,263.877 144.734 C 263.768 144.734,262.998 145.662,262.165 146.796 M132.294 145.881 L 142.587 146.000 143.660 147.276 C 144.251 147.978,144.734 148.407,144.734 148.230 C 144.734 148.053,144.230 147.382,143.613 146.738 L 142.493 145.568 132.247 145.665 L 122.002 145.762 132.294 145.881 M112.722 146.284 C 113.352 146.380,114.385 146.380,115.016 146.284 C 115.647 146.189,115.130 146.110,113.869 146.110 C 112.607 146.110,112.091 146.189,112.722 146.284 M146.403 149.910 C 147.823 151.439,150.991 154.140,150.991 153.822 C 150.991 153.735,149.630 152.465,147.967 151.001 C 146.303 149.537,145.600 149.046,146.403 149.910 M239.625 163.511 C 238.694 163.968,238.417 164.217,238.999 164.074 C 240.217 163.773,242.321 162.706,241.710 162.697 C 241.481 162.694,240.542 163.060,239.625 163.511 M210.428 170.177 C 209.365 170.634,210.461 170.634,211.887 170.177 C 212.726 169.909,212.767 169.841,212.096 169.831 C 211.637 169.824,210.886 169.980,210.428 170.177 M196.976 170.904 C 198.525 170.984,201.058 170.984,202.607 170.904 C 204.155 170.823,202.888 170.758,199.791 170.758 C 196.694 170.758,195.428 170.823,196.976 170.904 " stroke="none" fill="#751318" fill-rule="evenodd"></path><path id="path6" d="M154.327 0.251 C 151.353 0.513,144.567 1.734,144.108 2.090 C 143.879 2.267,142.511 2.713,141.068 3.079 C 136.609 4.211,129.034 7.939,124.922 11.024 C 120.886 14.053,115.756 19.127,115.299 20.542 C 115.170 20.944,114.918 21.272,114.740 21.272 C 114.114 21.272,108.863 30.936,108.863 32.089 C 108.863 32.332,108.495 33.611,108.045 34.931 C 107.595 36.251,106.926 39.208,106.559 41.502 C 106.192 43.796,105.722 46.048,105.515 46.507 C 105.308 46.966,104.768 49.875,104.315 52.972 C 103.861 56.069,103.315 59.541,103.102 60.688 C 102.888 61.835,102.581 64.163,102.420 65.860 L 102.127 68.947 104.722 68.676 C 106.150 68.527,112.238 68.405,118.251 68.405 L 129.185 68.405 130.344 64.964 C 135.425 49.884,144.146 43.021,164.338 38.212 C 177.463 35.085,175.282 35.271,199.166 35.257 C 221.698 35.245,222.169 35.272,232.325 37.180 C 234.629 37.613,242.417 39.896,243.587 40.481 C 243.931 40.654,245.455 41.375,246.973 42.086 C 256.070 46.340,265.427 55.752,268.463 63.703 L 269.144 65.485 274.274 65.485 C 280.486 65.485,281.396 65.772,282.277 68.016 L 282.941 69.707 290.342 69.577 C 294.412 69.506,297.838 69.352,297.954 69.235 C 298.285 68.903,296.865 55.283,296.483 55.127 C 296.295 55.050,296.142 54.345,296.142 53.560 C 296.142 51.906,295.060 44.444,294.494 42.198 C 293.262 37.305,292.323 34.173,291.770 33.112 C 291.424 32.450,291.141 31.666,291.139 31.371 C 291.138 31.075,290.435 29.292,289.577 27.408 C 288.224 24.438,287.291 22.806,284.781 19.018 C 282.108 14.985,275.762 9.123,272.382 7.563 C 271.571 7.188,270.659 6.648,270.356 6.361 C 270.053 6.074,269.636 5.839,269.430 5.839 C 269.224 5.839,267.996 5.355,266.703 4.763 C 265.409 4.172,262.729 3.381,260.747 3.007 C 258.764 2.632,257.009 2.131,256.845 1.893 C 256.383 1.220,237.243 1.306,237.018 1.981 C 236.922 2.268,236.250 2.505,235.523 2.509 C 233.072 2.520,221.893 5.724,221.064 6.653 C 220.949 6.781,220.104 7.143,219.187 7.457 C 218.269 7.771,215.829 8.837,213.764 9.825 C 209.076 12.070,203.624 14.181,202.512 14.182 C 201.696 14.183,195.840 11.812,194.995 11.138 C 193.285 9.774,180.351 3.556,177.894 2.916 C 176.747 2.618,175.620 2.231,175.391 2.056 C 173.887 0.914,160.153 -0.263,154.327 0.251 M342.860 75.197 C 342.859 75.376,339.197 75.470,334.724 75.405 C 330.250 75.340,326.590 75.428,326.590 75.600 C 326.590 75.772,325.511 75.913,324.192 75.915 C 321.058 75.917,318.327 77.854,316.244 81.550 C 307.963 96.244,311.908 130.890,322.093 132.928 C 322.731 133.055,323.253 133.324,323.253 133.525 C 323.253 134.034,329.402 133.984,329.718 133.472 C 329.860 133.243,330.528 133.055,331.203 133.055 C 331.878 133.055,332.430 133.243,332.430 133.472 C 332.430 133.702,332.982 133.889,333.656 133.889 C 334.331 133.889,334.999 133.702,335.141 133.472 C 335.456 132.962,338.269 132.912,338.269 133.418 C 338.269 133.875,351.745 133.480,352.048 133.014 C 352.420 132.442,362.174 132.592,362.538 133.176 C 362.779 133.563,363.035 133.568,363.637 133.195 C 364.157 132.873,368.353 132.622,376.059 132.453 C 389.495 132.157,393.314 131.917,394.029 131.323 C 394.310 131.089,394.737 131.019,394.977 131.167 C 395.216 131.315,395.412 131.267,395.412 131.061 C 395.412 130.855,395.840 130.492,396.363 130.253 C 399.406 128.867,400.844 120.682,398.658 117.190 C 398.304 116.625,397.685 115.271,397.282 114.181 C 396.880 113.092,396.388 112.200,396.189 112.200 C 395.991 112.200,395.829 111.979,395.829 111.708 C 395.829 110.700,389.660 101.921,387.086 99.266 C 386.733 98.902,385.700 97.769,384.791 96.747 C 383.390 95.174,372.794 85.934,370.177 84.004 C 367.963 82.370,366.269 81.274,364.651 80.427 C 363.676 79.917,362.878 79.369,362.878 79.208 C 362.878 79.047,361.940 78.578,360.792 78.166 C 359.645 77.753,358.707 77.290,358.707 77.136 C 358.707 76.981,357.815 76.614,356.726 76.319 C 355.636 76.025,354.557 75.678,354.327 75.548 C 354.098 75.419,353.488 75.367,352.972 75.434 C 352.456 75.500,352.033 75.380,352.033 75.166 C 352.033 74.945,350.043 74.796,347.449 74.823 C 344.927 74.849,342.862 75.017,342.860 75.197 M359.975 80.358 C 376.933 88.486,397.095 110.408,397.255 120.891 C 397.468 134.890,360.841 110.090,349.699 88.691 C 344.409 78.530,348.774 74.990,359.975 80.358 M284.046 140.679 C 284.046 143.366,283.621 143.483,273.813 143.483 L 264.878 143.483 264.158 144.630 C 250.824 165.852,209.843 176.847,177.894 167.775 C 176.288 167.319,173.472 166.538,171.637 166.039 C 169.697 165.511,167.414 164.529,166.184 163.692 C 164.926 162.836,163.558 162.252,162.809 162.252 C 160.180 162.252,151.408 156.650,151.408 154.971 C 151.408 154.673,150.422 153.582,149.218 152.546 C 148.014 151.510,145.996 149.612,144.734 148.327 L 142.440 145.990 130.303 145.988 C 112.016 145.984,110.620 146.196,112.349 148.708 C 112.661 149.161,113.158 150.282,113.454 151.199 C 113.749 152.117,114.339 153.522,114.764 154.321 C 115.189 155.121,115.537 155.927,115.537 156.113 C 115.537 156.299,116.194 157.855,116.997 159.570 C 117.800 161.285,118.457 162.858,118.457 163.066 C 118.457 163.274,118.691 163.692,118.978 163.995 C 119.265 164.298,119.921 165.391,120.436 166.423 C 120.951 167.456,121.603 168.676,121.886 169.135 C 122.168 169.593,123.145 171.189,124.058 172.680 C 124.970 174.171,125.964 175.673,126.267 176.017 C 126.570 176.361,127.907 178.050,129.238 179.771 C 131.847 183.141,138.485 189.602,141.177 191.391 C 142.088 191.997,143.168 192.821,143.576 193.222 C 143.983 193.624,144.491 193.952,144.704 193.952 C 144.917 193.952,145.340 194.198,145.643 194.499 C 145.946 194.800,147.977 195.974,150.156 197.106 C 152.336 198.239,154.213 199.282,154.327 199.423 C 154.442 199.565,155.756 200.116,157.247 200.648 C 158.738 201.181,160.334 201.838,160.792 202.108 C 161.251 202.378,162.565 202.841,163.712 203.137 C 164.859 203.433,165.985 203.814,166.215 203.985 C 166.444 204.156,168.603 204.713,171.011 205.224 C 173.420 205.735,175.766 206.309,176.225 206.500 C 179.958 208.055,207.565 209.164,217.999 208.178 C 223.851 207.625,229.114 206.850,229.406 206.497 C 229.520 206.358,231.303 205.905,233.368 205.490 C 235.433 205.075,237.685 204.484,238.373 204.177 C 239.062 203.870,240.657 203.292,241.919 202.892 C 243.180 202.493,244.588 201.934,245.047 201.651 C 245.506 201.368,246.632 200.903,247.550 200.618 C 248.467 200.333,249.460 199.907,249.756 199.672 C 250.053 199.436,251.179 198.808,252.259 198.275 C 253.339 197.742,254.599 197.073,255.057 196.789 C 255.516 196.504,256.642 195.800,257.560 195.224 C 258.478 194.649,259.642 193.955,260.147 193.683 C 260.652 193.411,261.309 192.989,261.607 192.745 C 267.370 188.032,268.529 187.050,270.490 185.219 C 272.980 182.895,278.472 176.606,279.984 174.348 C 280.368 173.775,281.533 172.086,282.572 170.594 C 283.612 169.103,284.462 167.649,284.462 167.362 C 284.463 167.075,284.619 166.840,284.809 166.840 C 284.999 166.840,285.607 165.855,286.160 164.651 C 286.713 163.446,287.267 162.367,287.392 162.252 C 287.774 161.900,290.157 156.741,290.957 154.536 C 291.373 153.389,291.938 152.075,292.213 151.616 C 292.488 151.157,292.957 149.750,293.254 148.488 C 293.552 147.226,293.934 146.004,294.103 145.772 C 294.554 145.153,295.646 140.206,295.388 139.949 C 294.535 139.095,284.046 139.770,284.046 140.679 M240.360 174.048 C 240.917 174.897,240.910 175.154,240.301 176.446 L 239.619 177.894 235.138 178.012 C 232.568 178.080,230.657 177.965,230.657 177.742 C 230.657 177.096,233.320 174.969,234.851 174.394 C 235.641 174.097,236.663 173.696,237.122 173.503 C 238.598 172.884,239.722 173.073,240.360 174.048 M153.798 174.343 C 155.063 174.350,155.489 176.080,154.572 177.480 C 153.533 179.066,152.539 178.788,151.483 176.615 C 150.464 174.517,150.617 173.733,151.976 174.098 C 152.466 174.229,153.286 174.339,153.798 174.343 M228.182 176.448 C 228.625 176.686,228.989 177.301,228.989 177.816 C 228.989 179.016,227.816 180.703,227.232 180.342 C 226.986 180.190,226.107 180.046,225.280 180.022 C 222.703 179.948,224.342 176.625,227.243 176.043 C 227.316 176.029,227.738 176.211,228.182 176.448 M157.957 178.728 C 157.923 179.950,157.764 180.188,156.981 180.188 C 155.808 180.188,155.599 179.853,155.874 178.413 C 156.235 176.527,158.012 176.796,157.957 178.728 M161.310 179.751 C 162.397 181.129,161.774 181.712,159.955 181.021 C 158.876 180.610,158.741 180.294,159.169 179.179 C 159.538 178.216,160.250 178.406,161.310 179.751 M166.158 181.015 C 166.761 181.604,166.025 182.273,164.775 182.273 C 163.594 182.273,162.834 181.352,163.339 180.533 C 163.611 180.094,165.554 180.426,166.158 181.015 M202.213 182.649 L 203.985 183.553 204.704 182.290 C 206.088 179.857,209.031 181.136,208.344 183.872 C 207.756 186.217,201.643 186.351,199.901 184.058 C 199.460 183.478,199.236 183.458,198.376 183.918 C 196.554 184.893,195.743 183.402,197.266 181.879 C 198.188 180.957,199.209 181.116,202.213 182.649 " stroke="none" fill="#cc2029" fill-rule="evenodd"></path><path id="path7" d="" stroke="none" fill="#ff0000" fill-rule="evenodd"></path><path id="path8" d="M213.256 35.344 C 214.352 35.430,216.041 35.429,217.009 35.341 C 217.978 35.254,217.080 35.183,215.016 35.185 C 212.951 35.186,212.159 35.257,213.256 35.344 M140.215 71.690 C 139.888 71.897,140.492 71.963,141.679 71.849 C 144.677 71.561,145.697 72.530,146.024 75.978 L 146.275 78.624 146.339 76.193 C 146.437 72.432,143.015 69.915,140.215 71.690 M134.463 76.642 C 133.229 78.336,132.849 79.199,133.865 77.998 C 134.805 76.887,135.682 75.495,135.442 75.495 C 135.363 75.495,134.922 76.011,134.463 76.642 M131.595 81.335 C 131.240 82.023,131.042 82.586,131.157 82.586 C 131.272 82.586,131.657 82.023,132.013 81.335 C 132.368 80.647,132.566 80.083,132.451 80.083 C 132.336 80.083,131.951 80.647,131.595 81.335 M119.082 82.541 C 120.095 82.762,120.331 83.025,120.320 83.920 C 120.312 84.529,120.453 84.935,120.632 84.824 C 121.795 84.106,120.487 82.144,118.895 82.218 C 117.905 82.264,117.918 82.287,119.082 82.541 M115.328 83.226 C 114.285 83.729,114.251 83.787,115.120 83.574 C 116.302 83.285,117.630 82.608,116.997 82.618 C 116.767 82.621,116.017 82.895,115.328 83.226 M129.585 85.317 C 128.605 87.371,128.743 87.721,129.767 85.779 C 130.232 84.897,130.539 84.102,130.449 84.012 C 130.359 83.922,129.970 84.509,129.585 85.317 M132.199 86.189 C 131.969 86.795,131.858 87.367,131.953 87.462 C 132.047 87.556,132.324 87.061,132.568 86.361 C 133.111 84.805,132.783 84.653,132.199 86.189 M140.355 87.591 C 139.999 88.279,139.801 88.843,139.916 88.843 C 140.031 88.843,140.416 88.279,140.772 87.591 C 141.128 86.903,141.325 86.340,141.210 86.340 C 141.095 86.340,140.710 86.903,140.355 87.591 M141.606 89.677 C 141.250 90.365,141.053 90.928,141.167 90.928 C 141.282 90.928,141.667 90.365,142.023 89.677 C 142.379 88.989,142.576 88.425,142.461 88.425 C 142.347 88.425,141.962 88.989,141.606 89.677 M168.965 95.033 C 169.454 96.435,169.304 102.477,168.741 104.067 L 168.446 104.901 168.999 104.067 C 169.751 102.932,169.767 94.941,169.019 94.192 C 168.587 93.759,168.577 93.918,168.965 95.033 M156.595 95.620 L 155.370 96.976 156.726 95.751 C 157.989 94.609,158.273 94.265,157.951 94.265 C 157.879 94.265,157.269 94.875,156.595 95.620 M146.192 95.936 C 145.125 97.114,145.579 97.224,146.700 96.059 C 147.208 95.531,147.472 95.099,147.286 95.099 C 147.101 95.099,146.608 95.476,146.192 95.936 M152.580 95.725 C 152.791 96.184,153.068 96.840,153.195 97.185 C 153.396 97.725,153.432 97.722,153.460 97.160 C 153.478 96.802,153.201 96.145,152.845 95.700 C 152.206 94.903,152.202 94.904,152.580 95.725 M180.813 95.469 C 181.958 95.717,182.065 95.886,182.065 97.466 C 182.065 98.415,182.205 99.105,182.377 98.998 C 183.713 98.169,182.303 95.071,180.626 95.148 C 179.637 95.194,179.650 95.217,180.813 95.469 M184.984 97.393 C 184.984 98.611,185.125 99.521,185.297 99.414 C 185.469 99.308,185.610 98.398,185.610 97.393 C 185.610 96.388,185.469 95.478,185.297 95.372 C 185.125 95.266,184.984 96.175,184.984 97.393 M157.642 97.080 L 156.204 98.644 157.769 97.207 C 158.629 96.416,159.333 95.713,159.333 95.643 C 159.333 95.324,158.980 95.624,157.642 97.080 M104.412 98.644 C 104.414 100.250,104.489 100.856,104.580 99.991 C 104.670 99.125,104.668 97.811,104.576 97.071 C 104.484 96.331,104.410 97.039,104.412 98.644 M106.964 98.709 C 107.044 100.120,107.325 101.622,107.589 102.045 C 108.006 102.714,108.031 102.679,107.777 101.773 C 107.616 101.199,107.335 99.698,107.152 98.436 L 106.820 96.142 106.964 98.709 M176.616 97.706 L 175.391 99.062 176.747 97.836 C 178.010 96.695,178.294 96.350,177.972 96.350 C 177.900 96.350,177.290 96.960,176.616 97.706 M150.687 98.436 C 150.687 99.468,150.768 99.891,150.868 99.374 C 150.967 98.858,150.967 98.014,150.868 97.497 C 150.768 96.981,150.687 97.404,150.687 98.436 M162.322 97.997 C 162.078 98.697,161.967 99.270,162.076 99.270 C 162.357 99.270,163.144 97.103,162.938 96.897 C 162.843 96.802,162.566 97.298,162.322 97.997 M145.775 98.443 C 145.617 98.940,144.849 99.613,144.068 99.939 C 142.303 100.677,142.196 101.053,143.922 100.451 C 145.161 100.019,146.745 98.222,146.289 97.766 C 146.164 97.641,145.932 97.945,145.775 98.443 M130.970 100.730 C 129.957 101.762,129.222 102.607,129.336 102.607 C 129.451 102.607,130.374 101.762,131.387 100.730 C 132.400 99.698,133.135 98.853,133.020 98.853 C 132.906 98.853,131.983 99.698,130.970 100.730 M180.370 101.043 L 179.145 102.398 180.501 101.173 C 181.764 100.031,182.048 99.687,181.726 99.687 C 181.654 99.687,181.044 100.297,180.370 101.043 M173.582 102.416 C 173.315 103.001,173.104 103.706,173.113 103.982 C 173.122 104.258,173.407 103.845,173.745 103.065 C 174.458 101.423,174.307 100.824,173.582 102.416 M153.125 102.260 C 153.098 102.643,152.968 103.300,152.836 103.720 C 152.609 104.444,152.621 104.445,153.073 103.741 C 153.335 103.332,153.465 102.675,153.361 102.281 C 153.192 101.635,153.168 101.633,153.125 102.260 M141.375 103.290 C 141.145 103.896,141.034 104.468,141.129 104.563 C 141.223 104.658,141.500 104.162,141.744 103.462 C 142.287 101.906,141.959 101.754,141.375 103.290 M125.679 103.754 C 125.536 104.155,125.343 104.625,125.250 104.797 C 125.157 104.969,125.327 105.109,125.627 105.109 C 125.931 105.109,126.173 104.648,126.173 104.067 C 126.173 102.839,126.035 102.751,125.679 103.754 M110.184 105.631 C 111.046 106.491,111.993 107.189,112.288 107.182 C 112.584 107.175,112.450 106.963,111.992 106.710 C 111.533 106.458,110.586 105.759,109.888 105.159 C 109.181 104.551,109.312 104.760,110.184 105.631 M154.590 106.882 C 154.077 108.798,154.324 110.852,155.186 111.841 L 156.045 112.826 155.338 111.665 C 154.803 110.787,154.688 109.949,154.866 108.224 C 155.114 105.821,155.010 105.316,154.590 106.882 M174.453 106.605 C 173.707 106.931,173.097 107.293,173.097 107.410 C 173.097 107.628,176.023 106.494,176.378 106.139 C 176.732 105.784,175.829 106.003,174.453 106.605 M147.500 107.716 L 146.750 109.072 147.610 108.029 C 148.372 107.104,148.711 106.361,148.369 106.361 C 148.304 106.361,147.913 106.971,147.500 107.716 M157.917 107.438 C 157.054 109.687,157.946 111.397,159.937 111.311 C 161.200 111.257,161.199 111.254,159.750 110.998 C 158.318 110.745,158.290 110.703,158.316 108.759 C 158.345 106.600,158.298 106.446,157.917 107.438 M116.064 107.911 C 116.698 108.007,117.637 108.005,118.150 107.906 C 118.663 107.807,118.144 107.728,116.997 107.731 C 115.850 107.735,115.430 107.816,116.064 107.911 M150.156 108.863 C 149.666 109.552,149.359 110.115,149.474 110.115 C 149.589 110.115,150.083 109.552,150.574 108.863 C 151.064 108.175,151.371 107.612,151.256 107.612 C 151.141 107.612,150.646 108.175,150.156 108.863 M163.269 109.385 L 162.044 110.740 163.399 109.515 C 164.663 108.373,164.947 108.029,164.624 108.029 C 164.553 108.029,163.943 108.639,163.269 109.385 M110.299 109.049 C 110.744 109.406,111.401 109.683,111.759 109.665 C 112.320 109.636,112.324 109.600,111.783 109.400 C 111.439 109.272,110.782 108.995,110.323 108.784 C 109.502 108.406,109.502 108.411,110.299 109.049 M137.643 109.582 C 137.643 109.824,138.030 110.465,138.502 111.007 L 139.361 111.992 138.629 110.740 C 137.664 109.093,137.643 109.069,137.643 109.582 M177.126 110.169 C 176.704 110.415,175.822 110.537,175.167 110.441 C 174.511 110.344,174.070 110.419,174.186 110.607 C 174.532 111.167,176.630 110.995,177.501 110.337 C 178.446 109.622,178.232 109.526,177.126 110.169 M147.445 111.611 L 146.194 112.686 147.550 111.789 C 148.295 111.296,148.905 110.811,148.905 110.712 C 148.905 110.400,148.728 110.509,147.445 111.611 M102.757 113.002 C 102.036 113.442,101.300 114.051,101.121 114.356 C 100.928 114.685,101.123 114.634,101.597 114.234 C 102.038 113.861,102.961 113.258,103.650 112.895 C 104.338 112.531,104.713 112.227,104.484 112.218 C 104.254 112.210,103.477 112.563,102.757 113.002 M110.488 113.073 C 111.497 113.520,112.396 113.812,112.487 113.721 C 112.667 113.541,109.453 112.182,108.959 112.230 C 108.792 112.246,109.480 112.625,110.488 113.073 M105.839 114.163 C 106.356 114.262,107.200 114.262,107.716 114.163 C 108.233 114.064,107.810 113.982,106.778 113.982 C 105.746 113.982,105.323 114.064,105.839 114.163 M116.932 114.745 C 116.191 115.486,115.903 115.546,115.066 115.139 C 114.126 114.681,114.117 114.689,114.887 115.305 C 115.947 116.155,116.054 116.137,117.205 114.911 C 118.391 113.650,118.165 113.512,116.932 114.745 M119.056 115.641 L 117.831 116.997 119.187 115.772 C 120.450 114.630,120.734 114.286,120.412 114.286 C 120.340 114.286,119.730 114.896,119.056 115.641 M103.009 115.982 C 102.583 116.779,103.363 118.874,104.086 118.874 C 104.201 118.874,103.995 118.417,103.630 117.859 C 103.112 117.070,103.067 116.653,103.426 115.982 C 103.680 115.508,103.794 115.120,103.679 115.120 C 103.564 115.120,103.263 115.508,103.009 115.982 M118.053 117.518 C 118.060 117.690,118.576 118.191,119.200 118.632 L 120.334 119.432 119.322 118.319 C 118.260 117.149,118.031 117.005,118.053 117.518 M115.537 119.168 C 115.881 119.294,116.632 119.796,117.205 120.282 L 118.248 121.168 117.237 120.021 C 116.681 119.390,115.930 118.889,115.569 118.907 C 115.006 118.935,115.001 118.973,115.537 119.168 M160.308 119.711 C 161.799 119.902,163.254 120.397,164.062 120.988 C 165.029 121.695,165.214 121.748,164.755 121.183 C 163.839 120.056,161.697 119.283,159.659 119.346 C 158.009 119.396,158.059 119.424,160.308 119.711 M102.374 120.311 C 102.819 120.667,103.476 120.945,103.834 120.926 C 104.395 120.898,104.399 120.862,103.858 120.661 C 103.514 120.534,102.857 120.257,102.398 120.046 C 101.577 119.668,101.577 119.672,102.374 120.311 M155.579 120.144 C 155.122 120.453,155.291 120.492,156.204 120.288 C 157.738 119.945,158.071 119.706,157.004 119.714 C 156.564 119.718,155.923 119.911,155.579 120.144 M110.949 120.542 C 110.090 120.817,110.053 120.882,110.740 120.911 C 111.199 120.931,111.856 120.765,112.200 120.542 C 112.931 120.070,112.424 120.070,110.949 120.542 M120.942 123.566 C 121.965 124.656,122.856 125.547,122.923 125.547 C 123.236 125.547,122.905 125.173,121.064 123.445 L 119.082 121.585 120.942 123.566 M123.584 122.069 C 123.942 122.651,128.050 126.125,128.050 125.846 C 128.050 125.737,126.978 124.734,125.669 123.617 C 124.359 122.499,123.421 121.803,123.584 122.069 M149.300 124.192 L 147.862 125.756 149.426 124.319 C 150.882 122.981,151.182 122.628,150.864 122.628 C 150.794 122.628,150.090 123.332,149.300 124.192 M163.460 123.680 C 164.173 125.918,164.349 126.195,164.126 124.726 C 164.004 123.931,163.716 123.090,163.484 122.859 C 163.202 122.576,163.194 122.845,163.460 123.680 M130.702 127.955 C 131.032 128.489,133.472 130.295,133.472 130.005 C 133.472 129.902,132.783 129.292,131.941 128.650 C 131.099 128.007,130.542 127.695,130.702 127.955 M148.141 130.879 C 148.085 132.306,147.882 132.741,147.132 133.042 C 146.497 133.298,146.413 133.428,146.873 133.446 C 147.962 133.488,148.554 132.401,148.376 130.686 L 148.211 129.093 148.141 130.879 M145.673 131.178 C 145.678 132.096,145.764 132.422,145.863 131.903 C 145.963 131.385,145.959 130.634,145.855 130.235 C 145.750 129.836,145.669 130.261,145.673 131.178 M160.969 131.237 C 160.413 131.843,159.124 132.875,158.104 133.531 C 157.084 134.187,156.446 134.724,156.686 134.724 C 157.270 134.724,160.129 132.602,161.387 131.235 C 161.943 130.630,162.304 130.136,162.189 130.136 C 162.075 130.136,161.526 130.631,160.969 131.237 M133.055 133.196 C 133.055 133.478,136.052 135.203,136.231 135.023 C 136.315 134.940,135.634 134.451,134.719 133.937 C 133.804 133.423,133.055 133.089,133.055 133.196 M147.758 135.864 C 148.848 135.950,150.631 135.950,151.721 135.864 C 152.810 135.779,151.919 135.708,149.739 135.708 C 147.560 135.708,146.668 135.779,147.758 135.864 M155.787 136.615 C 154.744 137.118,154.710 137.176,155.579 136.963 C 156.761 136.674,158.089 135.997,157.456 136.006 C 157.226 136.010,156.475 136.284,155.787 136.615 M150.261 137.931 C 150.662 138.036,151.319 138.036,151.721 137.931 C 152.122 137.826,151.794 137.740,150.991 137.740 C 150.188 137.740,149.859 137.826,150.261 137.931 M195.748 170.489 C 198.457 170.562,202.774 170.561,205.342 170.488 C 207.909 170.415,205.693 170.356,200.417 170.356 C 195.141 170.356,193.040 170.416,195.748 170.489 " stroke="none" fill="#a33b66" fill-rule="evenodd"></path><path id="path9" d="M182.586 35.338 C 183.332 35.431,184.552 35.431,185.297 35.338 C 186.043 35.246,185.433 35.170,183.942 35.170 C 182.450 35.170,181.840 35.246,182.586 35.338 M174.974 35.882 C 174.215 36.081,174.871 36.122,176.642 35.984 C 178.248 35.859,179.640 35.688,179.736 35.605 C 180.055 35.326,176.242 35.548,174.974 35.882 M219.082 35.741 C 219.484 35.846,220.141 35.846,220.542 35.741 C 220.944 35.636,220.615 35.550,219.812 35.550 C 219.009 35.550,218.681 35.636,219.082 35.741 M139.379 72.379 C 136.185 73.766,131.241 81.398,127.634 90.511 C 126.098 94.391,124.261 99.346,123.303 102.190 C 121.376 107.913,119.862 108.814,114.156 107.629 C 102.778 105.265,105.635 86.143,117.519 85.122 C 120.179 84.893,120.334 84.823,120.334 83.837 C 120.334 81.125,113.563 83.318,109.533 87.336 C 100.153 96.689,104.680 110.730,116.849 110.025 C 118.651 109.921,120.123 109.945,120.121 110.079 C 120.112 110.652,117.644 114.562,116.828 115.296 C 115.948 116.089,115.923 116.088,114.742 115.215 C 108.810 110.829,100.521 111.817,100.521 116.909 C 100.521 120.826,106.069 122.198,112.790 119.942 L 116.088 118.835 117.585 120.235 C 132.341 134.033,138.995 137.805,148.488 137.754 C 159.709 137.694,169.305 128.569,165.021 122.031 C 160.912 115.761,145.985 123.109,145.985 131.402 C 145.985 134.241,147.765 133.646,148.126 130.686 C 149.124 122.507,164.110 117.204,164.110 125.029 C 164.110 130.792,157.338 135.975,149.808 135.975 C 141.823 135.975,135.482 132.497,121.376 120.380 C 119.885 119.099,118.525 118.049,118.352 118.045 C 117.553 118.031,118.196 116.531,119.757 114.767 C 120.702 113.699,121.963 111.837,122.559 110.629 C 123.466 108.790,124.108 108.152,126.507 106.702 C 142.273 97.176,153.945 66.053,139.379 72.379 M144.381 74.853 C 145.856 80.406,136.460 97.115,128.343 103.376 C 125.706 105.410,124.816 105.527,125.756 103.715 C 126.095 103.063,126.644 101.616,126.975 100.499 C 127.307 99.382,127.854 97.851,128.191 97.097 C 128.528 96.342,129.093 94.880,129.446 93.848 C 133.311 82.547,136.901 75.708,139.897 73.935 C 141.568 72.947,144.007 73.446,144.381 74.853 M348.325 78.983 C 342.473 85.268,365.528 112.659,384.818 122.340 C 400.010 129.965,401.606 120.279,387.967 103.233 C 375.290 87.389,353.123 73.829,348.325 78.983 M146.220 93.733 C 145.150 94.006,142.231 95.951,142.231 96.391 C 142.231 96.582,141.686 97.296,141.020 97.978 C 133.720 105.446,139.434 117.273,147.551 111.495 C 156.116 105.397,155.073 91.478,146.220 93.733 M159.333 93.723 C 158.221 94.125,155.579 96.914,155.579 97.686 C 155.579 98.769,155.975 98.626,157.737 96.905 C 160.254 94.447,160.150 96.007,157.442 101.346 C 153.586 108.947,153.913 113.034,158.378 113.034 C 164.603 113.034,169.343 106.899,169.343 98.840 C 169.343 94.927,168.757 93.431,167.225 93.431 C 165.574 93.431,165.094 95.144,166.366 96.498 C 169.829 100.184,164.869 111.366,159.771 111.366 C 157.035 111.366,157.018 109.277,159.710 103.710 C 163.408 96.062,163.618 95.292,162.324 94.121 C 161.563 93.433,160.519 93.294,159.333 93.723 M178.102 94.331 C 171.027 97.899,166.838 109.342,171.554 112.218 C 174.662 114.113,178.962 112.602,181.690 108.655 C 183.846 105.535,183.068 104.124,180.854 107.140 C 179.142 109.472,177.073 110.949,175.519 110.949 C 174.291 110.949,172.547 109.229,172.746 108.215 C 172.904 107.413,172.829 107.461,177.421 105.273 C 182.982 102.625,185.152 100.404,185.178 97.335 C 185.208 93.803,181.919 92.406,178.102 94.331 M150.448 96.211 C 153.093 100.246,145.912 113.214,142.016 111.439 C 139.184 110.148,140.828 101.293,144.158 99.902 C 145.487 99.347,146.280 97.999,145.768 97.170 C 144.552 95.202,149.167 94.256,150.448 96.211 M182.190 95.600 C 183.923 97.333,181.618 100.964,177.084 103.645 C 172.863 106.140,172.025 105.319,174.388 101.003 C 176.909 96.398,180.501 93.910,182.190 95.600 M110.323 114.893 C 115.208 117.272,115.035 117.997,109.281 119.256 C 105.576 120.067,101.854 118.140,102.998 116.003 C 104.235 113.691,106.997 113.272,110.323 114.893 M151.408 155.010 C 151.408 155.233,152.112 156.062,152.972 156.852 L 154.536 158.290 153.076 156.626 C 152.273 155.711,151.569 154.882,151.512 154.784 C 151.455 154.686,151.408 154.788,151.408 155.010 M245.255 161.001 C 244.453 161.441,243.946 161.808,244.129 161.818 C 244.571 161.841,246.924 160.618,246.924 160.365 C 246.924 160.092,246.899 160.101,245.255 161.001 M165.172 162.821 C 165.172 162.936,165.735 163.431,166.423 163.921 C 167.112 164.411,167.675 164.718,167.675 164.603 C 167.675 164.489,167.112 163.994,166.423 163.504 C 165.735 163.014,165.172 162.706,165.172 162.821 M171.220 166.006 C 171.679 166.203,172.336 166.365,172.680 166.365 C 173.074 166.365,172.997 166.232,172.471 166.006 C 172.013 165.809,171.356 165.648,171.011 165.648 C 170.617 165.648,170.694 165.780,171.220 166.006 M237.331 173.520 C 236.885 173.812,237.095 173.855,238.056 173.671 C 239.149 173.461,239.573 173.601,240.271 174.401 L 241.134 175.391 240.436 174.244 C 239.714 173.059,238.474 172.770,237.331 173.520 M154.323 174.969 C 154.625 175.333,154.730 176.065,154.577 176.741 C 154.358 177.707,154.390 177.771,154.776 177.133 C 155.304 176.262,154.955 174.348,154.268 174.348 C 153.957 174.348,153.975 174.549,154.323 174.969 M232.008 176.192 C 231.152 176.976,230.544 177.680,230.658 177.756 C 230.772 177.832,231.581 177.190,232.456 176.330 C 234.446 174.373,234.107 174.268,232.008 176.192 M239.833 176.642 C 239.456 177.635,239.262 177.689,235.777 177.770 L 232.117 177.855 235.598 177.996 C 239.211 178.143,239.992 177.885,240.375 176.420 C 240.681 175.250,240.304 175.404,239.833 176.642 M224.819 177.475 C 224.281 178.048,223.920 178.586,224.016 178.671 C 224.113 178.757,224.628 178.288,225.162 177.630 C 226.356 176.158,226.146 176.062,224.819 177.475 M228.472 177.488 C 228.580 178.055,228.354 179.034,227.969 179.666 L 227.271 180.813 228.130 179.829 C 229.002 178.828,229.281 177.081,228.632 176.680 C 228.435 176.558,228.363 176.922,228.472 177.488 M157.422 178.728 C 157.408 179.531,157.514 180.188,157.656 180.188 C 157.799 180.188,157.935 179.531,157.957 178.728 C 157.980 177.925,157.874 177.268,157.723 177.268 C 157.571 177.268,157.435 177.925,157.422 178.728 M223.770 179.764 C 223.887 179.952,224.633 180.087,225.430 180.064 C 226.226 180.042,226.795 179.941,226.694 179.840 C 226.349 179.494,223.559 179.422,223.770 179.764 M165.589 180.990 C 166.145 181.389,166.145 181.489,165.589 181.888 C 165.033 182.287,165.033 182.318,165.589 182.166 C 165.933 182.072,166.215 181.745,166.215 181.439 C 166.215 181.133,165.933 180.806,165.589 180.712 C 165.033 180.560,165.033 180.591,165.589 180.990 M207.522 181.367 C 207.678 181.672,207.957 182.423,208.142 183.036 C 208.412 183.930,208.486 183.981,208.515 183.291 C 208.534 182.819,208.255 182.068,207.894 181.623 C 207.533 181.178,207.365 181.063,207.522 181.367 M199.791 181.644 C 199.791 181.929,202.345 183.195,202.536 183.004 C 202.627 182.914,202.046 182.528,201.246 182.146 C 200.446 181.765,199.791 181.538,199.791 181.644 M196.503 183.225 C 196.434 184.281,197.352 184.493,198.776 183.751 C 199.538 183.354,199.733 183.112,199.295 183.110 C 198.907 183.109,198.473 183.295,198.332 183.525 C 197.917 184.195,196.949 184.005,196.742 183.212 C 196.563 182.528,196.548 182.528,196.503 183.225 M203.441 185.495 C 204.187 185.587,205.407 185.587,206.152 185.495 C 206.898 185.402,206.288 185.326,204.797 185.326 C 203.306 185.326,202.696 185.402,203.441 185.495 " stroke="none" fill="#e3528e" fill-rule="evenodd"></path></g></svg>