<svg id="svg" version="1.1" width="1000" height="330" xmlns="http://www.w3.org/2000/svg" xmlns:xlink="http://www.w3.org/1999/xlink" style="display: block;"><g id="svgg"><path id="path0" d="M169.871 16.592 C 166.115 17.893,163.115 19.794,160.669 22.423 C 154.083 29.498,154.966 31.665,162.600 27.166 C 166.227 25.029,169.511 23.524,173.880 21.999 C 178.832 20.269,178.760 20.332,177.821 18.587 C 176.156 15.495,174.348 15.041,169.871 16.592 M173.200 40.527 C 169.815 42.237,150.984 54.470,150.000 55.598 C 149.890 55.724,148.540 56.710,147.000 57.789 C 145.460 58.869,144.110 59.865,144.000 60.003 C 143.890 60.142,142.588 61.177,141.107 62.304 L 138.413 64.353 143.107 64.511 C 190.254 66.101,238.025 66.222,248.400 64.778 C 249.830 64.579,254.780 64.375,259.400 64.326 C 264.020 64.276,266.209 64.175,264.264 64.102 L 260.728 63.968 255.864 60.172 C 253.189 58.084,247.850 54.266,244.000 51.688 C 240.150 49.109,236.940 46.865,236.867 46.700 C 236.793 46.535,236.478 46.400,236.167 46.400 C 235.855 46.400,235.600 46.220,235.600 46.000 C 235.600 45.780,235.418 45.600,235.196 45.600 C 234.974 45.600,233.257 44.609,231.380 43.398 C 223.858 38.546,221.593 38.167,213.704 40.441 C 201.769 43.882,197.674 43.875,186.118 40.390 C 180.476 38.689,176.760 38.729,173.200 40.527 M382.000 61.600 C 381.670 61.813,380.466 61.991,379.324 61.994 C 378.182 61.997,377.136 62.180,377.000 62.400 C 376.864 62.620,375.951 62.800,374.971 62.800 C 373.991 62.800,372.877 62.967,372.495 63.171 C 372.113 63.375,371.485 63.639,371.100 63.758 C 370.481 63.950,370.400 64.568,370.400 69.107 C 370.400 74.495,370.608 75.200,372.200 75.200 C 372.662 75.200,373.211 75.364,373.420 75.565 C 373.850 75.977,376.839 76.339,382.372 76.648 C 386.267 76.865,387.284 76.627,388.975 75.100 C 389.402 74.715,389.891 74.400,390.062 74.400 C 391.431 74.400,393.600 71.334,393.600 69.400 C 393.600 67.203,390.877 63.600,389.217 63.600 C 388.988 63.600,388.800 63.420,388.800 63.200 C 388.800 62.980,388.440 62.800,388.000 62.800 C 387.560 62.800,387.200 62.620,387.200 62.400 C 387.200 62.180,386.851 62.000,386.424 62.000 C 385.997 62.000,385.536 61.820,385.400 61.600 C 385.085 61.090,382.788 61.090,382.000 61.600 M53.600 64.027 C 49.750 64.180,39.130 64.443,30.000 64.610 C 15.188 64.881,13.292 64.989,12.400 65.610 C 10.741 66.764,7.869 68.397,6.700 68.851 C 6.095 69.086,5.600 69.429,5.600 69.613 C 5.600 69.796,5.105 70.004,4.500 70.073 C 2.422 70.313,2.672 72.800,4.775 72.800 C 5.669 72.800,6.400 72.972,6.400 73.183 C 6.400 73.600,11.692 73.792,39.800 74.395 C 49.700 74.607,61.400 74.958,65.800 75.175 C 84.430 76.093,104.800 76.154,104.800 75.292 C 104.800 74.085,102.728 73.965,74.800 73.550 C 19.585 72.729,7.197 72.306,7.205 71.241 C 7.209 70.690,9.546 68.800,10.222 68.800 C 10.351 68.800,11.231 68.267,12.178 67.615 L 13.901 66.430 25.250 66.208 C 31.493 66.086,40.380 65.903,45.000 65.802 C 49.620 65.700,65.550 65.508,80.400 65.375 C 109.202 65.117,108.508 65.146,108.150 64.215 C 107.894 63.547,69.012 63.413,53.600 64.027 M334.400 63.970 C 334.400 64.187,340.516 64.393,349.233 64.470 C 366.642 64.623,365.200 64.158,365.200 69.614 C 365.200 74.996,369.371 74.430,329.045 74.521 C 309.990 74.565,294.400 74.713,294.400 74.851 C 294.400 75.946,296.333 76.002,330.644 75.902 L 365.800 75.800 365.910 69.700 L 366.021 63.600 350.210 63.600 C 340.801 63.600,334.400 63.750,334.400 63.970 M185.400 73.636 C 178.140 73.805,164.153 74.065,154.317 74.213 L 136.434 74.482 138.317 75.490 C 143.739 78.393,145.316 79.139,148.800 80.450 C 157.081 83.565,158.419 83.738,172.200 83.476 C 178.360 83.359,186.370 83.057,190.000 82.805 C 193.630 82.553,198.040 82.347,199.800 82.347 C 201.560 82.347,205.970 82.553,209.600 82.805 C 229.036 84.154,242.712 83.727,248.200 81.599 C 252.854 79.794,255.824 78.492,258.000 77.302 C 259.430 76.521,261.230 75.555,262.000 75.157 L 263.400 74.432 257.000 74.416 C 253.480 74.407,248.710 74.231,246.400 74.026 C 240.619 73.511,201.479 73.261,185.400 73.636 M155.246 95.570 C 153.256 96.806,161.595 100.184,167.600 100.573 C 169.690 100.709,174.460 101.099,178.200 101.440 C 194.792 102.954,201.703 102.678,207.400 100.275 C 211.061 98.730,211.245 97.710,208.108 96.354 C 206.029 95.455,207.096 95.459,179.200 96.247 C 171.284 96.471,163.792 96.180,157.200 95.393 C 156.430 95.301,155.551 95.380,155.246 95.570 " stroke="none" fill="#ffffff" fill-rule="evenodd"></path><path id="path1" d="" stroke="none" fill="#550000" fill-rule="evenodd"></path><path id="path2" d="M261.000 64.828 C 255.280 65.026,247.900 65.358,244.600 65.566 L 238.600 65.945 246.000 65.758 C 250.070 65.655,258.980 65.401,265.800 65.194 C 283.185 64.665,315.854 64.697,341.900 65.268 L 364.000 65.752 364.000 69.430 L 364.000 73.108 351.458 73.402 C 344.560 73.563,317.965 73.629,292.358 73.548 C 266.751 73.467,248.410 73.512,251.600 73.650 C 259.147 73.975,354.059 73.974,359.800 73.649 L 364.200 73.400 364.200 69.400 L 364.200 65.400 356.800 65.141 C 343.867 64.689,271.818 64.453,261.000 64.828 M103.800 65.592 C 96.100 65.707,106.720 65.800,127.400 65.800 C 148.080 65.800,162.030 65.690,158.400 65.555 C 150.780 65.273,124.114 65.291,103.800 65.592 M43.400 66.400 L 30.200 66.616 43.200 66.651 C 50.350 66.670,63.220 66.566,71.800 66.420 L 87.400 66.155 72.000 66.169 C 63.530 66.177,50.660 66.281,43.400 66.400 M175.200 66.447 C 187.440 66.768,221.792 66.770,231.000 66.450 C 234.960 66.313,221.910 66.200,202.000 66.200 C 182.090 66.200,170.030 66.311,175.200 66.447 M13.500 67.429 C 12.895 67.757,12.400 68.116,12.400 68.227 C 12.400 68.338,12.805 68.197,13.300 67.914 C 13.907 67.568,16.742 67.329,22.000 67.183 L 29.800 66.967 22.200 66.899 C 16.125 66.846,14.379 66.952,13.500 67.429 M9.851 69.639 C 8.658 70.388,8.046 71.006,8.272 71.232 C 8.675 71.635,33.452 72.424,42.800 72.331 C 46.507 72.294,44.342 72.164,36.800 71.969 C 10.154 71.281,6.937 71.075,9.500 70.220 C 10.203 69.986,12.375 68.419,12.000 68.416 C 11.890 68.416,10.923 68.966,9.851 69.639 M48.833 72.553 C 48.925 72.637,58.720 72.794,70.600 72.902 C 83.672 73.022,88.726 72.981,83.400 72.800 C 73.993 72.481,48.556 72.298,48.833 72.553 M177.800 72.779 C 175.380 72.901,189.240 73.000,208.600 73.000 C 227.960 73.000,241.820 72.888,239.400 72.751 C 234.044 72.448,183.944 72.471,177.800 72.779 M123.528 73.732 C 138.162 73.950,153.110 73.958,159.728 73.751 C 168.882 73.466,164.197 73.396,134.800 73.380 L 98.600 73.361 123.528 73.732 " stroke="none" fill="#676666" fill-rule="evenodd"></path><path id="path3" d="" stroke="none" fill="#990000" fill-rule="evenodd"></path><path id="path4" d="M167.997 4.300 C 167.993 4.675,166.042 5.600,165.254 5.600 C 164.931 5.600,164.780 5.713,164.918 5.851 C 165.149 6.082,162.718 7.541,161.800 7.721 C 161.580 7.765,161.109 8.115,160.753 8.500 C 160.397 8.885,159.802 9.200,159.429 9.200 C 159.057 9.200,158.864 9.380,159.000 9.600 C 159.136 9.820,158.866 10.000,158.400 10.000 C 157.934 10.000,157.664 10.180,157.800 10.400 C 157.936 10.620,157.767 10.800,157.424 10.800 C 157.081 10.800,156.800 10.968,156.800 11.173 C 156.800 11.378,156.410 11.670,155.934 11.821 C 155.458 11.972,154.636 12.528,154.108 13.056 C 153.580 13.583,152.952 13.894,152.712 13.746 C 152.451 13.585,152.391 13.662,152.562 13.938 C 152.719 14.192,152.648 14.400,152.405 14.400 C 152.162 14.400,151.514 14.850,150.964 15.400 C 150.414 15.950,149.837 16.405,149.682 16.411 C 149.527 16.418,148.597 17.138,147.614 18.011 C 146.632 18.885,145.677 19.600,145.491 19.600 C 145.305 19.600,145.264 19.780,145.400 20.000 C 145.536 20.220,145.401 20.400,145.100 20.400 C 144.432 20.400,140.376 24.243,140.701 24.568 C 140.829 24.696,140.720 24.800,140.460 24.800 C 140.200 24.800,139.187 25.655,138.209 26.700 C 137.231 27.745,136.289 28.733,136.115 28.896 C 133.460 31.386,132.280 32.613,131.335 33.868 C 130.711 34.696,129.255 36.333,128.100 37.505 C 126.945 38.676,125.996 39.852,125.991 40.118 C 125.987 40.383,125.341 41.140,124.556 41.800 C 123.771 42.460,122.239 44.305,121.152 45.900 C 120.065 47.495,119.042 48.800,118.879 48.800 C 118.716 48.800,118.245 49.425,117.834 50.189 C 117.423 50.952,116.932 51.482,116.743 51.365 C 116.554 51.248,116.400 51.351,116.400 51.593 C 116.400 52.011,116.086 52.468,114.871 53.814 C 114.581 54.136,114.453 54.400,114.588 54.400 C 114.722 54.400,114.375 54.893,113.816 55.496 C 113.257 56.099,112.800 56.819,112.800 57.096 C 112.800 57.373,112.656 57.600,112.480 57.600 C 112.305 57.600,111.720 58.315,111.180 59.189 C 110.641 60.063,110.085 60.783,109.943 60.789 C 109.802 60.795,109.574 61.250,109.436 61.800 C 109.298 62.350,109.008 62.800,108.792 62.800 C 108.577 62.800,108.400 62.980,108.400 63.200 C 108.400 63.914,138.194 63.730,138.790 63.012 C 139.329 62.363,150.689 53.776,152.600 52.574 C 153.260 52.158,153.890 51.712,154.000 51.583 C 154.303 51.225,164.319 44.713,166.600 43.390 C 167.700 42.752,168.660 42.088,168.733 41.915 C 168.807 41.742,169.028 41.600,169.226 41.600 C 169.423 41.600,170.533 41.005,171.692 40.277 C 175.415 37.940,179.686 37.399,184.000 38.717 C 190.750 40.779,192.230 41.170,195.200 41.675 C 200.593 42.593,203.811 42.255,211.400 39.975 C 219.033 37.682,222.169 37.415,225.369 38.787 C 228.197 39.999,245.301 51.056,251.554 55.714 C 255.851 58.916,255.659 58.767,259.082 61.568 L 261.565 63.600 276.582 63.600 C 284.842 63.600,291.600 63.515,291.600 63.411 C 291.600 63.307,290.430 61.689,289.000 59.815 C 287.570 57.941,286.400 56.226,286.400 56.004 C 286.400 55.782,286.209 55.600,285.976 55.600 C 285.743 55.600,285.644 55.453,285.755 55.273 C 285.866 55.093,285.607 54.693,285.179 54.385 C 284.750 54.076,284.400 53.608,284.400 53.344 C 284.400 53.081,283.779 52.279,283.019 51.563 C 282.260 50.847,281.732 50.111,281.845 49.928 C 281.958 49.744,281.769 49.486,281.425 49.354 C 281.081 49.222,280.800 48.907,280.800 48.653 C 280.800 48.400,280.440 47.968,280.000 47.693 C 279.560 47.418,279.200 47.007,279.200 46.778 C 279.200 46.550,278.795 45.940,278.300 45.422 C 277.805 44.904,277.007 43.968,276.528 43.340 C 276.048 42.713,275.014 41.480,274.230 40.600 C 272.262 38.390,272.000 38.064,272.000 37.824 C 272.000 37.709,270.875 36.425,269.500 34.971 C 264.395 29.574,264.000 29.129,264.000 28.768 C 264.000 28.566,263.719 28.400,263.376 28.400 C 263.033 28.400,262.830 28.265,262.924 28.100 C 263.018 27.935,262.668 27.389,262.147 26.886 C 261.626 26.383,261.200 26.064,261.200 26.176 C 261.200 26.289,260.030 25.199,258.600 23.755 C 257.170 22.311,256.000 21.227,256.000 21.345 C 256.000 21.463,255.397 20.939,254.660 20.180 C 253.922 19.421,253.102 18.800,252.836 18.800 C 252.570 18.800,252.481 18.592,252.638 18.338 C 252.804 18.069,252.749 17.984,252.505 18.135 C 252.276 18.277,251.369 17.675,250.491 16.797 C 249.613 15.918,248.693 15.200,248.447 15.200 C 248.201 15.200,248.000 15.020,248.000 14.800 C 248.000 14.580,247.749 14.400,247.443 14.400 C 247.136 14.400,246.781 14.127,246.653 13.794 C 246.525 13.461,246.011 13.003,245.510 12.777 C 243.734 11.974,242.808 11.325,243.069 11.064 C 243.214 10.919,242.933 10.800,242.443 10.800 C 241.953 10.800,241.647 10.648,241.761 10.462 C 241.962 10.139,240.590 9.232,237.600 7.712 C 236.830 7.320,236.110 6.895,236.000 6.766 C 235.890 6.637,234.754 5.962,233.475 5.266 L 231.151 4.000 224.175 4.000 C 219.792 4.000,217.200 4.149,217.200 4.400 C 217.200 4.620,216.840 4.800,216.400 4.800 C 215.960 4.800,215.599 4.935,215.597 5.100 C 215.593 5.465,213.651 6.400,212.897 6.400 C 212.598 6.400,212.464 6.580,212.600 6.800 C 212.736 7.020,212.550 7.200,212.187 7.200 C 211.823 7.200,211.072 7.558,210.516 7.995 C 209.961 8.432,209.347 8.691,209.153 8.571 C 208.959 8.451,208.800 8.543,208.800 8.776 C 208.800 9.009,208.575 9.204,208.300 9.209 C 208.025 9.214,207.350 9.570,206.800 10.000 C 206.250 10.430,205.500 10.786,205.133 10.791 C 204.767 10.796,204.396 11.011,204.310 11.269 C 204.098 11.905,196.136 11.896,195.499 11.259 C 195.246 11.006,194.626 10.800,194.120 10.800 C 193.614 10.800,193.200 10.620,193.200 10.400 C 193.200 10.180,192.930 10.000,192.600 10.000 C 192.270 10.000,192.000 9.820,192.000 9.600 C 192.000 9.380,191.706 9.200,191.347 9.200 C 190.988 9.200,190.403 8.866,190.047 8.457 C 189.691 8.049,188.950 7.575,188.400 7.405 C 187.850 7.234,186.922 6.759,186.338 6.348 C 185.754 5.936,185.124 5.596,184.938 5.591 C 184.752 5.586,184.150 5.230,183.600 4.800 C 182.569 3.993,168.005 3.527,167.997 4.300 M177.822 16.934 C 178.946 18.247,179.213 18.870,179.119 19.959 L 179.000 21.330 174.200 22.998 C 168.894 24.840,166.983 25.667,164.600 27.148 C 156.750 32.027,152.981 31.656,156.355 26.336 C 162.454 16.718,173.497 11.882,177.822 16.934 M105.623 75.670 C 104.564 76.061,104.549 77.534,105.584 79.466 C 106.015 80.270,106.275 81.079,106.160 81.264 C 106.046 81.449,106.100 81.600,106.280 81.600 C 106.460 81.600,107.055 82.585,107.603 83.789 C 108.151 84.993,108.735 85.983,108.900 85.989 C 109.065 85.995,109.200 86.172,109.200 86.382 C 109.200 86.916,112.011 91.137,113.100 92.237 C 113.375 92.515,113.600 92.878,113.600 93.043 C 113.600 93.209,114.410 94.098,115.400 95.020 C 116.390 95.942,117.200 96.910,117.200 97.172 C 117.200 97.433,117.380 97.536,117.600 97.400 C 117.820 97.264,118.000 97.401,118.000 97.704 C 118.000 98.008,118.630 98.758,119.400 99.372 C 120.170 99.986,120.800 100.739,120.800 101.044 C 120.800 101.350,120.935 101.558,121.100 101.506 C 121.408 101.409,122.812 102.631,126.609 106.300 C 127.805 107.455,128.957 108.400,129.171 108.400 C 129.385 108.400,130.424 109.226,131.480 110.235 C 132.536 111.244,133.760 112.239,134.200 112.445 C 134.987 112.814,137.335 114.395,138.283 115.193 C 138.549 115.417,139.044 115.600,139.383 115.600 C 139.722 115.600,140.000 115.810,140.000 116.067 C 140.000 116.323,140.115 116.419,140.255 116.278 C 140.395 116.138,141.008 116.378,141.617 116.812 C 142.225 117.245,143.021 117.600,143.385 117.600 C 143.749 117.600,143.936 117.780,143.800 118.000 C 143.664 118.220,143.878 118.404,144.276 118.409 C 144.674 118.414,145.450 118.770,146.000 119.200 C 146.550 119.630,147.405 119.986,147.900 119.991 C 148.395 119.996,148.800 120.210,148.800 120.467 C 148.800 120.723,148.918 120.815,149.063 120.670 C 149.208 120.525,149.523 120.553,149.763 120.731 C 150.003 120.910,151.010 121.300,152.000 121.598 C 152.990 121.895,153.971 122.288,154.180 122.470 C 154.389 122.651,155.064 122.800,155.680 122.800 C 156.296 122.800,156.800 122.960,156.800 123.155 C 156.800 123.488,157.305 123.638,160.500 124.249 C 161.215 124.386,162.096 124.756,162.457 125.072 C 163.251 125.766,193.238 125.806,194.548 125.115 C 195.077 124.836,195.217 124.849,195.025 125.160 C 194.627 125.803,204.076 125.764,204.720 125.120 C 205.075 124.765,205.200 124.761,205.200 125.104 C 205.200 125.448,209.343 125.570,221.219 125.576 C 231.265 125.582,237.150 125.443,237.003 125.204 C 236.873 124.995,237.270 124.719,237.884 124.592 C 239.970 124.159,242.198 123.523,242.895 123.161 C 243.277 122.962,243.941 122.800,244.371 122.800 C 244.801 122.800,245.264 122.620,245.400 122.400 C 245.536 122.180,246.087 122.000,246.624 122.000 C 247.161 122.000,247.600 121.820,247.600 121.600 C 247.600 121.380,248.140 121.200,248.800 121.200 C 249.460 121.200,250.000 121.028,250.000 120.818 C 250.000 120.608,250.630 120.318,251.400 120.174 C 252.170 120.029,252.800 119.751,252.800 119.555 C 252.800 119.360,253.160 119.200,253.600 119.200 C 254.040 119.200,254.400 119.020,254.400 118.800 C 254.400 118.580,254.670 118.400,255.000 118.400 C 255.330 118.400,255.600 118.220,255.600 118.000 C 255.600 117.780,255.960 117.600,256.400 117.600 C 256.840 117.600,257.200 117.420,257.200 117.200 C 257.200 116.980,257.547 116.800,257.971 116.800 C 258.396 116.800,259.013 116.530,259.343 116.200 C 259.673 115.870,260.164 115.600,260.434 115.600 C 260.704 115.600,261.526 115.141,262.262 114.580 C 262.998 114.018,263.600 113.686,263.600 113.841 C 263.600 113.996,263.915 113.763,264.300 113.324 C 264.685 112.885,265.200 112.452,265.444 112.363 C 266.000 112.160,268.617 110.099,269.843 108.900 C 270.349 108.405,270.952 108.000,271.182 108.000 C 271.412 108.000,271.600 107.814,271.600 107.587 C 271.600 107.361,271.902 107.059,272.271 106.917 C 272.983 106.644,284.400 95.442,284.400 95.016 C 284.400 94.879,284.778 94.369,285.241 93.883 C 285.703 93.397,286.558 92.370,287.141 91.600 C 287.723 90.831,288.515 89.852,288.900 89.425 C 289.285 88.999,289.824 88.144,290.097 87.525 C 290.371 86.906,290.731 86.400,290.898 86.400 C 291.064 86.400,291.172 86.265,291.138 86.100 C 291.103 85.935,291.272 85.350,291.512 84.800 C 291.753 84.250,291.967 83.980,291.989 84.200 C 292.042 84.730,293.713 81.221,293.886 80.217 C 293.960 79.787,294.235 79.302,294.499 79.139 C 294.762 78.977,294.849 78.715,294.692 78.559 C 294.535 78.402,294.592 78.051,294.818 77.779 C 296.074 76.265,295.553 76.207,279.000 76.000 L 263.000 75.800 261.247 76.748 C 246.420 84.765,240.445 85.677,213.400 84.047 L 199.800 83.228 186.000 84.052 C 165.033 85.305,156.206 84.789,149.600 81.926 C 149.050 81.688,148.240 81.362,147.800 81.202 C 145.384 80.322,141.534 78.439,139.647 77.214 L 137.495 75.817 124.447 75.705 C 117.271 75.644,110.286 75.542,108.923 75.479 C 107.561 75.417,106.076 75.502,105.623 75.670 M176.400 94.925 C 183.330 94.917,192.838 94.773,197.530 94.605 C 203.686 94.384,206.185 94.425,206.510 94.750 C 206.757 94.997,207.301 95.200,207.718 95.200 C 208.817 95.200,210.658 96.387,211.237 97.469 C 211.965 98.829,210.628 100.068,206.856 101.529 C 200.969 103.809,196.436 104.050,182.200 102.841 C 159.753 100.936,162.087 101.261,158.578 99.545 C 154.709 97.652,153.132 95.836,154.300 94.621 C 154.465 94.450,156.670 94.451,159.200 94.625 C 161.730 94.798,169.470 94.933,176.400 94.925 " stroke="none" fill="#dc0025" fill-rule="evenodd"></path><path id="path5" d="M174.210 14.816 C 174.340 15.027,174.700 15.200,175.010 15.200 C 175.319 15.200,176.253 15.777,177.086 16.482 L 178.600 17.764 177.444 16.502 C 176.376 15.335,173.654 13.917,174.210 14.816 M169.400 15.600 C 169.108 16.073,169.499 16.073,170.600 15.600 C 171.371 15.269,171.369 15.255,170.524 15.228 C 170.042 15.213,169.536 15.380,169.400 15.600 M163.800 18.400 C 163.140 18.837,162.780 19.192,163.000 19.188 C 163.401 19.182,165.576 17.623,165.200 17.612 C 165.090 17.608,164.460 17.963,163.800 18.400 M160.738 20.900 C 159.989 21.615,159.121 22.560,158.809 23.000 C 158.497 23.440,159.178 22.907,160.321 21.815 C 161.464 20.723,162.400 19.778,162.400 19.715 C 162.400 19.413,161.992 19.704,160.738 20.900 M177.800 21.285 C 176.703 21.994,176.686 22.037,177.600 21.785 C 178.656 21.495,179.465 20.917,179.173 20.661 C 179.078 20.578,178.460 20.858,177.800 21.285 M166.200 25.827 C 165.540 26.170,164.820 26.635,164.600 26.861 C 164.380 27.087,164.965 26.877,165.900 26.395 C 166.835 25.913,167.600 25.447,167.600 25.360 C 167.600 25.120,167.500 25.153,166.200 25.827 M155.200 28.976 C 155.200 29.513,155.347 30.044,155.528 30.155 C 155.708 30.267,155.777 29.827,155.682 29.179 C 155.472 27.749,155.200 27.635,155.200 28.976 M157.600 30.227 L 156.200 30.793 157.600 30.554 C 158.370 30.423,159.171 30.155,159.380 29.958 C 159.916 29.453,159.274 29.550,157.600 30.227 M175.600 38.395 C 175.191 38.655,175.510 38.699,176.600 38.532 C 178.577 38.229,178.914 37.998,177.367 38.006 C 176.725 38.009,175.930 38.184,175.600 38.395 M179.233 38.144 C 179.325 38.223,180.300 38.401,181.400 38.541 C 182.765 38.714,183.210 38.670,182.800 38.403 C 182.259 38.050,178.836 37.801,179.233 38.144 M217.000 38.403 C 216.485 38.626,216.913 38.667,218.200 38.518 C 219.300 38.391,220.275 38.223,220.367 38.144 C 220.714 37.845,217.764 38.072,217.000 38.403 M221.233 38.144 C 221.325 38.224,222.210 38.406,223.200 38.550 C 224.458 38.733,224.819 38.691,224.400 38.412 C 223.860 38.053,220.832 37.797,221.233 38.144 M214.000 39.200 C 213.205 39.714,214.204 39.714,215.400 39.200 L 216.200 38.856 215.400 38.834 C 214.960 38.822,214.330 38.987,214.000 39.200 M227.200 40.053 C 228.410 40.739,229.670 41.517,230.000 41.784 C 230.949 42.550,233.844 44.175,233.400 43.693 C 232.762 43.000,225.923 38.800,225.439 38.804 C 225.198 38.806,225.990 39.368,227.200 40.053 M187.200 39.941 C 187.530 40.134,188.340 40.409,189.000 40.552 C 189.768 40.718,189.984 40.684,189.600 40.459 C 189.270 40.266,188.460 39.991,187.800 39.848 C 187.032 39.682,186.816 39.716,187.200 39.941 M211.400 40.000 C 210.896 40.217,210.822 40.344,211.200 40.344 C 211.530 40.344,212.160 40.189,212.600 40.000 C 213.104 39.783,213.178 39.656,212.800 39.656 C 212.470 39.656,211.840 39.811,211.400 40.000 M191.200 41.200 C 192.568 41.638,193.619 41.638,192.600 41.200 C 192.160 41.011,191.440 40.862,191.000 40.868 C 190.357 40.877,190.396 40.943,191.200 41.200 M207.200 41.218 C 206.762 41.515,206.924 41.552,207.800 41.356 C 209.271 41.027,209.590 40.798,208.567 40.806 C 208.145 40.809,207.530 40.995,207.200 41.218 M195.000 42.000 C 196.797 42.457,198.464 42.457,197.400 42.000 C 196.960 41.811,195.970 41.665,195.200 41.675 L 193.800 41.695 195.000 42.000 M202.400 42.000 L 201.400 42.320 202.400 42.313 C 202.950 42.309,203.940 42.168,204.600 42.000 L 205.800 41.695 204.600 41.687 C 203.940 41.683,202.950 41.824,202.400 42.000 M164.500 44.700 C 160.943 46.960,158.403 48.736,159.617 48.115 C 160.893 47.463,168.400 42.716,168.400 42.561 C 168.400 42.249,168.088 42.420,164.500 44.700 M234.600 44.607 C 235.040 44.966,235.760 45.435,236.200 45.651 L 237.000 46.044 236.200 45.393 C 235.760 45.034,235.040 44.565,234.600 44.349 L 233.800 43.956 234.600 44.607 M156.309 49.914 C 155.049 50.731,154.014 51.542,154.009 51.715 C 154.004 51.888,155.080 51.296,156.400 50.400 C 157.720 49.504,158.800 48.687,158.800 48.585 C 158.800 48.303,158.760 48.325,156.309 49.914 M241.400 49.007 C 241.840 49.366,242.560 49.835,243.000 50.051 L 243.800 50.444 243.000 49.793 C 242.560 49.434,241.840 48.965,241.400 48.749 L 240.600 48.356 241.400 49.007 M244.000 50.546 C 244.000 50.652,245.215 51.587,246.700 52.625 C 248.185 53.663,250.030 54.982,250.800 55.556 C 251.570 56.129,251.982 56.319,251.716 55.977 C 251.183 55.293,244.000 50.237,244.000 50.546 M151.065 53.622 C 149.819 54.514,148.800 55.339,148.800 55.456 C 148.800 55.643,152.382 53.199,153.380 52.331 C 154.402 51.441,153.081 52.178,151.065 53.622 M146.100 57.225 C 144.945 58.111,144.000 58.924,144.000 59.031 C 144.000 59.138,144.990 58.478,146.200 57.565 C 148.110 56.123,148.691 55.581,148.300 55.607 C 148.245 55.610,147.255 56.338,146.100 57.225 M253.784 57.689 C 254.453 58.288,255.159 58.783,255.354 58.789 C 255.549 58.795,255.189 58.408,254.554 57.928 C 252.781 56.589,252.438 56.483,253.784 57.689 M140.900 61.224 C 139.525 62.322,138.400 63.317,138.400 63.437 C 138.400 63.687,143.151 60.003,143.449 59.521 C 143.799 58.954,143.449 59.188,140.900 61.224 M109.200 63.912 C 109.530 64.070,116.100 64.105,123.800 63.990 L 137.800 63.780 123.200 63.702 C 115.170 63.659,108.870 63.754,109.200 63.912 M281.718 63.898 C 283.433 63.973,286.133 63.972,287.718 63.897 C 289.303 63.821,287.900 63.759,284.600 63.760 C 281.300 63.761,280.003 63.822,281.718 63.898 M105.110 75.524 C 104.695 76.036,104.697 76.095,105.118 75.842 C 105.403 75.671,110.533 75.536,116.518 75.542 C 122.503 75.548,127.220 75.488,127.000 75.409 C 125.428 74.840,105.579 74.945,105.110 75.524 M133.900 75.882 C 134.395 75.978,135.205 75.978,135.700 75.882 C 136.195 75.787,135.790 75.709,134.800 75.709 C 133.810 75.709,133.405 75.787,133.900 75.882 M259.713 77.085 C 258.345 77.896,257.286 78.620,257.360 78.693 C 257.434 78.767,258.733 78.104,260.247 77.221 C 261.761 76.337,262.820 75.613,262.600 75.613 C 262.380 75.612,261.081 76.274,259.713 77.085 M271.926 75.900 C 276.176 75.964,283.016 75.964,287.126 75.899 C 291.237 75.834,287.760 75.781,279.400 75.781 C 271.040 75.782,267.677 75.835,271.926 75.900 M140.800 77.956 C 141.730 78.701,143.200 79.323,143.200 78.971 C 143.200 78.886,142.435 78.442,141.500 77.986 C 139.856 77.182,139.833 77.181,140.800 77.956 M144.800 80.000 C 145.570 80.422,146.380 80.766,146.600 80.766 C 146.820 80.766,146.370 80.422,145.600 80.000 C 144.830 79.578,144.020 79.234,143.800 79.234 C 143.580 79.234,144.030 79.578,144.800 80.000 M254.000 80.000 C 253.230 80.422,252.780 80.766,253.000 80.766 C 253.220 80.766,254.030 80.422,254.800 80.000 C 255.570 79.578,256.020 79.234,255.800 79.234 C 255.580 79.234,254.770 79.578,254.000 80.000 M248.800 82.012 C 247.150 82.643,246.084 83.168,246.431 83.179 C 247.004 83.198,251.969 81.341,252.367 80.960 C 252.739 80.602,251.646 80.925,248.800 82.012 M151.659 82.576 C 152.048 82.990,156.059 83.994,157.200 83.963 C 157.750 83.949,157.068 83.691,155.684 83.390 C 154.300 83.090,152.770 82.721,152.284 82.572 C 151.798 82.423,151.516 82.424,151.659 82.576 M199.300 83.076 C 199.685 83.176,200.315 83.176,200.700 83.076 C 201.085 82.975,200.770 82.893,200.000 82.893 C 199.230 82.893,198.915 82.975,199.300 83.076 M192.300 83.493 C 193.235 83.577,194.765 83.577,195.700 83.493 C 196.635 83.409,195.870 83.340,194.000 83.340 C 192.130 83.340,191.365 83.409,192.300 83.493 M203.900 83.493 C 204.835 83.577,206.365 83.577,207.300 83.493 C 208.235 83.409,207.470 83.340,205.600 83.340 C 203.730 83.340,202.965 83.409,203.900 83.493 M180.600 84.013 C 179.060 84.161,180.500 84.196,183.800 84.092 C 187.100 83.988,189.875 83.835,189.967 83.752 C 190.215 83.526,183.814 83.704,180.600 84.013 M209.633 83.752 C 209.725 83.835,212.590 83.997,216.000 84.111 C 220.493 84.262,221.264 84.231,218.800 83.999 C 215.167 83.657,209.357 83.501,209.633 83.752 M240.200 84.000 C 238.839 84.244,238.779 84.292,239.800 84.320 C 240.460 84.339,241.720 84.205,242.600 84.023 C 244.693 83.590,242.602 83.570,240.200 84.000 M159.105 84.283 C 159.602 84.379,160.322 84.375,160.705 84.275 C 161.087 84.175,160.680 84.096,159.800 84.101 C 158.920 84.105,158.607 84.187,159.105 84.283 M165.700 84.698 C 167.625 84.771,170.775 84.771,172.700 84.698 C 174.625 84.625,173.050 84.565,169.200 84.565 C 165.350 84.565,163.775 84.625,165.700 84.698 M226.880 84.698 C 228.794 84.771,232.034 84.771,234.080 84.698 C 236.126 84.626,234.560 84.566,230.600 84.565 C 226.640 84.565,224.966 84.624,226.880 84.698 M159.000 94.818 C 160.100 94.990,161.720 95.125,162.600 95.119 L 164.200 95.108 162.600 94.777 C 161.720 94.595,160.100 94.460,159.000 94.476 L 157.000 94.507 159.000 94.818 M190.400 94.774 C 189.410 94.914,192.677 95.022,197.659 95.014 C 202.642 95.006,206.636 94.865,206.535 94.700 C 206.319 94.345,193.004 94.407,190.400 94.774 M171.500 95.499 C 173.975 95.569,178.025 95.569,180.500 95.499 C 182.975 95.428,180.950 95.371,176.000 95.371 C 171.050 95.371,169.025 95.428,171.500 95.499 M208.600 95.761 C 211.694 97.127,211.816 98.660,208.962 100.293 C 207.255 101.270,207.379 101.541,209.121 100.641 C 211.071 99.632,211.805 98.530,211.234 97.464 C 210.703 96.471,208.825 95.190,207.938 95.216 C 207.642 95.224,207.940 95.470,208.600 95.761 M160.200 100.400 C 160.336 100.620,160.842 100.787,161.324 100.772 C 162.169 100.745,162.171 100.731,161.400 100.400 C 160.299 99.927,159.908 99.927,160.200 100.400 M164.833 101.350 C 164.925 101.433,167.070 101.595,169.600 101.711 C 172.772 101.857,173.455 101.824,171.800 101.605 C 169.260 101.268,164.552 101.096,164.833 101.350 M177.400 102.418 C 178.500 102.590,180.300 102.719,181.400 102.706 L 183.400 102.682 181.000 102.385 C 177.525 101.953,174.592 101.981,177.400 102.418 M203.600 102.400 C 202.776 102.664,202.741 102.726,203.400 102.754 C 203.840 102.773,204.470 102.613,204.800 102.400 C 205.501 101.947,205.014 101.947,203.600 102.400 M187.200 103.270 C 189.545 103.623,200.400 103.624,201.279 103.272 C 201.653 103.122,198.233 103.000,193.679 103.000 C 189.126 103.000,186.210 103.122,187.200 103.270 " stroke="none" fill="#e33d51" fill-rule="evenodd"></path><path id="path6" d="M283.200 64.000 C 279.020 64.128,287.072 64.265,301.700 64.314 C 318.758 64.371,327.600 64.263,327.600 64.000 C 327.600 63.576,296.991 63.576,283.200 64.000 M251.600 64.799 C 249.950 64.939,253.640 64.972,259.800 64.872 C 265.960 64.771,271.075 64.624,271.167 64.544 C 271.440 64.307,254.845 64.523,251.600 64.799 M332.433 64.548 C 332.525 64.630,339.620 64.786,348.200 64.895 C 357.126 65.009,361.404 64.966,358.200 64.796 C 352.358 64.485,332.143 64.290,332.433 64.548 M130.925 65.099 C 134.624 65.166,140.564 65.165,144.125 65.099 C 147.686 65.033,144.660 64.979,137.400 64.979 C 130.140 64.979,127.226 65.033,130.925 65.099 M75.800 65.618 C 70.740 65.751,78.030 65.779,92.000 65.680 C 105.970 65.582,117.475 65.433,117.567 65.351 C 117.806 65.134,86.683 65.334,75.800 65.618 M159.600 65.618 C 163.230 65.767,168.720 65.881,171.800 65.872 L 177.400 65.854 170.800 65.582 C 167.170 65.433,161.680 65.319,158.600 65.328 L 153.000 65.346 159.600 65.618 M234.000 65.600 L 229.400 65.840 233.600 65.866 C 235.910 65.880,239.960 65.767,242.600 65.616 L 247.400 65.340 243.000 65.350 C 240.580 65.355,236.530 65.468,234.000 65.600 M364.200 69.337 L 364.200 73.400 358.600 73.712 C 355.520 73.883,329.240 73.973,300.200 73.912 C 271.160 73.850,250.190 73.939,253.600 74.109 C 265.196 74.686,363.381 74.280,364.139 73.651 C 364.835 73.073,365.153 65.866,364.500 65.461 C 364.335 65.359,364.200 67.103,364.200 69.337 M22.200 66.384 C 14.717 66.586,14.103 66.660,12.700 67.533 C 10.635 68.817,10.803 69.066,12.904 67.835 L 14.608 66.837 35.604 66.483 C 52.933 66.191,54.295 66.133,43.400 66.148 C 36.140 66.159,26.600 66.265,22.200 66.384 M194.728 66.300 C 200.078 66.363,208.718 66.363,213.928 66.300 C 219.137 66.236,214.760 66.185,204.200 66.185 C 193.640 66.185,189.377 66.237,194.728 66.300 M8.905 69.725 C 6.430 71.398,7.098 72.011,11.300 71.920 L 15.000 71.839 11.801 71.701 C 7.946 71.534,7.380 71.139,9.341 69.982 C 10.144 69.508,10.800 69.049,10.800 68.960 C 10.800 68.621,10.151 68.883,8.905 69.725 M24.200 72.407 C 28.272 72.711,49.071 72.920,48.767 72.654 C 48.675 72.573,42.210 72.418,34.400 72.308 C 26.590 72.198,22.000 72.242,24.200 72.407 M59.800 73.172 C 66.121 73.449,99.045 73.704,98.785 73.473 C 98.683 73.383,88.700 73.227,76.600 73.126 C 64.500 73.026,56.940 73.047,59.800 73.172 M178.000 73.214 C 174.150 73.347,178.740 73.375,188.200 73.276 C 197.660 73.177,205.475 73.030,205.567 72.948 C 205.803 72.738,186.345 72.925,178.000 73.214 M212.833 72.947 C 212.925 73.028,220.470 73.182,229.600 73.289 C 239.639 73.407,243.196 73.369,238.600 73.194 C 230.347 72.879,212.564 72.709,212.833 72.947 M107.400 74.000 C 116.324 74.319,157.231 74.371,163.600 74.072 C 166.790 73.923,154.190 73.800,135.600 73.800 C 117.010 73.800,104.320 73.890,107.400 74.000 " stroke="none" fill="#b4aeaf" fill-rule="evenodd"></path><path id="path7" d="M177.083 16.874 C 178.643 18.719,179.015 19.841,178.355 20.719 C 177.875 21.358,177.889 21.359,178.581 20.726 C 179.523 19.866,178.944 18.245,177.089 16.547 L 175.836 15.400 177.083 16.874 M166.300 17.227 C 165.475 17.663,164.800 18.108,164.800 18.218 C 164.800 18.396,167.959 16.919,168.367 16.551 C 168.827 16.134,167.625 16.528,166.300 17.227 M161.578 20.700 L 160.200 22.200 161.700 20.822 C 162.525 20.063,163.200 19.388,163.200 19.322 C 163.200 19.016,162.862 19.304,161.578 20.700 M173.400 22.586 C 171.855 23.293,172.574 23.303,174.400 22.600 C 175.170 22.303,175.530 22.055,175.200 22.048 C 174.870 22.042,174.060 22.283,173.400 22.586 M161.800 28.024 C 158.720 29.744,158.520 30.168,161.513 28.632 C 163.260 27.736,165.263 26.402,164.800 26.443 C 164.690 26.453,163.340 27.165,161.800 28.024 M155.701 29.600 C 155.790 29.930,156.299 30.233,156.831 30.274 C 157.595 30.332,157.631 30.301,157.000 30.128 C 156.560 30.007,156.051 29.703,155.870 29.454 C 155.651 29.154,155.594 29.204,155.701 29.600 M183.200 39.200 C 184.568 39.638,185.619 39.638,184.600 39.200 C 184.160 39.011,183.440 38.862,183.000 38.868 C 182.357 38.877,182.396 38.943,183.200 39.200 M170.500 41.246 C 169.137 42.119,168.695 42.706,169.900 42.043 C 170.818 41.539,172.256 40.427,172.000 40.419 C 171.890 40.416,171.215 40.788,170.500 41.246 M188.600 40.800 C 189.040 40.989,189.670 41.144,190.000 41.144 C 190.378 41.144,190.304 41.017,189.800 40.800 C 189.360 40.611,188.730 40.456,188.400 40.456 C 188.022 40.456,188.096 40.583,188.600 40.800 M209.800 40.800 C 209.296 41.017,209.222 41.144,209.600 41.144 C 209.930 41.144,210.560 40.989,211.000 40.800 C 211.504 40.583,211.578 40.456,211.200 40.456 C 210.870 40.456,210.240 40.611,209.800 40.800 M198.291 42.689 C 199.001 42.777,200.261 42.779,201.091 42.692 C 201.921 42.605,201.340 42.533,199.800 42.531 C 198.260 42.529,197.581 42.600,198.291 42.689 M236.774 46.324 C 237.309 46.759,238.299 47.419,238.974 47.791 L 240.200 48.467 239.226 47.676 C 238.691 47.241,237.701 46.581,237.026 46.209 L 235.800 45.533 236.774 46.324 M245.200 51.762 C 245.200 51.872,246.010 52.519,247.000 53.200 C 247.990 53.881,248.800 54.348,248.800 54.238 C 248.800 54.128,247.990 53.481,247.000 52.800 C 246.010 52.119,245.200 51.652,245.200 51.762 M151.400 53.835 L 150.200 54.866 151.500 54.006 C 152.215 53.533,152.800 53.068,152.800 52.973 C 152.800 52.673,152.631 52.778,151.400 53.835 M148.200 56.032 C 145.827 57.826,145.508 58.332,147.733 56.772 C 149.414 55.594,150.329 54.775,149.924 54.811 C 149.856 54.817,149.080 55.367,148.200 56.032 M250.897 55.833 C 251.027 56.044,251.991 56.832,253.037 57.584 C 254.084 58.335,254.833 58.778,254.703 58.567 C 254.573 58.356,253.609 57.568,252.563 56.816 C 251.516 56.065,250.767 55.622,250.897 55.833 M255.200 58.928 C 255.200 59.028,256.505 60.158,258.100 61.438 C 259.695 62.719,260.775 63.486,260.500 63.142 C 259.913 62.409,255.200 58.662,255.200 58.928 M142.000 60.854 L 140.200 62.485 141.894 61.213 C 143.368 60.107,144.314 59.174,143.924 59.212 C 143.856 59.219,142.990 59.958,142.000 60.854 M139.383 62.828 C 139.237 63.063,138.732 63.412,138.259 63.603 C 137.673 63.839,137.603 63.957,138.038 63.975 C 138.389 63.989,139.002 63.640,139.400 63.200 C 139.798 62.760,140.017 62.400,139.886 62.400 C 139.754 62.400,139.528 62.593,139.383 62.828 M265.500 63.899 C 267.975 63.969,272.025 63.969,274.500 63.899 C 276.975 63.828,274.950 63.771,270.000 63.771 C 265.050 63.771,263.025 63.828,265.500 63.899 M115.924 64.299 C 119.073 64.367,124.113 64.367,127.124 64.299 C 130.136 64.231,127.560 64.176,121.400 64.176 C 115.240 64.176,112.776 64.232,115.924 64.299 M105.300 74.649 C 105.025 74.769,104.800 75.054,104.800 75.282 C 104.800 75.566,104.962 75.564,105.309 75.275 C 105.664 74.981,109.766 74.962,118.809 75.213 C 133.505 75.621,137.807 75.672,137.567 75.436 C 137.475 75.346,132.540 75.163,126.600 75.030 C 120.660 74.897,113.550 74.708,110.800 74.610 C 108.050 74.511,105.575 74.529,105.300 74.649 M270.073 75.499 C 274.404 75.564,281.604 75.564,286.073 75.500 C 290.543 75.435,287.000 75.382,278.200 75.382 C 269.400 75.382,265.743 75.435,270.073 75.499 M256.800 78.400 C 256.030 78.822,255.544 79.174,255.720 79.183 C 256.144 79.205,258.400 78.032,258.400 77.790 C 258.400 77.528,258.377 77.537,256.800 78.400 M145.600 79.967 C 146.370 80.369,147.450 80.814,148.000 80.955 C 148.550 81.097,148.032 80.760,146.849 80.206 C 144.368 79.046,143.530 78.885,145.600 79.967 M252.800 80.200 C 252.250 80.514,251.980 80.772,252.200 80.772 C 252.420 80.772,253.050 80.514,253.600 80.200 C 254.150 79.886,254.420 79.628,254.200 79.628 C 253.980 79.628,253.350 79.886,252.800 80.200 M151.800 82.400 C 152.240 82.589,152.870 82.744,153.200 82.744 C 153.578 82.744,153.504 82.617,153.000 82.400 C 152.560 82.211,151.930 82.056,151.600 82.056 C 151.222 82.056,151.296 82.183,151.800 82.400 M193.712 83.095 C 194.764 83.177,196.384 83.176,197.312 83.092 C 198.240 83.008,197.380 82.941,195.400 82.942 C 193.420 82.943,192.660 83.012,193.712 83.095 M202.700 83.093 C 203.635 83.177,205.165 83.177,206.100 83.093 C 207.035 83.009,206.270 82.940,204.400 82.940 C 202.530 82.940,201.765 83.009,202.700 83.093 M243.600 83.200 C 242.808 83.454,242.767 83.520,243.400 83.520 C 243.840 83.520,244.650 83.376,245.200 83.200 C 245.992 82.946,246.033 82.880,245.400 82.880 C 244.960 82.880,244.150 83.024,243.600 83.200 M187.100 83.489 C 187.815 83.578,188.985 83.578,189.700 83.489 C 190.415 83.401,189.830 83.328,188.400 83.328 C 186.970 83.328,186.385 83.401,187.100 83.489 M209.900 83.489 C 210.615 83.578,211.785 83.578,212.500 83.489 C 213.215 83.401,212.630 83.328,211.200 83.328 C 209.770 83.328,209.185 83.401,209.900 83.489 M158.705 83.883 C 159.202 83.979,159.922 83.975,160.305 83.875 C 160.687 83.775,160.280 83.696,159.400 83.701 C 158.520 83.705,158.207 83.787,158.705 83.883 M179.500 83.889 C 180.215 83.978,181.385 83.978,182.100 83.889 C 182.815 83.801,182.230 83.728,180.800 83.728 C 179.370 83.728,178.785 83.801,179.500 83.889 M217.491 83.889 C 218.201 83.977,219.461 83.979,220.291 83.892 C 221.121 83.805,220.540 83.733,219.000 83.731 C 217.460 83.729,216.781 83.800,217.491 83.889 M239.700 83.876 C 240.085 83.976,240.715 83.976,241.100 83.876 C 241.485 83.775,241.170 83.693,240.400 83.693 C 239.630 83.693,239.315 83.775,239.700 83.876 M165.322 84.299 C 167.699 84.370,171.479 84.369,173.722 84.298 C 175.965 84.227,174.020 84.169,169.400 84.169 C 164.780 84.170,162.945 84.228,165.322 84.299 M226.100 84.298 C 228.465 84.369,232.335 84.369,234.700 84.298 C 237.065 84.228,235.130 84.170,230.400 84.170 C 225.670 84.170,223.735 84.228,226.100 84.298 M154.625 95.032 C 154.070 95.588,154.083 96.400,154.647 96.400 C 154.757 96.400,154.749 96.240,154.628 96.045 C 154.331 95.565,155.181 94.917,156.400 94.693 L 157.400 94.509 156.329 94.454 C 155.739 94.425,154.973 94.685,154.625 95.032 M158.305 95.083 C 158.802 95.179,159.522 95.175,159.905 95.075 C 160.287 94.975,159.880 94.896,159.000 94.901 C 158.120 94.905,157.807 94.987,158.305 95.083 M194.691 95.089 C 195.401 95.177,196.661 95.179,197.491 95.092 C 198.321 95.005,197.740 94.933,196.200 94.931 C 194.660 94.929,193.981 95.000,194.691 95.089 M204.100 95.076 C 204.485 95.176,205.115 95.176,205.500 95.076 C 205.885 94.975,205.570 94.893,204.800 94.893 C 204.030 94.893,203.715 94.975,204.100 95.076 M163.091 95.489 C 163.801 95.577,165.061 95.579,165.891 95.492 C 166.721 95.405,166.140 95.333,164.600 95.331 C 163.060 95.329,162.381 95.400,163.091 95.489 M186.512 95.495 C 187.564 95.577,189.184 95.576,190.112 95.492 C 191.040 95.408,190.180 95.341,188.200 95.342 C 186.220 95.343,185.460 95.412,186.512 95.495 M172.080 95.898 C 173.994 95.971,177.234 95.971,179.280 95.898 C 181.326 95.826,179.760 95.766,175.800 95.765 C 171.840 95.765,170.166 95.824,172.080 95.898 M209.113 96.404 C 210.995 97.551,211.160 98.336,209.767 99.523 C 208.867 100.290,208.823 100.382,209.578 99.925 C 211.631 98.680,210.715 95.594,208.294 95.601 C 208.022 95.602,208.391 95.963,209.113 96.404 M156.000 97.800 C 156.745 98.350,157.455 98.799,157.578 98.798 C 157.955 98.795,155.424 96.830,155.022 96.814 C 154.815 96.806,155.255 97.250,156.000 97.800 M164.900 101.087 C 165.505 101.178,166.495 101.178,167.100 101.087 C 167.705 100.995,167.210 100.920,166.000 100.920 C 164.790 100.920,164.295 100.995,164.900 101.087 M170.905 101.487 C 171.514 101.579,172.414 101.577,172.905 101.482 C 173.397 101.387,172.900 101.311,171.800 101.314 C 170.700 101.317,170.297 101.395,170.905 101.487 M204.400 101.800 C 203.630 102.097,203.270 102.345,203.600 102.352 C 203.930 102.358,204.740 102.117,205.400 101.814 C 206.945 101.107,206.226 101.097,204.400 101.800 M174.900 101.887 C 175.505 101.978,176.495 101.978,177.100 101.887 C 177.705 101.795,177.210 101.720,176.000 101.720 C 174.790 101.720,174.295 101.795,174.900 101.887 M180.105 102.287 C 180.714 102.379,181.614 102.377,182.105 102.282 C 182.597 102.187,182.100 102.111,181.000 102.114 C 179.900 102.117,179.497 102.195,180.105 102.287 M184.100 102.687 C 184.705 102.778,185.695 102.778,186.300 102.687 C 186.905 102.595,186.410 102.520,185.200 102.520 C 183.990 102.520,183.495 102.595,184.100 102.687 M189.907 103.090 C 190.626 103.179,191.706 103.177,192.307 103.086 C 192.908 102.995,192.320 102.922,191.000 102.924 C 189.680 102.926,189.188 103.001,189.907 103.090 M198.305 103.083 C 198.802 103.179,199.522 103.175,199.905 103.075 C 200.287 102.975,199.880 102.896,199.000 102.901 C 198.120 102.905,197.807 102.987,198.305 103.083 " stroke="none" fill="#ec798d" fill-rule="evenodd"></path><path id="path8" d="M168.737 16.550 C 164.021 18.490,155.152 26.000,157.577 26.000 C 157.810 26.000,158.000 25.827,158.000 25.615 C 158.000 23.710,165.267 18.187,169.871 16.592 C 171.372 16.072,172.240 15.641,171.800 15.633 C 171.360 15.625,169.982 16.038,168.737 16.550 M176.553 16.980 C 179.378 19.805,179.260 20.031,173.931 21.989 C 168.013 24.163,167.464 24.397,167.707 24.641 C 167.827 24.761,168.437 24.600,169.063 24.282 C 169.688 23.965,171.910 23.122,174.000 22.407 C 178.331 20.927,179.001 20.463,178.606 19.218 C 178.282 18.197,176.085 15.600,175.545 15.600 C 175.341 15.600,175.794 16.221,176.553 16.980 M163.200 26.816 C 157.898 29.932,154.877 30.374,156.572 27.786 C 156.953 27.205,157.173 26.639,157.061 26.528 C 156.697 26.164,155.599 28.733,155.846 29.375 C 156.199 30.296,157.503 30.141,160.200 28.856 C 163.007 27.519,167.580 24.798,167.000 24.810 C 166.780 24.815,165.070 25.718,163.200 26.816 M175.800 38.960 C 173.947 39.546,171.455 40.788,171.680 41.013 C 171.765 41.098,172.726 40.730,173.817 40.196 C 175.396 39.423,176.494 39.213,179.200 39.165 C 181.638 39.122,182.260 39.019,181.400 38.800 C 179.589 38.339,177.581 38.396,175.800 38.960 M215.800 39.383 C 212.134 40.343,209.862 41.129,210.621 41.175 C 210.852 41.189,212.562 40.754,214.421 40.208 C 216.645 39.556,218.893 39.200,221.000 39.169 C 223.224 39.135,223.895 39.023,223.200 38.800 C 221.487 38.251,219.530 38.405,215.800 39.383 M185.600 40.198 C 187.250 40.741,188.780 41.175,189.000 41.163 C 189.630 41.129,185.475 39.717,183.962 39.451 C 183.213 39.320,183.950 39.656,185.600 40.198 M226.600 40.498 C 227.920 41.236,230.324 42.697,231.942 43.744 C 233.560 44.792,234.958 45.575,235.048 45.485 C 235.290 45.243,226.367 39.762,225.200 39.436 C 224.650 39.282,225.280 39.760,226.600 40.498 M190.200 41.600 C 190.640 41.789,191.360 41.944,191.800 41.944 L 192.600 41.944 191.800 41.600 C 191.360 41.411,190.640 41.256,190.200 41.256 L 189.400 41.256 190.200 41.600 M208.000 41.600 L 207.000 41.920 208.000 41.954 C 208.550 41.973,209.270 41.813,209.600 41.600 C 210.364 41.106,209.542 41.106,208.000 41.600 M168.193 43.056 C 166.152 44.409,165.432 45.123,167.026 44.214 C 168.430 43.414,170.301 42.022,169.993 42.009 C 169.879 42.004,169.069 42.475,168.193 43.056 M193.400 42.400 C 193.840 42.589,194.920 42.736,195.800 42.726 L 197.400 42.708 195.800 42.377 C 194.920 42.195,193.840 42.048,193.400 42.051 L 192.600 42.056 193.400 42.400 M203.800 42.400 L 202.200 42.686 203.800 42.715 C 204.680 42.731,205.760 42.589,206.200 42.400 L 207.000 42.056 206.200 42.085 C 205.760 42.101,204.680 42.242,203.800 42.400 M159.295 48.764 C 150.947 54.257,138.800 63.226,138.800 63.897 C 138.800 64.008,139.025 63.928,139.300 63.721 C 140.661 62.693,143.824 60.173,144.000 59.976 C 144.110 59.853,145.460 58.866,147.000 57.784 C 148.540 56.702,150.016 55.610,150.281 55.356 C 150.545 55.103,153.965 52.778,157.881 50.190 C 161.796 47.602,165.171 45.331,165.380 45.142 C 166.493 44.140,164.710 45.201,159.295 48.764 M236.836 46.703 C 236.856 46.866,240.051 49.108,243.936 51.684 C 247.821 54.260,253.198 58.085,255.885 60.184 C 260.788 64.015,263.136 65.515,259.137 62.262 C 252.307 56.707,236.732 45.840,236.836 46.703 M108.108 64.368 L 108.180 65.325 120.390 65.063 C 127.105 64.919,136.005 64.801,140.167 64.801 C 144.328 64.800,147.613 64.679,147.465 64.532 C 147.318 64.384,138.524 64.296,127.925 64.336 C 112.886 64.393,108.585 64.299,108.344 63.910 C 108.153 63.600,108.063 63.774,108.108 64.368 M327.600 64.000 C 327.600 64.235,329.000 64.400,331.000 64.400 C 333.000 64.400,334.400 64.235,334.400 64.000 C 334.400 63.765,333.000 63.600,331.000 63.600 C 329.000 63.600,327.600 63.765,327.600 64.000 M269.715 64.296 C 270.988 64.376,272.968 64.375,274.115 64.294 C 275.262 64.214,274.220 64.149,271.800 64.150 C 269.380 64.151,268.442 64.216,269.715 64.296 M251.107 64.690 C 251.826 64.779,252.906 64.777,253.507 64.686 C 254.108 64.595,253.520 64.522,252.200 64.524 C 250.880 64.526,250.388 64.601,251.107 64.690 M355.913 64.695 C 357.076 64.776,358.876 64.776,359.913 64.693 C 360.951 64.611,360.000 64.545,357.800 64.546 C 355.600 64.547,354.751 64.614,355.913 64.695 M151.305 65.087 C 151.914 65.179,152.814 65.177,153.305 65.082 C 153.797 64.987,153.300 64.911,152.200 64.914 C 151.100 64.917,150.697 64.995,151.305 65.087 M76.300 65.497 C 77.895 65.573,80.505 65.573,82.100 65.497 C 83.695 65.421,82.390 65.359,79.200 65.359 C 76.010 65.359,74.705 65.421,76.300 65.497 M167.312 65.495 C 168.364 65.577,169.984 65.576,170.912 65.492 C 171.840 65.408,170.980 65.341,169.000 65.342 C 167.020 65.343,166.260 65.412,167.312 65.495 M234.700 65.489 C 235.415 65.578,236.585 65.578,237.300 65.489 C 238.015 65.401,237.430 65.328,236.000 65.328 C 234.570 65.328,233.985 65.401,234.700 65.489 M53.278 65.898 C 55.631 65.969,59.591 65.969,62.078 65.899 C 64.565 65.829,62.640 65.771,57.800 65.770 C 52.960 65.770,50.925 65.828,53.278 65.898 M180.300 65.898 C 182.115 65.972,185.085 65.972,186.900 65.898 C 188.715 65.823,187.230 65.763,183.600 65.763 C 179.970 65.763,178.485 65.823,180.300 65.898 M221.100 65.897 C 222.695 65.973,225.305 65.973,226.900 65.897 C 228.495 65.821,227.190 65.759,224.000 65.759 C 220.810 65.759,219.505 65.821,221.100 65.897 M24.313 66.295 C 25.476 66.376,27.276 66.376,28.313 66.293 C 29.351 66.211,28.400 66.145,26.200 66.146 C 24.000 66.147,23.151 66.214,24.313 66.295 M364.882 69.451 C 364.783 73.863,364.728 73.922,360.581 74.101 L 357.400 74.239 360.638 74.320 C 365.017 74.428,365.279 74.136,365.099 69.350 L 364.965 65.800 364.882 69.451 M17.800 72.421 C 19.780 72.583,22.750 72.705,24.400 72.692 C 27.303 72.669,27.270 72.659,23.400 72.381 C 21.200 72.223,18.230 72.101,16.800 72.110 C 14.436 72.125,14.527 72.153,17.800 72.421 M51.000 73.201 C 55.240 73.524,65.048 73.703,64.767 73.451 C 64.675 73.369,60.640 73.210,55.800 73.098 C 50.204 72.969,48.456 73.007,51.000 73.201 M207.300 73.094 C 208.345 73.176,210.055 73.176,211.100 73.094 C 212.145 73.012,211.290 72.944,209.200 72.944 C 207.110 72.944,206.255 73.012,207.300 73.094 M188.700 73.498 C 190.515 73.572,193.485 73.572,195.300 73.498 C 197.115 73.423,195.630 73.363,192.000 73.363 C 188.370 73.363,186.885 73.423,188.700 73.498 M223.718 73.498 C 225.433 73.573,228.133 73.572,229.718 73.497 C 231.303 73.421,229.900 73.359,226.600 73.360 C 223.300 73.361,222.003 73.422,223.718 73.498 M98.000 73.997 C 104.249 74.362,112.829 74.666,127.170 75.029 L 137.340 75.286 140.753 77.243 C 143.895 79.044,144.800 79.448,144.800 79.050 C 144.800 78.967,143.495 78.214,141.900 77.377 C 135.899 74.225,137.689 74.499,121.400 74.241 C 113.260 74.112,103.450 73.934,99.600 73.844 C 92.725 73.684,92.696 73.686,98.000 73.997 M170.105 73.887 C 170.714 73.979,171.614 73.977,172.105 73.882 C 172.597 73.787,172.100 73.711,171.000 73.714 C 169.900 73.717,169.497 73.795,170.105 73.887 M244.905 73.887 C 245.514 73.979,246.414 73.977,246.905 73.882 C 247.397 73.787,246.900 73.711,245.800 73.714 C 244.700 73.717,244.297 73.795,244.905 73.887 M161.500 74.295 C 162.655 74.376,164.545 74.376,165.700 74.295 C 166.855 74.214,165.910 74.148,163.600 74.148 C 161.290 74.148,160.345 74.214,161.500 74.295 M250.500 74.294 C 251.545 74.376,253.255 74.376,254.300 74.294 C 255.345 74.212,254.490 74.144,252.400 74.144 C 250.310 74.144,249.455 74.212,250.500 74.294 M261.600 75.402 C 260.069 76.236,254.216 79.125,250.800 80.733 L 249.800 81.204 250.800 80.953 C 251.886 80.681,258.939 77.328,261.194 76.013 C 262.804 75.074,292.762 74.723,294.445 75.624 C 295.171 76.013,295.194 75.980,294.722 75.224 C 294.217 74.415,293.929 74.400,278.804 74.411 L 263.400 74.423 261.600 75.402 M315.125 74.699 C 318.493 74.766,323.893 74.766,327.125 74.699 C 330.356 74.632,327.600 74.577,321.000 74.577 C 314.400 74.577,311.756 74.632,315.125 74.699 M145.200 79.312 C 145.200 79.612,151.603 82.130,151.818 81.915 C 151.921 81.813,150.789 81.256,149.302 80.679 C 145.365 79.150,145.200 79.095,145.200 79.312 M153.000 82.400 C 154.196 82.914,155.195 82.914,154.400 82.400 C 154.070 82.187,153.440 82.022,153.000 82.034 L 152.200 82.056 153.000 82.400 M196.200 82.413 C 194.114 82.596,195.024 82.677,199.767 82.729 C 203.268 82.768,206.058 82.735,205.967 82.655 C 205.612 82.348,198.861 82.180,196.200 82.413 M245.600 82.400 C 244.805 82.914,245.804 82.914,247.000 82.400 L 247.800 82.056 247.000 82.034 C 246.560 82.022,245.930 82.187,245.600 82.400 M156.200 83.200 C 156.860 83.368,157.850 83.505,158.400 83.505 C 159.292 83.505,159.270 83.472,158.200 83.200 C 157.540 83.032,156.550 82.895,156.000 82.895 C 155.108 82.895,155.130 82.928,156.200 83.200 M183.000 83.200 L 180.600 83.466 182.800 83.490 C 184.010 83.504,186.620 83.383,188.600 83.221 L 192.200 82.927 188.800 82.931 C 186.930 82.933,184.320 83.054,183.000 83.200 M211.000 83.221 C 212.980 83.383,215.590 83.507,216.800 83.497 L 219.000 83.478 216.400 83.186 C 214.970 83.025,212.360 82.901,210.600 82.910 L 207.400 82.927 211.000 83.221 M241.400 83.200 L 240.200 83.505 241.400 83.513 C 242.060 83.517,243.050 83.376,243.600 83.200 L 244.600 82.880 243.600 82.887 C 243.050 82.891,242.060 83.032,241.400 83.200 M165.100 83.899 C 167.575 83.969,171.625 83.969,174.100 83.899 C 176.575 83.828,174.550 83.771,169.600 83.771 C 164.650 83.771,162.625 83.828,165.100 83.899 M225.900 83.899 C 228.375 83.969,232.425 83.969,234.900 83.899 C 237.375 83.828,235.350 83.771,230.400 83.771 C 225.450 83.771,223.425 83.828,225.900 83.899 M154.876 95.308 C 154.296 96.007,157.567 99.367,158.205 98.729 C 158.306 98.628,157.552 97.956,156.530 97.236 C 154.194 95.589,154.626 95.278,158.915 95.516 C 163.112 95.749,162.836 95.393,158.553 95.050 C 156.122 94.855,155.198 94.920,154.876 95.308 M195.200 95.200 C 192.221 95.394,193.043 95.453,199.000 95.473 C 203.958 95.491,205.974 95.389,204.800 95.180 C 202.815 94.826,200.887 94.831,195.200 95.200 M164.800 96.060 C 167.584 96.390,184.082 96.383,187.800 96.050 C 189.340 95.913,184.300 95.800,176.600 95.800 C 168.900 95.800,163.590 95.917,164.800 96.060 M208.307 96.415 C 210.016 97.174,210.967 98.411,210.072 98.709 C 209.812 98.796,209.600 99.070,209.600 99.319 C 209.600 99.573,209.887 99.484,210.255 99.117 C 211.334 98.037,209.149 95.543,207.200 95.630 C 206.870 95.644,207.368 95.998,208.307 96.415 M159.020 99.145 C 159.530 99.609,161.962 100.407,162.760 100.372 C 163.112 100.357,162.410 100.002,161.200 99.583 C 158.671 98.709,158.502 98.675,159.020 99.145 M207.800 100.089 C 207.360 100.344,205.740 100.954,204.200 101.444 C 202.660 101.934,201.704 102.350,202.076 102.367 C 202.885 102.406,208.438 100.468,208.980 99.958 C 209.527 99.442,208.769 99.526,207.800 100.089 M166.000 100.814 C 167.430 100.975,169.590 101.102,170.800 101.097 L 173.000 101.087 170.800 100.783 C 169.590 100.616,167.430 100.489,166.000 100.501 L 163.400 100.522 166.000 100.814 M178.600 101.799 C 181.460 102.097,184.520 102.331,185.400 102.320 C 188.268 102.284,183.181 101.693,178.029 101.464 L 173.400 101.258 178.600 101.799 M191.491 102.856 C 194.019 103.049,197.166 103.046,198.691 102.850 C 200.903 102.565,200.079 102.502,194.200 102.507 L 187.000 102.513 191.491 102.856 " stroke="none" fill="#f2bdc7" fill-rule="evenodd"></path><path id="path9" d="M263.200 65.239 C 257.370 65.411,248.550 65.750,243.600 65.993 C 227.166 66.800,198.015 66.955,174.664 66.361 C 144.263 65.588,102.601 65.783,29.310 67.042 L 14.421 67.298 11.614 68.949 C 10.070 69.857,8.806 70.708,8.804 70.840 C 8.798 71.177,18.656 71.523,41.400 71.983 C 52.180 72.202,70.900 72.580,83.000 72.824 C 115.973 73.489,164.773 73.502,178.000 72.850 C 190.039 72.256,231.759 72.424,252.600 73.151 C 265.372 73.596,340.669 73.732,354.700 73.335 L 364.000 73.072 364.000 69.412 L 364.000 65.752 341.900 65.268 C 318.115 64.747,280.350 64.733,263.200 65.239 " stroke="none" fill="#151513" fill-rule="evenodd"></path></g></svg>