<svg id="svg" version="1.1" width="500" height="678" xmlns="http://www.w3.org/2000/svg" xmlns:xlink="http://www.w3.org/1999/xlink" style="display: block;"><g id="svgg"><path id="path0" d="" stroke="none" fill="#000000" fill-rule="evenodd"></path><path id="path1" d="" stroke="none" fill="#550000" fill-rule="evenodd"></path><path id="path2" d="M71.889 3.247 L 70.000 4.895 72.400 3.490 C 75.559 1.640,75.606 1.600,74.622 1.600 C 74.157 1.600,72.927 2.341,71.889 3.247 M42.363 49.669 C 41.872 50.586,41.680 51.546,41.935 51.802 C 42.191 52.057,42.400 51.872,42.400 51.390 C 42.400 50.909,42.966 49.949,43.657 49.257 C 44.349 48.566,44.541 48.000,44.085 48.000 C 43.629 48.000,42.854 48.751,42.363 49.669 M111.256 85.353 C 111.225 86.317,111.560 87.328,112.000 87.600 C 112.946 88.185,112.946 87.402,112.000 85.200 C 111.337 83.657,111.310 83.663,111.256 85.353 M173.667 90.687 C 173.850 90.846,175.080 91.216,176.400 91.512 C 178.153 91.904,178.476 91.830,177.600 91.237 C 176.520 90.506,172.864 89.995,173.667 90.687 M118.400 116.753 C 118.400 119.984,118.742 122.400,119.200 122.400 C 119.651 122.400,120.000 120.149,120.000 117.247 C 120.000 114.413,119.640 111.872,119.200 111.600 C 118.696 111.288,118.400 113.192,118.400 116.753 M189.802 139.600 C 189.811 141.360,189.974 141.986,190.166 140.991 C 190.357 139.996,190.350 138.556,190.150 137.791 C 189.949 137.026,189.793 137.840,189.802 139.600 M240.884 245.668 C 237.559 246.998,239.683 247.369,243.323 246.094 C 245.880 245.199,246.271 244.880,244.800 244.889 C 243.700 244.896,241.938 245.246,240.884 245.668 M233.953 285.975 C 232.439 287.120,232.445 287.150,234.200 287.175 C 235.278 287.190,236.000 286.719,236.000 286.000 C 236.000 284.517,235.881 284.516,233.953 285.975 M28.533 294.133 C 27.743 294.924,27.910 300.219,28.769 301.577 C 29.178 302.224,29.764 302.503,30.071 302.196 C 30.377 301.890,30.177 301.095,29.625 300.430 C 29.069 299.760,28.768 297.970,28.951 296.411 C 29.308 293.348,29.310 293.357,28.533 294.133 M361.600 334.714 C 361.600 335.327,362.148 336.039,362.819 336.296 C 363.813 336.678,363.881 336.473,363.190 335.182 C 362.198 333.328,361.600 333.152,361.600 334.714 M215.474 361.200 C 215.477 364.720,215.618 366.060,215.787 364.179 C 215.956 362.297,215.953 359.417,215.782 357.779 C 215.610 356.140,215.471 357.680,215.474 361.200 M53.040 378.400 C 53.040 380.820,53.190 381.810,53.373 380.600 C 53.556 379.390,53.556 377.410,53.373 376.200 C 53.190 374.990,53.040 375.980,53.040 378.400 M271.200 385.235 L 269.200 386.413 271.600 385.903 C 274.248 385.341,276.248 383.982,274.360 384.028 C 273.722 384.044,272.300 384.587,271.200 385.235 M53.904 402.000 C 53.884 408.150,53.979 408.675,54.549 405.600 C 55.403 400.991,55.403 400.923,54.602 397.600 C 54.074 395.412,53.921 396.373,53.904 402.000 M352.800 419.760 C 352.800 421.573,353.084 422.425,353.533 421.960 C 354.860 420.585,354.909 416.800,353.600 416.800 C 353.160 416.800,352.800 418.132,352.800 419.760 M85.347 421.906 C 85.046 422.690,84.823 423.931,84.851 424.665 C 84.884 425.549,85.162 425.348,85.674 424.069 C 86.098 423.006,86.321 421.764,86.170 421.309 C 86.018 420.854,85.648 421.122,85.347 421.906 M194.428 442.926 C 195.305 446.812,196.000 447.207,196.000 443.819 C 196.000 442.139,195.548 440.798,194.898 440.548 C 194.023 440.213,193.927 440.702,194.428 442.926 M286.847 459.625 C 285.993 460.271,285.654 460.800,286.094 460.800 C 286.534 460.800,287.593 460.271,288.447 459.625 C 289.301 458.979,289.640 458.451,289.200 458.451 C 288.760 458.451,287.701 458.979,286.847 459.625 M199.596 476.398 C 200.181 479.026,200.582 479.684,201.214 479.052 C 201.442 478.824,201.051 477.594,200.345 476.319 L 199.061 474.000 199.596 476.398 M150.400 482.949 C 150.400 484.431,152.746 486.950,152.775 485.498 C 152.789 484.782,152.260 483.748,151.600 483.200 C 150.940 482.652,150.400 482.539,150.400 482.949 M151.783 493.283 C 151.463 493.604,151.200 494.419,151.200 495.093 C 151.200 495.994,151.437 496.083,152.090 495.430 C 152.580 494.940,152.842 494.126,152.673 493.620 C 152.505 493.114,152.104 492.963,151.783 493.283 M198.400 497.076 C 198.400 497.364,199.120 498.320,200.000 499.200 C 200.880 500.080,201.600 500.496,201.600 500.124 C 201.600 499.752,200.880 498.796,200.000 498.000 C 199.120 497.204,198.400 496.788,198.400 497.076 M278.400 501.541 C 278.400 501.949,277.770 502.447,277.000 502.649 C 275.819 502.957,275.804 503.029,276.902 503.107 C 277.618 503.158,278.652 502.660,279.200 502.000 C 279.888 501.171,279.918 500.800,279.298 500.800 C 278.804 500.800,278.400 501.134,278.400 501.541 M262.847 505.225 C 261.993 505.871,261.654 506.400,262.094 506.400 C 262.534 506.400,263.593 505.871,264.447 505.225 C 265.301 504.579,265.640 504.051,265.200 504.051 C 264.760 504.051,263.701 504.579,262.847 505.225 M247.600 508.000 L 246.000 508.688 247.600 508.688 C 248.480 508.688,249.920 508.378,250.800 508.000 L 252.400 507.312 250.800 507.312 C 249.920 507.312,248.480 507.622,247.600 508.000 M230.400 510.915 L 227.600 512.039 230.800 511.557 C 232.560 511.292,234.342 510.744,234.760 510.338 C 235.840 509.290,233.765 509.564,230.400 510.915 " stroke="none" fill="#ff0000" fill-rule="evenodd"></path><path id="path3" d="M38.586 140.000 C 38.586 141.540,38.750 142.170,38.951 141.400 C 39.153 140.630,39.153 139.370,38.951 138.600 C 38.750 137.830,38.586 138.460,38.586 140.000 M89.892 366.000 C 89.894 370.400,90.029 372.098,90.191 369.773 C 90.353 367.448,90.351 363.848,90.187 361.773 C 90.023 359.698,89.890 361.600,89.892 366.000 " stroke="none" fill="#550055" fill-rule="evenodd"></path><path id="path4" d="" stroke="none" fill="#990099" fill-rule="evenodd"></path><path id="path5" d="M89.802 355.600 C 89.811 357.360,89.974 357.986,90.166 356.991 C 90.357 355.996,90.350 354.556,90.150 353.791 C 89.949 353.026,89.793 353.840,89.802 355.600 " stroke="none" fill="#ff00ff" fill-rule="evenodd"></path><path id="path6" d="" stroke="none" fill="#990033" fill-rule="evenodd"></path><path id="path7" d="M116.912 103.200 C 116.912 103.860,117.222 105.120,117.600 106.000 C 118.033 107.009,118.288 107.156,118.288 106.400 C 118.288 105.740,117.978 104.480,117.600 103.600 C 117.167 102.591,116.912 102.444,116.912 103.200 M159.334 204.041 C 159.802 205.383,160.333 206.333,160.515 206.152 C 160.911 205.756,159.401 201.600,158.861 201.600 C 158.653 201.600,158.866 202.698,159.334 204.041 M121.600 321.819 C 121.600 322.967,121.909 324.097,122.288 324.330 C 122.666 324.564,122.874 323.834,122.750 322.707 C 122.442 319.901,121.600 319.251,121.600 321.819 M54.412 392.600 C 54.448 394.354,55.976 395.517,55.988 393.800 C 55.994 392.810,55.640 392.000,55.200 392.000 C 54.760 392.000,54.406 392.270,54.412 392.600 M54.652 411.800 C 54.378 412.570,54.008 413.470,53.829 413.800 C 53.651 414.130,53.845 414.400,54.260 414.400 C 54.674 414.400,55.186 413.500,55.396 412.400 C 55.836 410.099,55.386 409.736,54.652 411.800 M268.600 430.165 C 269.590 430.355,271.210 430.355,272.200 430.165 C 273.190 429.974,272.380 429.818,270.400 429.818 C 268.420 429.818,267.610 429.974,268.600 430.165 M268.609 460.566 C 269.604 460.757,271.044 460.750,271.809 460.550 C 272.574 460.349,271.760 460.193,270.000 460.202 C 268.240 460.211,267.614 460.374,268.609 460.566 M313.800 462.425 C 312.810 462.823,312.000 463.340,312.000 463.574 C 312.000 464.351,313.273 464.016,314.847 462.825 C 316.617 461.487,316.369 461.392,313.800 462.425 M200.068 471.600 C 200.044 472.480,200.373 473.740,200.800 474.400 C 201.828 475.990,201.828 473.992,200.800 471.600 L 200.112 470.000 200.068 471.600 M204.824 499.200 C 204.825 500.579,206.161 502.939,206.622 502.377 C 206.792 502.170,206.457 501.100,205.878 500.000 C 205.297 498.898,204.824 498.539,204.824 499.200 " stroke="none" fill="#b6006d" fill-rule="evenodd"></path><path id="path8" d="M87.064 0.807 C 86.917 1.250,84.951 1.741,82.697 1.898 C 80.443 2.055,78.194 2.433,77.699 2.739 C 77.205 3.044,76.800 3.037,76.800 2.723 C 76.800 2.409,76.165 2.726,75.390 3.428 C 74.416 4.310,72.169 4.757,68.124 4.875 C 64.459 4.982,61.861 5.453,61.180 6.134 C 60.582 6.732,59.036 7.433,57.744 7.691 C 52.214 8.797,47.950 20.767,51.635 24.839 C 53.716 27.138,53.929 30.464,52.028 30.961 C 50.554 31.346,50.400 32.021,50.400 38.093 C 50.400 42.918,50.119 44.804,49.400 44.814 C 47.792 44.836,44.800 48.469,44.800 50.398 C 44.800 51.686,44.454 52.038,43.535 51.686 C 42.324 51.221,44.934 56.487,46.466 57.600 C 46.769 57.820,47.182 60.415,47.383 63.367 C 47.584 66.318,48.255 69.358,48.874 70.120 C 49.805 71.266,49.808 71.392,48.896 70.842 C 48.129 70.380,47.915 70.516,48.196 71.289 C 48.418 71.900,49.005 72.310,49.500 72.200 C 50.021 72.084,50.405 73.094,50.411 74.600 C 50.428 78.560,51.115 80.254,53.388 81.937 C 54.529 82.782,55.205 83.056,54.890 82.546 C 54.515 81.940,54.747 81.783,55.558 82.095 C 56.241 82.357,56.800 82.856,56.800 83.205 C 56.800 84.357,65.143 83.657,66.400 82.400 C 67.060 81.740,68.320 81.117,69.200 81.015 C 70.080 80.913,71.584 80.746,72.542 80.645 C 73.501 80.544,74.125 80.202,73.929 79.886 C 73.734 79.569,73.980 79.060,74.476 78.753 C 76.294 77.630,76.508 79.227,76.100 90.847 C 76.041 92.535,75.672 93.492,75.194 93.197 C 74.751 92.923,74.159 93.297,73.878 94.029 C 73.223 95.737,69.386 99.632,68.600 99.387 C 68.270 99.284,68.000 99.491,68.000 99.846 C 68.000 101.041,63.802 105.572,63.097 105.137 C 62.714 104.900,62.400 105.092,62.400 105.565 C 62.400 106.719,55.185 114.053,54.299 113.800 C 53.915 113.690,53.600 113.957,53.600 114.393 C 53.600 115.344,48.851 120.000,47.881 120.000 C 47.507 120.000,47.290 120.450,47.400 121.000 C 47.510 121.550,47.186 121.922,46.680 121.827 C 45.839 121.668,44.359 125.182,44.669 126.600 C 44.741 126.930,44.376 127.110,43.858 127.000 C 43.339 126.890,42.575 127.880,42.160 129.200 C 41.744 130.520,40.908 132.556,40.302 133.723 C 38.771 136.673,38.838 145.904,40.400 147.200 C 41.060 147.748,41.600 148.984,41.600 149.947 C 41.600 150.910,42.320 152.471,43.200 153.416 C 44.080 154.360,44.799 155.418,44.798 155.767 C 44.793 157.241,48.481 163.200,49.399 163.200 C 49.949 163.200,50.400 163.881,50.400 164.714 C 50.400 165.547,50.875 166.411,51.455 166.634 C 52.035 166.856,52.961 169.059,53.514 171.529 C 54.067 174.000,54.853 175.815,55.260 175.563 C 56.285 174.929,56.200 182.680,55.171 183.709 C 54.202 184.678,53.547 187.756,53.238 192.800 C 52.901 198.296,52.873 198.400,51.737 198.400 C 51.010 198.400,50.619 199.728,50.500 202.600 C 50.254 208.520,49.918 210.029,48.894 209.800 C 48.402 209.690,47.982 210.590,47.959 211.800 C 47.877 216.233,47.003 221.230,46.113 222.354 C 45.379 223.281,45.435 223.368,46.400 222.800 C 47.467 222.171,47.467 222.257,46.400 223.566 C 45.730 224.389,45.023 227.374,44.800 230.320 C 44.525 233.956,44.089 235.538,43.400 235.400 C 42.850 235.290,42.443 235.470,42.495 235.800 C 42.547 236.130,42.518 236.580,42.430 236.800 C 42.342 237.020,42.093 239.720,41.877 242.800 C 41.662 245.880,41.130 248.760,40.695 249.200 C 40.174 249.728,40.101 249.456,40.480 248.400 C 40.796 247.520,40.781 247.047,40.445 247.349 C 40.110 247.651,39.706 249.271,39.547 250.949 C 38.999 256.746,38.257 260.000,37.482 260.000 C 37.055 260.000,36.869 260.270,37.069 260.600 C 37.268 260.930,37.073 263.360,36.635 266.000 C 36.197 268.640,35.740 271.520,35.621 272.400 C 35.502 273.280,35.358 274.291,35.302 274.647 C 35.246 275.003,34.912 275.116,34.560 274.899 C 33.957 274.526,33.746 275.821,33.569 281.000 C 33.527 282.210,33.219 283.200,32.885 283.200 C 32.551 283.200,32.436 284.280,32.629 285.600 C 32.886 287.348,32.659 288.000,31.793 288.000 C 29.997 288.000,29.770 303.008,31.555 303.694 C 32.235 303.954,32.592 304.490,32.348 304.884 C 32.105 305.278,32.263 305.600,32.699 305.600 C 33.135 305.600,33.725 306.335,34.010 307.233 C 34.319 308.205,35.479 309.056,36.876 309.335 C 38.438 309.648,39.152 310.233,39.012 311.084 C 38.895 311.788,39.250 312.417,39.800 312.482 C 40.350 312.547,41.070 312.688,41.400 312.795 C 41.730 312.902,42.235 312.958,42.523 312.920 C 42.811 312.882,43.485 313.380,44.021 314.026 C 44.557 314.672,45.616 315.200,46.374 315.200 C 49.027 315.200,50.295 317.758,50.480 323.484 C 50.601 327.233,51.000 329.080,51.749 329.368 C 52.542 329.672,52.607 330.068,51.987 330.816 C 51.379 331.549,51.390 331.930,52.028 332.143 C 52.648 332.349,53.045 339.779,53.323 356.413 C 53.543 369.597,54.047 380.775,54.443 381.251 C 54.880 381.778,54.793 382.487,54.221 383.059 C 53.621 383.659,53.586 384.000,54.125 384.000 C 54.590 384.000,54.932 385.045,54.885 386.321 C 54.838 387.598,54.530 388.477,54.200 388.274 C 53.870 388.071,53.600 388.257,53.600 388.686 C 53.600 389.115,54.050 389.616,54.600 389.799 C 56.136 390.309,56.483 411.105,55.007 414.123 C 53.995 416.191,53.660 419.654,53.204 432.800 C 52.920 440.972,52.817 441.603,51.800 441.400 C 51.110 441.262,50.724 442.683,50.554 445.987 C 50.396 449.080,49.829 451.305,48.954 452.271 C 47.603 453.765,47.489 454.274,47.300 459.647 C 47.245 461.213,46.878 462.295,46.484 462.052 C 45.512 461.451,44.800 463.535,44.800 466.977 C 44.800 468.717,44.279 470.205,43.459 470.804 C 42.721 471.344,42.000 473.004,41.856 474.493 C 41.480 478.394,41.235 479.397,40.192 481.290 C 39.680 482.219,39.048 484.190,38.788 485.669 C 38.527 487.148,38.063 488.548,37.757 488.779 C 37.451 489.011,37.169 489.560,37.132 490.000 C 36.886 492.900,35.630 496.000,34.700 496.000 C 34.095 496.000,33.600 496.540,33.600 497.200 C 33.600 497.989,32.811 498.400,31.298 498.400 C 30.032 498.400,28.548 498.940,28.000 499.600 C 26.792 501.056,24.805 501.180,24.788 499.800 C 24.779 499.093,24.566 499.130,24.061 499.928 C 23.668 500.549,22.678 501.106,21.859 501.166 C 19.798 501.318,18.283 502.364,18.834 503.255 C 19.087 503.665,18.595 504.000,17.740 504.000 C 14.820 504.000,15.440 523.347,18.371 523.700 C 18.827 523.755,19.740 523.845,20.400 523.900 C 21.060 523.955,21.510 524.436,21.400 524.968 C 21.266 525.615,22.793 526.037,26.000 526.241 C 28.640 526.408,31.319 526.963,31.954 527.473 C 32.883 528.220,32.973 528.167,32.416 527.200 C 31.865 526.243,32.037 526.264,33.262 527.303 C 35.482 529.184,48.800 529.481,48.800 527.649 C 48.800 526.786,49.565 526.400,51.279 526.400 C 56.679 526.400,58.400 522.866,58.400 511.782 C 58.400 502.779,58.894 499.515,59.350 505.503 C 59.460 506.943,59.869 508.319,60.260 508.561 C 60.651 508.802,60.482 509.309,59.885 509.688 C 59.040 510.224,59.109 510.378,60.200 510.388 C 61.426 510.398,61.600 511.273,61.600 517.440 C 61.600 525.315,62.154 526.400,66.177 526.400 C 68.235 526.400,69.040 525.949,69.746 524.400 C 70.247 523.300,70.870 522.400,71.130 522.400 C 71.390 522.400,71.602 519.250,71.601 515.400 C 71.601 511.550,71.740 508.083,71.911 507.697 C 72.082 507.310,72.331 503.232,72.464 498.635 C 72.620 493.270,73.081 489.814,73.753 488.985 C 74.527 488.029,74.540 487.849,73.800 488.294 C 73.164 488.675,72.800 488.423,72.800 487.600 C 72.800 486.888,73.122 486.505,73.516 486.748 C 75.272 487.833,75.960 474.298,74.255 472.195 C 73.361 471.092,73.383 470.983,74.400 471.483 C 75.060 471.808,74.790 471.474,73.800 470.739 C 72.810 470.005,72.000 469.063,72.000 468.645 C 72.000 468.228,71.491 467.377,70.869 466.755 C 70.247 466.133,69.859 464.988,70.008 464.212 C 70.156 463.435,70.305 462.509,70.339 462.153 C 70.372 461.797,70.816 461.762,71.324 462.076 C 71.875 462.417,72.031 462.297,71.711 461.779 C 71.415 461.301,71.464 460.731,71.820 460.511 C 72.175 460.292,72.556 458.765,72.667 457.119 C 72.778 455.473,73.353 453.738,73.945 453.263 C 74.537 452.788,75.256 451.060,75.543 449.422 C 75.830 447.784,76.500 446.164,77.032 445.822 C 77.564 445.480,78.092 444.480,78.205 443.600 C 78.318 442.720,78.484 441.385,78.573 440.634 C 78.662 439.883,78.894 439.428,79.089 439.622 C 79.775 440.309,81.600 435.785,81.600 433.397 C 81.600 432.066,82.137 430.577,82.793 430.088 C 83.623 429.471,84.020 427.558,84.096 423.816 C 84.156 420.855,84.467 418.594,84.786 418.791 C 85.888 419.473,87.200 415.110,87.200 410.762 C 87.200 408.363,87.560 406.400,88.000 406.400 C 88.440 406.400,88.800 406.019,88.800 405.553 C 88.800 405.080,88.358 404.978,87.800 405.322 C 87.250 405.661,87.430 404.975,88.200 403.797 C 89.454 401.880,89.610 398.999,89.693 376.228 C 89.744 362.243,89.961 351.520,90.175 352.400 C 90.390 353.280,91.158 354.668,91.883 355.484 C 92.607 356.300,93.120 357.020,93.023 357.084 C 92.355 357.521,94.006 360.800,94.893 360.800 C 95.521 360.800,96.000 361.612,96.000 362.676 C 96.000 363.708,96.720 365.204,97.600 366.000 C 98.480 366.796,99.200 367.932,99.200 368.524 C 99.200 369.116,99.650 369.606,100.200 369.612 C 100.867 369.620,100.800 369.883,100.000 370.400 C 98.958 371.073,98.973 371.177,100.113 371.188 C 100.841 371.195,101.650 372.091,101.929 373.200 C 102.205 374.300,102.964 375.200,103.615 375.200 C 104.401 375.200,104.800 376.017,104.800 377.625 C 104.800 379.043,105.299 380.242,106.000 380.511 C 106.660 380.764,107.200 381.405,107.200 381.935 C 107.200 382.465,107.920 383.671,108.800 384.616 C 109.680 385.560,110.400 387.068,110.400 387.967 C 110.400 388.865,110.924 389.600,111.564 389.600 C 112.260 389.600,112.938 390.722,113.251 392.393 C 113.540 393.929,114.099 394.986,114.494 394.742 C 115.283 394.254,116.828 397.633,116.259 398.600 C 116.065 398.930,116.308 399.200,116.800 399.200 C 117.292 399.200,117.495 399.522,117.252 399.916 C 117.008 400.310,117.347 400.839,118.005 401.091 C 118.662 401.343,119.200 402.063,119.200 402.689 C 119.200 403.316,119.763 404.045,120.451 404.309 C 121.139 404.573,121.479 405.148,121.208 405.588 C 120.936 406.027,121.628 407.301,122.746 408.419 C 123.864 409.537,124.860 411.520,124.959 412.826 C 125.059 414.135,125.602 415.200,126.170 415.200 C 126.737 415.200,127.200 415.864,127.200 416.676 C 127.200 417.488,127.920 418.804,128.800 419.600 C 129.793 420.498,130.400 422.064,130.400 423.724 C 130.400 425.589,130.770 426.400,131.620 426.400 C 132.711 426.400,134.240 430.527,133.769 432.200 C 133.676 432.530,134.040 432.710,134.577 432.600 C 135.191 432.474,135.727 433.831,136.020 436.256 C 136.276 438.376,136.907 440.371,137.421 440.689 C 137.935 441.007,138.667 442.692,139.048 444.434 C 139.429 446.175,140.159 447.510,140.670 447.400 C 141.278 447.269,141.600 448.570,141.600 451.160 C 141.600 453.870,141.984 455.335,142.814 455.800 C 143.482 456.174,144.318 458.082,144.672 460.040 C 145.042 462.092,145.714 463.515,146.257 463.400 C 147.032 463.236,147.689 467.601,147.326 470.505 C 147.292 470.782,147.969 471.648,148.832 472.429 C 149.784 473.290,150.400 474.882,150.400 476.478 C 150.400 477.925,151.061 480.299,151.869 481.754 C 152.676 483.209,153.261 484.850,153.169 485.400 C 153.076 485.950,152.955 488.714,152.900 491.543 C 152.834 494.936,152.392 497.094,151.600 497.886 C 150.940 498.546,150.390 499.561,150.378 500.143 C 150.366 500.724,149.116 502.100,147.600 503.200 C 144.559 505.407,143.221 516.244,145.864 517.258 C 146.449 517.483,147.416 518.912,148.013 520.433 C 148.610 521.955,149.391 523.200,149.749 523.200 C 150.107 523.200,150.400 523.701,150.400 524.314 C 150.400 526.580,160.708 527.396,163.137 525.322 C 163.832 524.729,166.103 523.784,168.185 523.222 C 170.267 522.660,171.776 521.885,171.538 521.500 C 171.300 521.115,172.027 520.800,173.153 520.800 C 174.279 520.800,175.200 520.419,175.200 519.953 C 175.200 519.487,175.519 519.303,175.909 519.544 C 176.299 519.785,177.064 519.446,177.607 518.791 C 178.151 518.136,178.965 517.600,179.417 517.600 C 179.869 517.600,181.462 516.340,182.958 514.800 C 184.453 513.260,185.965 512.000,186.317 512.000 C 187.907 512.000,187.311 501.148,185.638 499.634 C 184.737 498.819,184.000 497.488,184.000 496.676 C 184.000 495.864,183.675 495.200,183.278 495.200 C 182.521 495.200,180.565 490.368,181.104 489.829 C 181.275 489.658,181.829 490.707,182.336 492.159 C 183.071 494.267,183.410 494.558,184.016 493.600 C 184.585 492.701,184.779 493.065,184.788 495.047 C 184.795 496.598,185.130 497.491,185.597 497.202 C 186.035 496.931,186.813 497.630,187.325 498.755 C 187.838 499.880,188.739 500.800,189.328 500.800 C 189.918 500.800,190.400 501.499,190.400 502.353 C 190.400 503.207,190.766 504.132,191.213 504.408 C 191.660 504.684,191.867 505.168,191.672 505.483 C 191.478 505.798,192.901 506.082,194.836 506.114 C 196.771 506.146,198.163 505.863,197.930 505.486 C 197.696 505.109,197.797 504.797,198.153 504.794 C 199.055 504.785,200.572 501.315,200.183 500.150 C 200.007 499.622,199.578 499.366,199.229 499.582 C 198.629 499.953,197.241 495.552,197.513 494.141 C 197.583 493.778,197.281 493.703,196.843 493.973 C 196.405 494.244,195.821 493.565,195.545 492.466 C 195.269 491.366,194.538 490.047,193.922 489.535 C 193.305 489.023,192.800 487.792,192.800 486.800 C 192.800 485.808,192.295 484.577,191.678 484.065 C 191.062 483.553,190.314 482.159,190.016 480.967 C 189.719 479.775,188.968 478.236,188.347 477.547 C 187.727 476.858,187.088 475.103,186.929 473.646 C 186.769 472.189,186.045 470.665,185.319 470.259 C 184.487 469.793,184.000 468.491,184.000 466.734 C 184.000 463.530,180.670 456.428,178.837 455.725 C 178.157 455.464,177.600 454.699,177.600 454.025 C 177.600 453.086,176.654 452.800,173.553 452.800 C 171.201 452.800,169.702 452.482,169.975 452.040 C 170.233 451.622,169.687 450.875,168.762 450.380 C 165.812 448.801,164.033 446.498,163.844 444.014 C 163.725 442.462,163.221 441.596,162.430 441.588 C 161.430 441.578,161.404 441.446,162.291 440.885 C 162.983 440.446,163.064 440.085,162.513 439.897 C 162.035 439.734,161.456 437.080,161.225 434.000 C 160.636 426.128,160.231 423.837,159.333 423.282 C 158.902 423.016,158.432 420.279,158.289 417.199 C 158.144 414.096,157.573 411.126,157.006 410.536 C 156.445 409.950,156.190 409.140,156.440 408.736 C 156.690 408.331,156.531 408.000,156.087 408.000 C 155.643 408.000,155.172 405.930,155.040 403.400 C 154.902 400.748,154.444 398.862,153.960 398.947 C 153.498 399.027,153.019 397.947,152.895 396.547 C 152.397 390.914,152.169 390.008,151.303 390.200 C 150.806 390.310,150.370 389.770,150.334 389.000 C 150.167 385.436,149.434 382.729,148.430 381.960 C 147.827 381.498,147.087 379.813,146.788 378.216 C 146.488 376.618,145.738 375.117,145.121 374.881 C 144.505 374.644,144.000 373.708,144.000 372.800 C 144.000 371.892,143.495 370.956,142.879 370.719 C 142.262 370.483,141.526 369.054,141.242 367.545 C 140.936 365.912,140.256 364.800,139.564 364.800 C 138.924 364.800,138.400 364.273,138.400 363.628 C 138.400 362.984,137.680 362.071,136.800 361.600 C 135.856 361.095,135.200 359.925,135.200 358.747 C 135.200 357.648,134.660 356.543,134.000 356.289 C 133.340 356.036,132.800 355.047,132.800 354.092 C 132.800 353.137,132.263 351.589,131.606 350.652 C 130.950 349.714,130.300 348.210,130.162 347.309 C 130.025 346.408,129.373 345.025,128.713 344.236 C 128.054 343.446,127.409 341.540,127.281 340.000 C 127.152 338.460,126.725 336.807,126.331 336.326 C 125.936 335.846,125.851 335.216,126.140 334.926 C 126.430 334.637,126.067 334.400,125.333 334.400 C 124.314 334.400,124.000 333.656,124.000 331.247 C 124.000 329.513,123.615 327.857,123.145 327.566 C 122.675 327.276,122.480 326.546,122.711 325.945 C 122.941 325.343,122.786 324.638,122.365 324.378 C 120.225 323.056,121.541 317.600,124.000 317.600 C 125.600 317.600,126.400 317.200,126.400 316.400 C 126.400 315.565,127.240 315.200,129.160 315.200 C 130.678 315.200,132.208 314.716,132.560 314.123 C 132.912 313.531,134.436 312.807,135.948 312.514 C 137.459 312.221,139.312 311.422,140.067 310.739 C 140.822 310.056,142.555 309.466,143.920 309.427 C 145.737 309.375,146.400 308.976,146.400 307.934 C 146.400 307.068,147.104 306.411,148.200 306.256 C 149.190 306.115,149.910 305.730,149.800 305.400 C 149.690 305.070,150.342 304.058,151.248 303.152 C 153.229 301.171,153.092 295.333,151.010 293.032 C 149.693 291.577,149.600 291.324,149.600 289.200 C 149.600 288.540,149.060 288.000,148.400 288.000 C 147.740 288.000,147.200 287.356,147.200 286.569 C 147.200 285.782,146.480 283.726,145.600 282.000 C 144.720 280.274,144.000 278.038,144.000 277.031 C 144.000 275.937,143.517 275.200,142.800 275.200 C 142.061 275.200,141.600 274.450,141.600 273.247 C 141.600 272.173,141.256 271.082,140.835 270.822 C 140.414 270.562,140.278 269.806,140.533 269.142 C 140.818 268.399,140.593 268.024,139.948 268.167 C 139.288 268.314,138.700 267.255,138.362 265.317 C 138.066 263.621,137.459 262.001,137.013 261.717 C 136.566 261.433,135.947 260.030,135.637 258.600 C 135.323 257.152,134.570 256.000,133.936 256.000 C 133.247 256.000,132.800 255.185,132.800 253.926 C 132.800 252.786,132.080 250.937,131.200 249.818 C 130.320 248.700,129.600 247.113,129.600 246.292 C 129.600 245.471,129.107 244.800,128.505 244.800 C 127.827 244.800,127.242 243.540,126.966 241.485 C 126.721 239.661,126.044 237.867,125.461 237.497 C 124.877 237.127,124.760 236.813,125.200 236.800 C 125.733 236.784,125.733 236.580,125.200 236.188 C 123.756 235.127,122.335 231.953,122.897 231.044 C 123.231 230.503,123.084 230.377,122.524 230.724 C 121.937 231.086,121.600 230.680,121.600 229.614 C 121.600 228.689,120.880 227.160,120.000 226.216 C 119.120 225.271,118.400 223.976,118.400 223.337 C 118.400 222.699,117.770 221.660,117.000 221.029 C 116.169 220.347,116.087 220.124,116.800 220.478 C 117.690 220.921,117.638 220.662,116.600 219.475 C 115.830 218.594,115.200 217.452,115.200 216.937 C 115.200 216.422,114.699 216.000,114.087 216.000 C 113.081 216.000,111.661 212.673,112.186 211.547 C 112.304 211.294,111.770 210.735,111.000 210.304 C 110.230 209.873,109.600 208.977,109.600 208.313 C 109.600 207.649,109.281 207.303,108.891 207.544 C 107.928 208.139,106.136 205.874,106.765 204.856 C 107.042 204.409,106.533 203.413,105.634 202.644 C 103.330 200.671,103.212 181.324,105.512 182.746 C 105.812 182.931,106.108 182.479,106.170 181.741 C 106.600 176.649,107.299 171.634,107.624 171.309 C 107.961 170.973,117.123 179.550,121.793 184.573 C 122.699 185.548,123.747 186.156,124.121 185.926 C 124.494 185.695,124.800 186.247,124.800 187.153 C 124.800 188.059,125.169 188.800,125.620 188.800 C 126.071 188.800,126.782 189.700,127.200 190.800 C 127.618 191.900,128.290 192.800,128.693 192.800 C 129.096 192.800,129.990 194.209,130.679 195.932 C 131.369 197.655,132.308 199.296,132.766 199.579 C 133.225 199.863,133.600 200.755,133.600 201.562 C 133.600 202.369,134.140 203.236,134.800 203.489 C 135.460 203.743,136.000 204.923,136.000 206.112 C 136.000 207.301,136.551 208.883,137.224 209.627 C 137.897 210.370,138.586 212.019,138.755 213.290 C 139.194 216.583,140.052 218.462,140.884 217.948 C 141.278 217.705,141.608 218.697,141.618 220.153 C 141.628 221.609,142.340 223.700,143.200 224.800 C 144.060 225.900,144.772 227.751,144.782 228.914 C 144.792 230.077,145.340 231.236,146.000 231.489 C 146.750 231.777,147.200 232.999,147.200 234.747 C 147.200 236.725,147.668 237.794,148.800 238.400 C 149.848 238.961,150.400 240.075,150.400 241.628 C 150.400 242.933,150.781 244.000,151.247 244.000 C 151.713 244.000,151.847 244.400,151.545 244.889 C 151.242 245.379,151.491 246.085,152.098 246.460 C 152.848 246.924,153.219 248.874,153.260 252.571 C 153.330 258.897,154.217 263.407,155.265 262.760 C 155.669 262.510,156.000 263.227,156.000 264.353 C 156.000 265.596,156.450 266.400,157.146 266.400 C 157.776 266.400,158.521 267.120,158.800 268.000 C 159.079 268.880,159.745 269.600,160.279 269.600 C 160.812 269.600,161.658 270.683,162.157 272.006 C 162.657 273.329,162.736 274.207,162.333 273.958 C 161.930 273.709,161.600 274.268,161.600 275.200 C 161.600 276.132,161.899 276.710,162.264 276.484 C 162.629 276.259,162.858 276.868,162.773 277.837 C 162.688 278.807,163.019 280.119,163.509 280.754 C 164.215 281.668,164.151 281.780,163.200 281.294 C 162.401 280.886,162.447 281.050,163.339 281.784 C 164.320 282.592,164.724 284.374,164.850 288.444 C 164.951 291.719,165.465 294.514,166.100 295.251 C 166.694 295.940,167.360 299.148,167.582 302.381 C 167.804 305.614,168.467 309.010,169.055 309.929 C 169.643 310.848,170.210 313.580,170.315 316.000 C 170.614 322.948,170.729 323.537,172.000 324.659 C 173.067 325.601,173.067 325.651,172.000 325.106 C 170.934 324.561,170.934 324.657,171.999 325.968 C 172.659 326.780,173.241 328.559,173.293 329.922 C 173.567 337.039,174.068 339.999,175.000 339.999 C 175.679 340.000,176.000 341.419,176.000 344.426 C 176.000 346.860,176.579 350.190,177.286 351.826 C 177.993 353.462,178.729 356.780,178.922 359.200 C 179.115 361.620,179.352 364.565,179.448 365.745 C 179.544 366.925,179.946 368.185,180.340 368.545 C 180.756 368.926,180.784 368.730,180.405 368.076 C 179.966 367.321,180.055 367.140,180.676 367.524 C 181.184 367.838,181.643 370.143,181.695 372.647 C 181.812 378.289,182.563 381.965,183.550 381.733 C 184.472 381.516,184.644 382.623,184.912 390.491 C 185.029 393.903,185.385 396.533,185.704 396.336 C 186.549 395.813,187.115 398.199,187.320 403.150 C 187.442 406.099,187.967 407.967,188.950 408.950 C 190.101 410.101,190.400 411.681,190.400 416.622 C 190.400 420.608,190.796 423.411,191.501 424.422 C 192.107 425.290,192.857 428.502,193.168 431.560 C 193.492 434.751,194.203 437.478,194.837 437.960 C 195.618 438.554,195.981 440.983,196.077 446.249 C 196.173 451.515,196.550 454.035,197.363 454.849 C 198.271 455.757,198.291 456.003,197.457 456.012 C 196.779 456.020,196.700 456.235,197.238 456.612 C 197.699 456.936,198.150 458.280,198.241 459.600 C 198.513 463.588,199.140 465.980,199.986 466.262 C 200.517 466.439,200.510 467.047,199.965 468.065 C 199.448 469.032,199.432 469.600,199.923 469.600 C 200.706 469.600,201.393 473.265,201.885 480.075 C 202.031 482.096,202.388 484.133,202.678 484.603 C 202.969 485.073,203.283 486.389,203.378 487.529 C 203.472 488.668,203.830 489.600,204.174 489.600 C 204.519 489.600,204.800 491.377,204.800 493.548 C 204.800 495.719,205.215 498.509,205.722 499.748 C 206.230 500.987,206.780 502.720,206.945 503.600 C 207.111 504.480,207.661 505.342,208.168 505.515 C 208.675 505.688,209.834 506.592,210.745 507.523 C 213.569 510.413,215.631 511.842,214.894 510.400 C 214.540 509.706,214.765 509.790,215.429 510.600 C 216.920 512.420,224.355 512.559,226.114 510.800 C 226.889 510.025,228.868 509.600,231.697 509.600 C 234.107 509.600,237.121 509.061,238.394 508.403 C 240.089 507.526,240.861 507.452,241.277 508.124 C 241.679 508.775,242.111 508.678,242.760 507.790 C 243.446 506.852,245.499 506.472,250.964 506.274 C 254.973 506.129,258.096 505.756,257.904 505.445 C 257.713 505.135,258.736 504.692,260.178 504.462 C 263.949 503.859,270.510 502.991,272.548 502.825 C 273.509 502.746,274.769 502.297,275.348 501.826 C 275.927 501.355,278.740 500.783,281.600 500.555 C 286.102 500.196,288.887 499.756,290.400 499.166 C 290.620 499.081,291.070 499.053,291.400 499.105 C 291.730 499.157,292.000 498.918,292.000 498.574 C 292.000 498.016,295.279 497.617,301.757 497.386 C 302.944 497.344,303.731 497.012,303.507 496.649 C 302.925 495.708,304.354 495.385,311.600 494.823 C 315.120 494.549,318.434 494.282,318.965 494.229 C 319.495 494.177,319.744 493.833,319.518 493.467 C 319.291 493.100,319.757 492.749,320.553 492.686 C 329.127 492.011,332.321 491.436,332.629 490.513 C 332.796 490.011,334.134 489.600,335.601 489.600 C 339.062 489.600,340.800 488.903,340.800 487.514 C 340.800 486.774,341.740 486.400,343.600 486.400 C 345.556 486.400,346.400 486.038,346.400 485.200 C 346.400 484.540,347.120 483.955,348.000 483.900 C 351.037 483.710,351.333 483.595,352.353 482.200 C 352.916 481.430,353.787 480.800,354.288 480.800 C 354.790 480.800,355.200 480.501,355.200 480.135 C 355.200 479.770,356.190 478.966,357.400 478.349 C 358.610 477.732,360.654 476.235,361.943 475.022 C 363.232 473.809,364.947 472.607,365.755 472.351 C 366.562 472.095,367.028 471.569,366.789 471.183 C 366.550 470.796,367.085 470.090,367.978 469.612 C 368.870 469.134,369.600 468.216,369.600 467.572 C 369.600 466.922,370.334 466.400,371.247 466.400 C 372.153 466.400,372.701 466.087,372.464 465.704 C 372.228 465.322,372.926 463.972,374.016 462.704 C 375.106 461.437,375.998 459.989,375.999 459.486 C 376.000 458.983,376.540 458.364,377.200 458.111 C 377.860 457.857,378.400 456.919,378.400 456.025 C 378.400 455.131,378.924 454.400,379.564 454.400 C 380.260 454.400,380.938 453.278,381.251 451.607 C 381.540 450.071,382.058 448.989,382.404 449.202 C 383.291 449.751,384.000 447.557,384.000 444.260 C 384.000 442.123,384.383 441.350,385.600 441.032 C 387.047 440.653,387.881 436.827,387.275 433.341 C 387.212 432.978,387.519 432.903,387.957 433.173 C 389.411 434.072,389.928 429.340,389.873 415.600 C 389.816 400.986,389.582 397.516,388.695 398.065 C 388.385 398.257,387.921 397.331,387.665 396.007 C 387.409 394.683,386.997 392.545,386.749 391.255 C 386.500 389.966,385.780 388.482,385.149 387.957 C 384.517 387.433,384.000 385.986,384.000 384.742 C 384.000 383.498,383.527 382.192,382.949 381.840 C 382.371 381.488,381.532 379.940,381.083 378.400 C 380.635 376.860,379.848 375.690,379.334 375.800 C 378.820 375.910,378.400 375.280,378.400 374.400 C 378.400 373.520,378.001 372.800,377.514 372.800 C 377.027 372.800,376.843 372.241,377.105 371.558 C 377.380 370.842,377.245 370.525,376.785 370.809 C 376.347 371.080,375.757 370.649,375.473 369.851 C 375.189 369.053,373.752 367.231,372.279 365.802 C 370.805 364.373,369.600 362.843,369.600 362.402 C 369.600 361.961,369.102 361.600,368.493 361.600 C 367.086 361.600,366.425 359.122,366.411 353.800 C 366.404 351.234,366.051 349.600,365.502 349.600 C 364.888 349.600,364.923 349.215,365.615 348.382 C 366.461 347.363,366.411 347.246,365.313 347.667 C 364.206 348.092,364.000 347.558,364.000 344.264 C 364.000 342.078,363.469 339.598,362.795 338.636 C 361.725 337.108,361.175 334.674,360.889 330.200 C 360.840 329.430,360.350 328.890,359.800 329.000 C 359.220 329.116,358.689 328.192,358.536 326.800 C 358.391 325.480,357.603 323.680,356.784 322.800 C 355.966 321.920,355.328 321.020,355.366 320.800 C 355.547 319.748,354.206 316.800,353.546 316.800 C 353.118 316.800,352.800 311.673,352.800 304.760 C 352.800 295.330,352.525 292.189,351.530 290.265 C 350.392 288.064,349.879 285.619,349.669 281.400 C 349.631 280.630,349.219 280.090,348.753 280.200 C 348.287 280.310,347.400 278.964,346.782 277.210 C 346.164 275.455,345.285 273.895,344.829 273.743 C 344.373 273.591,344.000 272.989,344.000 272.405 C 344.000 271.056,339.934 264.800,339.058 264.800 C 338.696 264.800,338.400 264.080,338.400 263.200 C 338.400 262.320,338.085 261.600,337.700 261.600 C 336.676 261.600,329.600 254.659,329.600 253.655 C 329.600 253.185,329.026 252.800,328.323 252.800 C 327.621 252.800,326.001 252.055,324.723 251.146 C 323.446 250.236,322.400 249.776,322.400 250.124 C 322.400 250.471,321.840 249.956,321.155 248.978 C 320.470 248.000,319.434 247.200,318.853 247.200 C 318.271 247.200,317.348 246.660,316.800 246.000 C 316.252 245.340,314.794 244.800,313.559 244.800 C 312.324 244.800,310.830 244.350,310.238 243.800 C 308.745 242.413,307.538 242.122,301.800 241.770 C 298.714 241.581,296.795 241.107,296.788 240.532 C 296.781 239.993,296.461 240.097,296.031 240.778 C 295.387 241.796,295.219 241.779,294.787 240.654 C 294.115 238.902,282.160 238.754,280.438 240.476 C 279.680 241.234,277.408 241.604,273.457 241.611 C 266.964 241.623,263.791 242.215,264.456 243.291 C 264.697 243.681,263.373 244.000,261.513 244.000 C 256.588 244.000,247.933 245.644,248.450 246.482 C 248.695 246.878,246.596 247.200,243.774 247.200 C 240.958 247.200,236.977 247.705,234.927 248.322 C 232.381 249.088,231.200 249.166,231.200 248.569 C 231.200 248.088,230.671 248.393,230.025 249.247 C 229.127 250.435,228.842 250.518,228.813 249.600 C 228.791 248.892,228.534 248.728,228.188 249.200 C 227.608 249.989,225.885 250.274,219.600 250.623 C 217.840 250.720,216.173 251.112,215.895 251.494 C 215.386 252.193,213.354 252.554,206.000 253.253 C 200.036 253.820,200.041 253.819,200.448 254.478 C 201.103 255.538,199.691 255.887,193.762 256.131 C 190.593 256.261,188.000 256.595,188.000 256.873 C 188.000 257.151,187.100 257.206,186.000 256.996 C 184.710 256.749,184.000 256.079,184.000 255.107 C 184.000 254.278,183.632 253.600,183.183 253.600 C 182.733 253.600,181.956 252.700,181.454 251.600 C 180.953 250.500,180.229 249.600,179.845 249.600 C 179.460 249.600,178.000 248.430,176.599 247.000 C 175.199 245.570,173.771 244.490,173.426 244.600 C 173.082 244.710,172.800 244.340,172.800 243.778 C 172.800 243.216,172.080 242.139,171.200 241.386 C 170.320 240.632,169.600 239.422,169.600 238.696 C 169.600 237.970,169.061 236.977,168.402 236.488 C 167.743 236.000,167.124 234.609,167.027 233.398 C 166.930 232.188,166.280 231.016,165.582 230.794 C 164.723 230.522,164.260 229.293,164.152 226.996 C 163.912 221.918,163.136 217.600,162.463 217.600 C 162.135 217.600,161.845 217.150,161.818 216.600 C 161.639 212.955,160.405 206.678,159.311 203.852 C 158.853 202.671,158.390 199.990,158.282 197.894 C 158.158 195.502,157.548 193.548,156.642 192.642 C 155.811 191.811,155.200 190.033,155.200 188.447 C 155.200 186.933,154.784 185.438,154.276 185.124 C 153.665 184.746,153.572 184.907,154.000 185.600 C 154.428 186.293,154.335 186.454,153.724 186.076 C 153.216 185.762,152.800 184.796,152.800 183.928 C 152.800 183.060,152.282 182.151,151.649 181.908 C 151.016 181.665,150.262 180.392,149.973 179.079 C 149.685 177.766,148.968 176.507,148.380 176.282 C 147.793 176.056,146.932 174.911,146.467 173.736 C 145.460 171.188,144.104 169.070,142.200 167.070 C 141.430 166.262,140.800 165.240,140.800 164.800 C 140.800 164.360,140.299 164.000,139.687 164.000 C 139.074 164.000,138.367 163.177,138.114 162.171 C 137.862 161.165,135.843 158.402,133.628 156.030 C 131.412 153.658,129.600 151.421,129.600 151.058 C 129.600 150.696,129.148 150.400,128.595 150.400 C 128.043 150.400,127.076 149.230,126.446 147.800 C 125.817 146.370,124.289 144.182,123.051 142.938 C 121.813 141.695,120.800 140.190,120.800 139.596 C 120.800 139.001,120.170 137.884,119.400 137.114 C 118.156 135.870,118.026 134.185,118.232 121.973 C 118.476 107.535,117.103 100.102,113.970 98.899 C 113.327 98.652,112.800 97.899,112.800 97.225 C 112.800 96.551,112.401 96.000,111.914 96.000 C 111.427 96.000,111.236 95.460,111.489 94.800 C 111.743 94.140,111.662 93.600,111.310 93.600 C 110.958 93.600,110.195 92.712,109.615 91.627 C 109.034 90.542,108.285 89.824,107.950 90.031 C 107.616 90.238,107.104 88.998,106.813 87.277 C 106.522 85.556,105.782 83.484,105.168 82.674 C 103.591 80.593,103.615 72.319,105.200 71.711 C 105.860 71.457,106.400 70.459,106.400 69.492 C 106.400 66.681,107.546 68.655,107.939 72.143 C 107.972 72.441,108.520 73.206,109.156 73.842 C 109.795 74.481,110.395 76.816,110.497 79.067 C 110.606 81.438,111.102 83.298,111.686 83.522 C 112.237 83.734,112.935 85.553,113.237 87.565 C 113.538 89.578,114.214 91.489,114.738 91.812 C 115.262 92.135,115.721 93.210,115.757 94.200 C 115.793 95.190,115.862 96.720,115.911 97.600 C 115.960 98.480,116.720 99.920,117.600 100.800 C 118.480 101.680,119.200 102.760,119.200 103.200 C 119.200 103.640,119.590 104.000,120.067 104.000 C 120.543 104.000,120.777 104.450,120.585 105.000 C 120.394 105.550,121.264 106.993,122.519 108.207 C 123.773 109.421,124.800 110.588,124.800 110.801 C 124.800 111.728,128.386 115.200,129.344 115.200 C 129.925 115.200,130.400 115.920,130.400 116.800 C 130.400 117.867,130.933 118.400,132.000 118.400 C 132.880 118.400,133.600 118.915,133.600 119.544 C 133.600 120.174,134.410 120.812,135.400 120.963 C 136.390 121.114,137.122 121.643,137.027 122.139 C 136.931 122.634,137.815 123.281,138.991 123.576 C 140.167 123.871,141.579 124.756,142.129 125.541 C 143.123 126.960,143.482 126.985,151.000 126.147 C 152.430 125.988,153.600 126.159,153.600 126.529 C 153.600 126.898,154.101 127.200,154.714 127.200 C 155.327 127.200,156.036 127.740,156.289 128.400 C 156.543 129.060,157.277 129.600,157.921 129.600 C 158.565 129.600,159.329 130.347,159.619 131.260 C 159.909 132.173,160.354 132.713,160.608 132.459 C 160.862 132.204,161.791 132.627,162.673 133.398 C 163.859 134.436,164.120 134.489,163.678 133.600 C 163.350 132.940,163.610 133.047,164.256 133.838 C 164.903 134.628,166.458 135.462,167.713 135.689 C 168.967 135.917,170.283 136.620,170.637 137.251 C 170.990 137.883,172.212 138.400,173.352 138.400 C 174.491 138.400,175.823 138.924,176.312 139.564 C 177.084 140.576,179.573 141.309,183.000 141.534 C 183.550 141.570,183.910 142.029,183.800 142.552 C 183.690 143.076,184.285 143.653,185.122 143.835 C 187.622 144.376,189.342 140.102,187.613 137.646 C 187.011 136.793,187.060 136.649,187.800 137.094 C 188.350 137.424,188.800 137.493,188.800 137.247 C 188.800 136.497,185.961 133.910,184.539 133.364 C 183.802 133.081,183.200 132.508,183.200 132.089 C 183.200 131.670,182.120 131.090,180.800 130.800 C 179.480 130.510,178.400 129.786,178.400 129.190 C 178.400 128.595,177.680 127.879,176.800 127.600 C 175.920 127.321,175.200 126.618,175.200 126.039 C 175.200 125.460,174.470 124.796,173.577 124.562 C 172.684 124.329,172.054 123.837,172.177 123.469 C 172.300 123.101,172.040 122.689,171.600 122.552 C 171.160 122.416,170.542 121.606,170.226 120.752 C 169.910 119.899,169.146 119.200,168.528 119.200 C 167.841 119.200,167.211 117.990,166.907 116.087 C 166.633 114.375,165.867 112.767,165.205 112.512 C 164.542 112.258,164.042 111.409,164.093 110.625 C 164.180 109.290,164.209 109.288,164.551 110.600 C 164.753 111.370,165.161 112.030,165.459 112.066 C 169.058 112.503,170.839 113.095,171.572 114.097 C 172.167 114.911,174.061 115.349,177.431 115.450 C 181.039 115.559,182.306 115.875,182.030 116.600 C 181.821 117.150,181.999 117.600,182.425 117.600 C 182.851 117.600,183.200 117.240,183.200 116.800 C 183.200 116.360,183.830 115.989,184.600 115.975 C 186.905 115.933,188.912 114.032,187.812 112.932 C 187.103 112.223,187.146 112.000,187.993 112.000 C 188.790 112.000,188.706 111.708,187.696 110.969 C 186.921 110.403,186.402 109.413,186.544 108.769 C 186.720 107.963,185.979 107.521,184.154 107.346 C 182.699 107.206,181.310 106.576,181.069 105.946 C 180.827 105.316,180.127 104.800,179.514 104.800 C 178.901 104.800,178.400 104.302,178.400 103.693 C 178.400 103.085,177.680 102.398,176.800 102.168 C 175.920 101.938,175.200 101.176,175.200 100.475 C 175.200 99.774,174.660 99.200,174.000 99.200 C 173.340 99.200,172.800 98.895,172.800 98.522 C 172.800 98.150,172.080 97.015,171.200 96.000 C 169.766 94.347,169.228 92.758,169.505 91.000 C 169.557 90.670,169.330 90.490,169.000 90.600 C 168.316 90.828,168.000 90.134,168.000 88.406 C 168.000 87.357,168.362 87.351,171.000 88.358 C 172.650 88.987,175.440 89.660,177.200 89.852 C 181.762 90.352,182.671 90.648,183.772 92.000 C 184.541 92.945,184.755 92.969,184.775 92.114 C 184.789 91.517,185.266 91.208,185.837 91.427 C 187.164 91.936,187.557 87.761,186.386 85.575 C 185.545 84.002,187.214 83.428,191.080 83.959 C 191.674 84.040,191.923 83.723,191.633 83.254 C 191.343 82.784,191.427 82.400,191.819 82.400 C 192.212 82.400,192.533 81.860,192.533 81.200 C 192.533 80.540,192.267 80.000,191.942 80.000 C 191.616 80.000,191.542 79.265,191.777 78.366 C 192.012 77.467,191.888 76.804,191.502 76.893 C 190.476 77.128,187.920 75.911,186.398 74.461 C 185.670 73.768,182.852 71.128,180.137 68.596 C 177.422 66.063,175.200 63.453,175.200 62.796 C 175.200 62.138,174.660 61.600,174.000 61.600 C 173.188 61.600,172.800 60.788,172.800 59.088 C 172.800 57.666,172.192 56.078,171.400 55.429 C 170.630 54.798,170.450 54.509,171.000 54.788 C 171.550 55.066,172.000 54.943,172.000 54.514 C 172.000 54.085,171.612 53.604,171.137 53.446 C 170.662 53.287,170.146 51.782,169.990 50.100 C 169.834 48.419,169.052 46.296,168.253 45.384 C 167.454 44.471,167.306 44.022,167.924 44.386 C 168.758 44.877,168.867 44.758,168.346 43.924 C 167.960 43.306,167.568 42.260,167.474 41.600 C 166.516 34.895,166.199 33.630,165.572 34.017 C 164.837 34.471,164.499 33.365,163.611 27.600 C 162.937 23.229,160.602 17.215,159.108 16.000 C 158.470 15.482,157.236 11.779,157.441 11.000 C 157.529 10.670,157.060 10.400,156.400 10.400 C 155.740 10.400,155.200 9.849,155.200 9.175 C 155.200 8.501,154.660 7.743,154.000 7.489 C 153.340 7.236,152.800 6.527,152.800 5.914 C 152.800 5.301,152.273 4.800,151.628 4.800 C 150.984 4.800,150.066 4.070,149.588 3.178 C 149.110 2.285,148.407 1.749,148.024 1.985 C 147.642 2.221,146.727 1.813,145.992 1.078 C 144.862 -0.052,144.544 -0.084,143.940 0.870 C 143.435 1.668,143.221 1.706,143.212 1.000 C 143.195 -0.391,133.091 -0.391,132.530 1.000 C 132.207 1.800,132.114 1.800,132.063 1.000 C 131.982 -0.282,87.491 -0.474,87.064 0.807 M298.800 271.200 C 299.178 272.391,300.010 272.800,302.054 272.800 C 303.564 272.800,304.800 273.171,304.800 273.625 C 304.800 274.079,305.402 274.681,306.139 274.964 C 306.875 275.247,308.097 276.045,308.855 276.739 C 309.612 277.432,311.200 278.810,312.384 279.800 L 314.536 281.600 311.594 281.600 C 309.931 281.600,307.825 280.949,306.748 280.102 C 305.221 278.901,303.307 278.576,297.077 278.460 C 289.337 278.315,287.649 278.015,288.335 276.904 C 288.534 276.583,286.470 276.383,283.748 276.461 C 276.882 276.657,276.643 276.698,277.200 277.600 C 277.516 278.112,274.651 278.436,269.247 278.500 C 257.549 278.638,257.593 278.633,256.447 280.200 C 255.727 281.185,254.323 281.600,251.709 281.600 C 249.523 281.600,246.766 282.258,245.009 283.200 C 243.367 284.080,240.848 284.800,239.412 284.800 C 237.624 284.800,236.800 285.178,236.800 286.000 C 236.800 286.793,236.006 287.200,234.457 287.200 C 233.169 287.200,231.576 287.738,230.919 288.396 C 230.261 289.053,228.924 289.713,227.948 289.862 C 226.972 290.011,225.735 290.733,225.199 291.466 C 224.663 292.199,223.274 292.878,222.112 292.974 C 220.950 293.070,220.000 293.619,220.000 294.194 C 220.000 294.769,219.190 295.565,218.200 295.963 C 217.210 296.361,215.320 297.605,214.000 298.728 C 212.680 299.850,211.150 301.150,210.600 301.616 C 210.050 302.082,209.600 302.241,209.600 301.970 C 209.600 301.699,208.616 302.675,207.413 304.139 C 206.211 305.602,204.771 307.088,204.213 307.440 C 203.656 307.792,203.189 308.512,203.175 309.040 C 203.161 309.568,202.640 310.673,202.017 311.495 C 200.912 312.954,200.886 312.954,200.900 311.495 C 200.912 310.300,200.554 308.211,200.061 306.600 C 200.028 306.490,200.031 306.170,200.068 305.889 C 200.106 305.609,199.771 305.153,199.324 304.877 C 198.877 304.601,198.369 301.442,198.195 297.859 C 197.987 293.586,197.420 290.644,196.548 289.313 C 194.960 286.890,195.159 286.735,200.745 286.072 C 203.134 285.788,205.474 285.239,205.945 284.852 C 206.415 284.466,209.098 283.985,211.907 283.784 C 215.529 283.526,217.227 283.039,217.747 282.110 C 218.311 281.101,219.711 280.799,223.840 280.795 C 226.788 280.792,230.118 280.311,231.240 279.726 C 232.361 279.140,235.743 278.431,238.755 278.150 C 241.885 277.858,244.809 277.116,245.579 276.419 C 246.568 275.524,248.771 275.200,253.863 275.200 C 259.496 275.200,260.800 274.974,260.800 274.000 C 260.800 273.094,261.829 272.784,265.000 272.734 C 271.059 272.639,273.907 272.052,274.638 270.746 C 275.790 268.688,298.136 269.108,298.800 271.200 M299.178 308.202 C 300.266 308.971,302.189 309.600,303.452 309.600 C 304.715 309.600,306.663 310.320,307.782 311.200 C 308.900 312.080,310.307 312.800,310.908 312.800 C 311.509 312.800,312.000 313.153,312.000 313.585 C 312.000 314.016,312.900 314.595,314.000 314.871 C 315.100 315.148,316.010 315.784,316.022 316.287 C 316.034 316.789,317.287 318.100,318.805 319.200 C 320.324 320.300,321.778 321.830,322.037 322.600 C 322.296 323.370,323.024 324.000,323.654 324.000 C 324.284 324.000,324.800 324.671,324.800 325.492 C 324.800 326.313,325.508 327.885,326.374 328.985 C 327.239 330.085,327.719 331.214,327.440 331.493 C 327.162 331.772,327.310 332.000,327.770 332.000 C 328.230 332.000,329.072 333.170,329.643 334.600 C 330.213 336.030,331.361 338.190,332.194 339.400 C 333.851 341.807,333.983 341.688,329.358 341.958 C 328.565 342.004,327.654 342.466,327.333 342.985 C 327.013 343.503,324.242 344.148,321.175 344.418 C 318.109 344.688,314.996 344.961,314.259 345.026 C 313.521 345.090,313.077 345.401,313.272 345.716 C 313.888 346.713,312.556 347.033,306.800 347.272 C 303.489 347.410,300.651 347.963,299.856 348.625 C 298.587 349.684,295.470 350.155,288.600 350.325 C 286.656 350.374,285.670 350.752,285.800 351.400 C 285.940 352.099,284.245 352.520,280.169 352.800 C 276.685 353.039,274.085 353.612,273.707 354.224 C 273.327 354.841,270.734 355.401,267.183 355.633 C 263.942 355.845,260.530 356.517,259.602 357.125 C 258.673 357.734,255.773 358.359,253.156 358.514 C 250.232 358.687,247.992 359.259,247.341 359.998 C 246.402 361.063,246.340 361.064,246.800 360.000 C 247.171 359.142,247.004 359.182,246.213 360.143 C 245.375 361.161,243.569 361.531,238.768 361.672 C 234.759 361.789,232.035 362.251,231.357 362.928 C 230.768 363.518,228.601 364.055,226.543 364.122 C 220.827 364.308,220.726 364.330,219.731 365.606 C 219.219 366.263,217.944 366.920,216.898 367.067 L 214.997 367.335 215.377 355.567 C 215.695 345.717,215.972 343.679,217.078 343.060 C 217.841 342.633,218.400 341.323,218.400 339.960 C 218.400 338.378,218.802 337.600,219.620 337.600 C 220.325 337.600,221.035 336.624,221.302 335.288 C 221.557 334.017,222.756 331.891,223.967 330.565 C 225.179 329.238,226.396 327.565,226.671 326.847 C 226.947 326.129,228.256 324.925,229.581 324.171 C 230.906 323.417,231.992 322.350,231.995 321.800 C 231.998 321.250,232.640 320.800,233.422 320.800 C 234.204 320.800,235.461 320.080,236.214 319.200 C 236.968 318.320,238.089 317.600,238.707 317.600 C 239.324 317.600,240.036 317.060,240.289 316.400 C 240.543 315.740,241.455 315.200,242.318 315.200 C 243.180 315.200,244.426 314.660,245.086 314.000 C 245.746 313.340,247.211 312.800,248.343 312.800 C 249.474 312.800,251.093 312.107,251.939 311.261 C 253.043 310.157,254.798 309.665,258.139 309.523 C 260.703 309.413,263.033 308.976,263.317 308.550 C 264.943 306.112,295.798 305.813,299.178 308.202 M334.590 373.450 C 335.145 374.193,336.310 374.924,337.178 375.076 C 338.046 375.228,339.236 376.038,339.823 376.876 C 340.410 377.714,341.432 378.400,342.093 378.400 C 342.782 378.400,343.056 378.785,342.736 379.304 C 342.401 379.845,342.608 380.064,343.250 379.850 C 344.344 379.485,347.200 381.454,347.200 382.572 C 347.200 383.184,349.518 386.135,352.200 388.937 C 352.970 389.742,353.600 390.771,353.600 391.225 C 353.600 391.679,354.140 392.257,354.800 392.511 C 355.460 392.764,356.000 393.933,356.000 395.108 C 356.000 396.283,356.576 398.067,357.281 399.073 C 358.415 400.691,358.769 402.425,359.387 409.381 C 359.475 410.360,360.008 411.339,360.573 411.556 C 361.902 412.066,361.923 417.945,360.600 419.343 C 360.050 419.924,359.524 421.120,359.432 422.000 C 358.930 426.785,358.174 430.045,357.464 430.484 C 357.024 430.756,356.736 431.119,356.824 431.289 C 357.189 431.997,354.893 438.400,354.273 438.400 C 353.903 438.400,353.593 438.850,353.584 439.400 C 353.561 440.814,344.197 450.846,343.148 450.580 C 342.671 450.459,342.488 450.694,342.740 451.103 C 342.992 451.511,341.309 453.075,338.999 454.577 C 334.024 457.814,324.452 462.022,325.308 460.597 C 325.781 459.811,325.654 459.805,324.709 460.569 C 324.049 461.102,322.001 461.642,320.156 461.769 C 318.312 461.896,316.802 462.314,316.801 462.698 C 316.801 463.082,316.191 462.902,315.446 462.298 C 314.527 461.552,314.285 461.521,314.694 462.200 C 315.024 462.750,315.003 463.246,314.647 463.302 C 314.291 463.358,313.280 463.534,312.400 463.692 C 310.581 464.019,303.001 464.857,300.000 465.063 C 298.900 465.138,297.640 465.610,297.200 466.111 C 296.760 466.612,293.966 467.201,290.992 467.419 C 288.018 467.638,285.100 468.219,284.509 468.710 C 283.917 469.201,281.131 469.775,278.317 469.986 C 272.090 470.453,271.274 470.616,269.053 471.838 C 268.092 472.367,265.382 472.800,263.031 472.800 C 260.353 472.800,258.052 473.293,256.871 474.120 C 255.679 474.955,252.823 475.559,249.103 475.763 C 245.867 475.940,242.225 476.604,241.010 477.238 C 237.018 479.320,232.814 478.794,232.721 476.200 C 232.537 471.100,232.177 469.259,231.310 468.970 C 230.804 468.801,230.594 468.334,230.842 467.932 C 231.091 467.529,230.973 467.200,230.581 467.200 C 230.188 467.200,229.855 465.670,229.840 463.800 C 229.781 456.464,229.595 455.201,228.600 455.400 C 227.975 455.525,227.507 454.476,227.352 452.600 C 227.090 449.436,229.638 448.061,230.689 450.800 C 230.943 451.460,232.035 452.000,233.118 452.000 C 234.200 452.000,235.600 452.514,236.228 453.142 C 236.856 453.770,238.682 454.530,240.285 454.831 C 241.888 455.132,243.200 455.659,243.200 456.002 C 243.200 456.990,249.981 458.472,254.600 458.493 C 255.370 458.497,256.000 458.858,256.000 459.297 C 256.000 459.736,256.360 459.872,256.800 459.600 C 257.240 459.328,257.600 459.397,257.600 459.753 C 257.600 460.231,281.788 460.539,283.000 460.076 C 283.110 460.034,283.430 460.031,283.711 460.068 C 283.991 460.106,284.526 459.656,284.898 459.068 C 285.458 458.185,285.578 458.191,285.588 459.098 C 285.597 459.951,285.851 459.987,286.725 459.262 C 287.670 458.478,292.111 457.762,298.600 457.347 C 299.370 457.297,300.000 456.794,300.000 456.229 C 300.000 455.609,301.033 455.186,302.600 455.165 C 304.030 455.146,306.640 454.584,308.400 453.916 C 310.160 453.249,312.860 452.331,314.400 451.877 C 315.940 451.423,317.542 450.725,317.960 450.326 C 318.378 449.927,319.312 449.600,320.036 449.600 C 320.760 449.600,322.004 448.880,322.800 448.000 C 323.596 447.120,324.868 446.400,325.626 446.400 C 326.384 446.400,327.452 445.860,328.000 445.200 C 328.548 444.540,329.648 444.000,330.444 444.000 C 331.241 444.000,332.121 443.280,332.400 442.400 C 332.679 441.520,333.337 440.800,333.862 440.800 C 334.387 440.800,335.884 439.810,337.189 438.600 C 338.494 437.390,339.750 436.400,339.981 436.400 C 340.211 436.400,340.322 436.166,340.227 435.880 C 340.131 435.594,340.941 435.137,342.027 434.865 C 343.112 434.592,344.000 433.878,344.000 433.278 C 344.000 432.678,344.730 431.996,345.623 431.762 C 346.516 431.529,347.146 431.037,347.023 430.669 C 346.739 429.818,350.122 426.400,351.247 426.400 C 351.713 426.400,351.872 426.040,351.600 425.600 C 351.328 425.160,351.422 424.800,351.810 424.800 C 353.450 424.800,352.937 416.930,351.237 416.020 C 350.337 415.538,349.600 414.616,349.600 413.972 C 349.600 413.327,349.330 412.843,349.000 412.895 C 347.419 413.144,346.400 412.705,346.400 411.774 C 346.400 411.210,345.441 410.670,344.270 410.573 C 343.067 410.473,341.197 409.341,339.976 407.973 C 336.712 404.318,330.400 402.754,330.400 405.600 C 330.400 406.480,330.001 407.200,329.514 407.200 C 329.027 407.200,328.836 406.660,329.089 406.000 C 330.060 403.471,328.659 404.942,327.535 407.632 C 326.884 409.190,326.002 410.249,325.576 409.985 C 325.149 409.721,324.800 410.247,324.800 411.153 C 324.800 412.059,324.454 412.800,324.031 412.800 C 323.608 412.800,322.574 413.539,321.732 414.442 C 320.891 415.345,319.462 416.140,318.557 416.208 C 317.652 416.276,317.055 416.565,317.230 416.849 C 317.579 417.413,313.574 419.566,312.600 419.340 C 312.270 419.263,312.090 419.634,312.200 420.164 C 312.310 420.694,312.040 421.157,311.600 421.194 C 309.426 421.376,305.867 422.644,304.778 423.625 C 304.106 424.231,302.216 424.816,300.578 424.926 C 298.776 425.048,297.600 425.536,297.600 426.164 C 297.600 426.861,296.290 427.233,293.600 427.300 C 287.091 427.463,286.838 427.509,285.916 428.708 C 284.718 430.267,258.306 430.519,257.792 428.977 C 257.611 428.434,257.134 428.194,256.732 428.442 C 256.329 428.691,255.999 428.603,255.999 428.247 C 255.998 427.891,254.498 427.497,252.666 427.371 C 250.721 427.237,248.865 426.571,248.208 425.771 C 247.495 424.903,247.300 424.840,247.678 425.600 C 248.077 426.403,247.700 426.295,246.538 425.276 C 245.582 424.438,244.800 424.056,244.800 424.427 C 244.800 424.798,244.066 424.314,243.169 423.351 C 242.272 422.388,241.030 421.600,240.410 421.600 C 238.998 421.600,235.200 418.145,235.200 416.861 C 235.200 416.336,234.839 416.128,234.399 416.401 C 233.958 416.673,233.246 415.972,232.816 414.842 C 232.387 413.713,231.757 412.881,231.418 412.994 C 230.467 413.311,227.200 409.752,227.200 408.400 C 227.200 407.740,226.476 406.476,225.590 405.590 C 224.705 404.705,223.908 403.111,223.821 402.048 C 223.733 400.985,223.402 400.275,223.086 400.471 C 222.375 400.910,221.969 400.219,221.305 397.437 C 220.833 395.460,221.028 395.230,223.587 394.750 C 225.127 394.461,226.188 393.904,225.946 393.512 C 225.704 393.121,226.517 392.759,227.753 392.710 C 228.989 392.660,231.080 392.514,232.400 392.385 C 233.720 392.256,235.945 392.042,237.345 391.909 C 238.744 391.777,239.728 391.408,239.532 391.089 C 238.889 390.049,240.406 389.696,246.248 389.525 C 250.457 389.403,252.000 389.068,252.000 388.279 C 252.000 387.588,253.078 387.155,255.000 387.075 C 262.714 386.753,265.818 386.218,266.800 385.042 C 267.255 384.498,270.018 384.018,273.200 383.929 C 276.280 383.843,279.234 383.433,279.765 383.018 C 280.296 382.602,281.068 382.471,281.481 382.727 C 281.894 382.982,282.424 382.690,282.659 382.079 C 282.938 381.351,284.557 380.915,287.343 380.817 C 291.608 380.668,296.050 380.270,296.800 379.970 C 297.020 379.882,297.470 379.853,297.800 379.905 C 298.130 379.957,298.400 379.663,298.400 379.250 C 298.400 378.838,299.750 378.497,301.400 378.493 C 303.050 378.489,305.300 378.241,306.400 377.941 C 307.500 377.641,309.392 377.320,310.605 377.227 C 311.817 377.134,313.077 376.762,313.405 376.401 C 313.732 376.039,313.494 376.037,312.876 376.395 C 312.121 376.834,311.940 376.745,312.324 376.124 C 312.638 375.616,313.434 375.200,314.094 375.200 C 314.842 375.200,315.068 375.577,314.694 376.200 C 314.215 376.997,314.342 376.999,315.317 376.209 C 315.991 375.664,318.758 375.124,321.468 375.009 C 324.177 374.894,326.395 374.530,326.397 374.200 C 326.399 373.870,327.099 373.600,327.953 373.600 C 328.807 373.600,329.679 373.319,329.892 372.975 C 330.618 371.799,333.579 372.099,334.590 373.450 M360.218 415.200 C 360.218 417.180,360.374 417.990,360.565 417.000 C 360.755 416.010,360.755 414.390,360.565 413.400 C 360.374 412.410,360.218 413.220,360.218 415.200 " stroke="none" fill="#ed3094" fill-rule="evenodd"></path><path id="path9" d="M73.600 2.953 C 71.513 3.915,71.156 4.329,72.199 4.580 C 72.968 4.765,74.142 4.372,74.808 3.706 C 75.474 3.040,76.744 2.635,77.631 2.806 C 78.517 2.977,79.032 2.775,78.774 2.358 C 78.124 1.306,76.858 1.451,73.600 2.953 M149.600 3.200 C 150.071 4.080,150.859 4.800,151.352 4.800 C 151.845 4.800,151.596 4.080,150.800 3.200 C 148.956 1.162,148.509 1.162,149.600 3.200 M152.800 5.876 C 152.800 6.164,153.520 7.120,154.400 8.000 C 155.280 8.880,156.000 9.296,156.000 8.924 C 156.000 8.552,155.280 7.596,154.400 6.800 C 153.520 6.004,152.800 5.588,152.800 5.876 M164.000 29.153 C 164.000 29.787,164.326 30.507,164.725 30.754 C 165.124 31.000,165.293 32.011,165.102 33.001 C 164.758 34.783,164.763 34.782,165.574 32.940 C 166.133 31.670,166.131 30.593,165.568 29.540 C 164.589 27.710,164.000 27.565,164.000 29.153 M167.551 42.751 C 167.611 43.867,168.143 45.234,168.733 45.790 C 169.622 46.627,169.711 46.388,169.247 44.400 C 168.510 41.242,167.414 40.176,167.551 42.751 M43.134 49.400 C 43.098 49.730,42.948 51.080,42.801 52.400 C 42.653 53.720,42.709 54.170,42.925 53.400 C 43.141 52.630,43.651 52.000,44.059 52.000 C 44.466 52.000,44.800 51.280,44.800 50.400 C 44.800 48.932,43.285 48.023,43.134 49.400 M48.620 74.085 C 49.128 76.740,50.400 77.346,50.400 74.933 C 50.400 73.854,49.916 72.786,49.325 72.559 C 48.554 72.263,48.355 72.694,48.620 74.085 M68.823 81.569 C 66.919 82.773,68.218 83.028,70.400 81.878 C 71.502 81.297,71.861 80.824,71.200 80.824 C 70.540 80.824,69.470 81.159,68.823 81.569 M186.111 85.200 C 186.687 86.702,187.288 86.707,189.247 85.225 C 190.717 84.114,190.662 84.050,188.225 84.025 C 186.259 84.006,185.759 84.284,186.111 85.200 M168.280 88.148 C 168.516 88.890,168.331 89.623,167.867 89.778 C 167.385 89.938,167.584 90.523,168.331 91.142 C 169.457 92.078,169.567 92.046,169.133 90.913 C 168.636 89.619,169.386 89.259,172.000 89.539 C 173.039 89.650,173.044 89.562,172.038 88.886 C 171.399 88.457,170.549 88.308,170.149 88.555 C 169.749 88.803,169.067 88.509,168.635 87.902 C 168.018 87.037,167.942 87.090,168.280 88.148 M177.560 90.742 C 178.638 91.339,180.078 91.613,180.760 91.350 C 181.692 90.992,181.503 90.735,180.000 90.317 C 176.664 89.387,175.485 89.593,177.560 90.742 M115.105 95.000 C 115.053 95.330,115.053 95.870,115.105 96.200 C 115.157 96.530,114.660 96.800,114.000 96.800 C 113.340 96.800,112.800 97.139,112.800 97.553 C 112.800 98.383,114.331 99.535,114.805 99.062 C 115.268 98.598,115.937 94.400,115.547 94.400 C 115.356 94.400,115.157 94.670,115.105 95.000 M115.983 101.000 C 116.449 101.550,117.545 102.868,118.420 103.928 C 119.295 104.989,120.278 105.570,120.605 105.219 C 120.932 104.868,120.750 104.420,120.200 104.224 C 119.650 104.027,119.200 103.486,119.200 103.022 C 119.200 102.129,116.840 100.069,115.768 100.025 C 115.421 100.011,115.518 100.450,115.983 101.000 M126.800 114.400 C 129.158 116.861,130.400 117.413,130.400 116.000 C 130.400 115.560,129.863 115.200,129.207 115.200 C 128.551 115.200,127.564 114.480,127.014 113.600 C 126.465 112.720,125.674 112.000,125.258 112.000 C 124.841 112.000,125.535 113.080,126.800 114.400 M167.200 118.133 C 167.200 118.867,167.437 119.230,167.726 118.940 C 168.016 118.651,168.826 118.855,169.526 119.393 C 170.307 119.993,170.210 119.681,169.276 118.586 C 167.451 116.448,167.200 116.393,167.200 118.133 M42.297 126.600 C 41.461 128.169,41.493 128.273,42.543 127.407 C 43.205 126.861,43.924 126.591,44.140 126.807 C 44.356 127.023,44.533 126.660,44.533 126.000 C 44.533 124.234,43.395 124.540,42.297 126.600 M152.863 126.172 C 152.828 126.706,153.520 127.529,154.400 128.000 C 155.485 128.581,156.000 128.590,156.000 128.028 C 156.000 127.573,155.490 127.200,154.867 127.200 C 154.243 127.200,153.552 126.750,153.330 126.200 C 153.026 125.446,152.911 125.439,152.863 126.172 M145.130 127.316 C 144.586 128.190,147.347 128.873,148.301 128.100 C 148.796 127.700,149.920 127.188,150.800 126.962 C 151.680 126.736,150.837 126.607,148.926 126.676 C 147.015 126.744,145.307 127.032,145.130 127.316 M158.004 131.205 C 159.637 133.008,160.289 132.884,159.533 130.915 C 159.256 130.192,158.472 129.600,157.790 129.600 C 156.744 129.600,156.777 129.848,158.004 131.205 M188.849 136.400 C 188.003 140.420,188.002 141.118,188.845 140.275 C 189.335 139.785,189.574 138.533,189.377 137.492 C 189.179 136.452,188.942 135.960,188.849 136.400 M41.612 152.460 C 41.634 153.764,42.989 155.405,43.792 155.098 C 44.219 154.934,43.900 154.107,43.084 153.260 C 42.268 152.413,41.606 152.053,41.612 152.460 M146.412 173.229 C 146.434 174.606,147.897 176.370,148.509 175.758 C 148.837 175.430,148.496 174.553,147.752 173.810 C 147.009 173.066,146.406 172.804,146.412 173.229 M53.962 180.851 C 53.941 182.965,54.235 184.502,54.615 184.267 C 54.995 184.032,55.144 183.678,54.947 183.480 C 54.749 183.282,54.862 181.900,55.198 180.409 C 55.603 178.612,55.504 177.582,54.905 177.353 C 54.312 177.127,53.987 178.335,53.962 180.851 M150.400 180.447 C 150.400 181.133,150.760 181.472,151.200 181.200 C 151.640 180.928,152.000 181.147,152.000 181.686 C 152.000 182.225,152.188 182.478,152.419 182.248 C 153.016 181.650,151.968 179.200,151.114 179.200 C 150.721 179.200,150.400 179.761,150.400 180.447 M155.263 190.114 C 155.228 191.057,155.791 192.056,156.513 192.333 C 157.496 192.710,157.623 192.580,157.021 191.818 C 156.577 191.258,156.015 190.260,155.771 189.600 C 155.467 188.781,155.306 188.944,155.263 190.114 M164.128 227.200 C 164.346 229.766,165.181 231.156,166.525 231.188 C 167.299 231.206,166.325 227.846,165.021 226.000 C 163.967 224.508,163.907 224.589,164.128 227.200 M277.333 239.733 C 276.348 240.719,276.788 241.600,278.267 241.600 C 279.073 241.600,279.733 241.060,279.733 240.400 C 279.733 239.174,278.293 238.774,277.333 239.733 M262.437 242.755 C 261.654 243.699,261.772 243.888,263.084 243.789 C 263.967 243.722,264.530 243.410,264.335 243.094 C 264.140 242.779,264.615 242.356,265.390 242.153 C 266.522 241.858,266.464 241.767,265.098 241.693 C 264.162 241.642,262.965 242.120,262.437 242.755 M244.200 245.695 C 240.617 246.730,240.945 247.200,245.247 247.200 C 247.253 247.200,248.691 246.871,248.442 246.468 C 248.194 246.066,248.442 245.554,248.995 245.331 C 250.754 244.622,246.905 244.914,244.200 245.695 M40.863 247.447 C 40.828 248.243,40.500 248.709,40.133 248.482 C 39.767 248.256,39.467 248.612,39.467 249.273 C 39.467 250.324,39.613 250.329,40.626 249.317 C 41.264 248.679,41.592 247.672,41.356 247.079 C 41.069 246.359,40.905 246.481,40.863 247.447 M212.353 251.549 C 210.975 252.569,210.958 252.676,212.208 252.501 C 213.767 252.283,216.011 250.400,214.713 250.400 C 214.269 250.400,213.207 250.917,212.353 251.549 M201.192 253.613 C 200.916 254.060,200.407 254.252,200.063 254.039 C 199.718 253.826,198.753 254.168,197.918 254.800 C 196.464 255.901,196.462 255.950,197.874 255.975 C 198.684 255.989,200.263 255.280,201.382 254.400 C 202.500 253.520,203.028 252.800,202.555 252.800 C 202.082 252.800,201.468 253.166,201.192 253.613 M184.000 256.307 C 184.000 256.475,184.900 256.786,186.000 256.996 C 187.100 257.206,188.000 257.068,188.000 256.689 C 188.000 256.310,187.100 256.000,186.000 256.000 C 184.900 256.000,184.000 256.138,184.000 256.307 M296.562 270.933 C 296.787 271.520,297.293 272.000,297.686 272.000 C 298.079 272.000,298.400 271.520,298.400 270.933 C 298.400 270.347,297.894 269.867,297.276 269.867 C 296.658 269.867,296.337 270.347,296.562 270.933 M34.535 271.437 C 33.483 272.705,33.613 276.307,34.673 275.247 C 35.345 274.575,36.167 270.400,35.628 270.400 C 35.500 270.400,35.009 270.867,34.535 271.437 M246.400 276.498 C 246.400 277.561,246.617 277.616,247.600 276.800 C 248.260 276.252,248.800 275.668,248.800 275.502 C 248.800 275.336,248.260 275.200,247.600 275.200 C 246.940 275.200,246.400 275.784,246.400 276.498 M274.800 277.600 C 274.528 278.040,275.068 278.400,276.000 278.400 C 276.932 278.400,277.472 278.040,277.200 277.600 C 276.928 277.160,276.388 276.800,276.000 276.800 C 275.612 276.800,275.072 277.160,274.800 277.600 M161.600 279.153 C 161.600 279.567,161.926 280.107,162.325 280.354 C 162.724 280.600,162.879 281.456,162.669 282.257 C 162.460 283.057,162.854 284.181,163.544 284.754 C 164.594 285.625,164.800 285.591,164.800 284.545 C 164.800 283.857,164.434 283.068,163.987 282.792 C 163.540 282.516,163.366 281.979,163.600 281.600 C 163.834 281.221,163.654 280.681,163.200 280.400 C 162.746 280.119,162.581 279.554,162.834 279.145 C 163.087 278.735,162.913 278.400,162.447 278.400 C 161.981 278.400,161.600 278.739,161.600 279.153 M233.960 279.132 C 233.542 279.535,232.300 280.026,231.200 280.223 L 229.200 280.582 231.302 280.691 C 232.458 280.751,233.852 280.260,234.400 279.600 C 235.489 278.288,235.178 277.958,233.960 279.132 M145.310 281.200 C 147.160 284.359,147.200 284.406,147.200 283.422 C 147.200 282.957,146.459 281.727,145.553 280.689 L 143.905 278.800 145.310 281.200 M31.686 282.865 C 30.958 284.760,31.099 285.757,32.013 285.192 C 32.460 284.916,32.619 284.354,32.366 283.945 C 32.113 283.535,32.287 283.200,32.753 283.200 C 33.219 283.200,33.600 282.840,33.600 282.400 C 33.600 281.134,32.221 281.470,31.686 282.865 M350.400 287.749 C 350.400 289.231,352.746 291.750,352.775 290.298 C 352.789 289.582,352.260 288.548,351.600 288.000 C 350.940 287.452,350.400 287.339,350.400 287.749 M223.200 291.600 C 222.384 292.583,222.439 292.800,223.502 292.800 C 224.216 292.800,224.800 292.260,224.800 291.600 C 224.800 290.940,224.664 290.400,224.498 290.400 C 224.332 290.400,223.748 290.940,223.200 291.600 M29.333 294.933 C 28.506 295.761,28.705 299.847,29.600 300.400 C 30.083 300.699,30.400 299.608,30.400 297.647 C 30.400 294.331,30.269 293.998,29.333 294.933 M214.128 297.458 C 212.191 299.599,212.503 300.339,214.542 298.440 C 215.500 297.547,216.098 296.631,215.870 296.404 C 215.643 296.176,214.859 296.651,214.128 297.458 M198.400 303.514 C 198.400 304.127,198.940 304.836,199.600 305.089 C 200.942 305.604,201.008 305.472,200.314 303.665 C 199.715 302.102,198.400 301.999,198.400 303.514 M146.412 307.800 C 146.420 308.664,146.650 308.863,147.012 308.320 C 147.336 307.836,148.140 307.234,148.800 306.983 C 149.602 306.678,149.403 306.505,148.200 306.463 C 146.991 306.421,146.404 306.859,146.412 307.800 M279.800 306.979 C 281.230 307.156,283.570 307.156,285.000 306.979 C 286.430 306.801,285.260 306.656,282.400 306.656 C 279.540 306.656,278.370 306.801,279.800 306.979 M167.634 309.202 C 167.945 310.521,168.725 312.140,169.369 312.800 C 170.323 313.778,170.300 313.415,169.244 310.841 C 167.596 306.821,166.910 306.123,167.634 309.202 M202.425 309.000 C 201.871 310.379,201.690 310.473,201.651 309.400 C 201.623 308.630,201.227 308.000,200.772 308.000 C 200.214 308.000,200.227 308.530,200.812 309.622 C 201.803 311.474,202.814 311.161,203.429 308.812 C 203.997 306.637,203.324 306.763,202.425 309.000 M42.021 313.567 C 41.733 314.031,42.077 314.633,42.784 314.904 C 44.544 315.580,45.091 314.838,43.691 313.675 C 42.902 313.021,42.379 312.987,42.021 313.567 M122.711 324.731 C 122.760 326.087,123.070 327.197,123.400 327.198 C 124.207 327.201,124.141 324.661,123.299 323.333 C 122.853 322.629,122.653 323.105,122.711 324.731 M228.000 325.200 C 227.184 326.183,227.239 326.400,228.302 326.400 C 229.016 326.400,229.600 325.860,229.600 325.200 C 229.600 324.540,229.464 324.000,229.298 324.000 C 229.132 324.000,228.548 324.540,228.000 325.200 M50.400 331.294 C 50.400 331.954,50.929 333.193,51.575 334.047 C 52.462 335.220,52.749 335.306,52.749 334.400 C 52.749 333.740,52.221 332.501,51.575 331.647 C 50.687 330.474,50.400 330.388,50.400 331.294 M124.170 332.241 C 124.269 333.429,124.810 334.400,125.374 334.400 C 126.698 334.400,126.638 333.582,125.170 331.641 C 124.043 330.150,123.999 330.176,124.170 332.241 M222.400 332.400 C 221.835 333.081,221.552 333.819,221.772 334.039 C 221.992 334.259,222.635 333.881,223.200 333.200 C 223.765 332.519,224.048 331.781,223.828 331.561 C 223.608 331.341,222.965 331.719,222.400 332.400 M127.758 342.187 C 127.563 342.524,128.055 343.468,128.849 344.284 C 130.254 345.728,130.282 345.722,129.851 344.072 C 129.359 342.192,128.303 341.240,127.758 342.187 M52.986 354.400 C 52.986 355.940,53.150 356.570,53.351 355.800 C 53.553 355.030,53.553 353.770,53.351 353.000 C 53.150 352.230,52.986 352.860,52.986 354.400 M247.200 359.200 C 247.200 359.640,246.795 359.910,246.300 359.800 C 245.805 359.690,245.238 360.140,245.039 360.800 C 244.753 361.752,244.833 361.779,245.429 360.932 C 245.841 360.344,246.490 359.921,246.869 359.992 C 247.249 360.062,247.689 359.733,247.847 359.260 C 248.004 358.787,247.923 358.400,247.667 358.400 C 247.410 358.400,247.200 358.760,247.200 359.200 M93.600 361.102 C 93.600 361.268,94.140 361.852,94.800 362.400 C 95.783 363.216,96.000 363.161,96.000 362.098 C 96.000 361.384,95.460 360.800,94.800 360.800 C 94.140 360.800,93.600 360.936,93.600 361.102 M53.002 367.600 C 53.011 369.360,53.174 369.986,53.366 368.991 C 53.557 367.996,53.550 366.556,53.350 365.791 C 53.149 365.026,52.993 365.840,53.002 367.600 M89.892 381.200 C 89.894 385.600,90.029 387.298,90.191 384.973 C 90.353 382.648,90.351 379.048,90.187 376.973 C 90.023 374.898,89.890 376.800,89.892 381.200 M344.551 381.559 C 345.710 382.913,347.200 383.108,347.200 381.906 C 347.200 381.686,346.878 381.705,346.484 381.948 C 346.090 382.192,345.561 381.853,345.309 381.195 C 345.057 380.538,344.482 380.000,344.033 380.000 C 343.583 380.000,343.816 380.702,344.551 381.559 M282.900 382.027 C 282.335 383.499,284.487 383.539,287.074 382.104 C 288.906 381.088,288.886 381.062,286.149 380.960 C 284.352 380.892,283.189 381.274,282.900 382.027 M267.772 385.360 C 268.101 386.217,268.412 386.363,268.615 385.755 C 268.792 385.224,269.263 384.992,269.662 385.238 C 270.061 385.485,271.020 385.318,271.794 384.868 C 272.937 384.202,272.643 384.044,270.225 384.024 C 267.749 384.004,267.338 384.228,267.772 385.360 M89.786 393.600 C 89.786 395.140,89.950 395.770,90.151 395.000 C 90.353 394.230,90.353 392.970,90.151 392.200 C 89.950 391.430,89.786 392.060,89.786 393.600 M54.523 406.070 C 53.801 409.667,53.836 410.750,54.702 411.616 C 55.603 412.518,55.801 411.793,55.918 407.146 C 56.087 400.433,55.713 400.144,54.523 406.070 M122.850 410.456 C 124.513 412.293,124.800 412.357,124.800 410.893 C 124.800 410.285,124.047 409.590,123.126 409.349 C 121.520 408.929,121.509 408.974,122.850 410.456 M322.187 412.605 C 320.984 413.860,320.000 415.206,320.000 415.595 C 320.000 415.984,320.700 415.551,321.555 414.632 C 322.410 413.714,323.544 412.819,324.075 412.642 C 324.606 412.465,324.890 411.870,324.707 411.321 C 324.492 410.677,323.596 411.134,322.187 412.605 M359.263 415.000 C 359.333 419.183,359.721 418.844,360.181 414.200 C 360.345 412.550,360.191 411.200,359.839 411.200 C 359.488 411.200,359.228 412.910,359.263 415.000 M361.002 415.600 C 361.011 417.360,361.174 417.986,361.366 416.991 C 361.557 415.996,361.550 414.556,361.350 413.791 C 361.149 413.026,360.993 413.840,361.002 415.600 M85.166 419.012 C 84.707 419.336,84.256 420.651,84.164 421.936 C 84.071 423.220,84.123 424.120,84.279 423.936 C 84.632 423.517,86.375 418.395,86.158 418.412 C 86.071 418.419,85.625 418.689,85.166 419.012 M158.400 421.102 C 158.400 422.434,158.838 423.200,159.600 423.200 C 160.260 423.200,160.800 422.704,160.800 422.098 C 160.800 421.492,160.260 420.548,159.600 420.000 C 158.585 419.158,158.400 419.328,158.400 421.102 M284.200 427.730 C 282.848 428.275,282.929 429.600,284.314 429.600 C 284.927 429.600,285.636 429.060,285.889 428.400 C 286.360 427.173,285.966 427.017,284.200 427.730 M82.681 429.408 C 82.972 429.878,82.812 430.396,82.327 430.558 C 81.841 430.720,81.575 431.741,81.736 432.826 C 82.016 434.715,82.069 434.689,82.967 432.218 C 83.642 430.359,83.659 429.484,83.029 429.094 C 82.528 428.785,82.379 428.919,82.681 429.408 M133.934 432.512 C 134.047 433.283,134.558 434.053,135.070 434.223 C 136.371 434.657,136.232 433.189,134.864 432.053 C 133.952 431.296,133.769 431.386,133.934 432.512 M340.200 436.200 C 340.310 436.750,339.950 437.110,339.400 437.000 C 338.850 436.890,338.400 437.160,338.400 437.600 C 338.400 438.685,339.472 438.608,340.640 437.440 C 341.808 436.272,341.885 435.200,340.800 435.200 C 340.360 435.200,340.090 435.650,340.200 436.200 M161.625 437.400 C 161.660 439.316,164.000 442.469,164.000 440.600 C 164.000 439.882,163.656 439.082,163.235 438.822 C 162.814 438.562,162.673 437.820,162.921 437.174 C 163.168 436.528,162.973 436.000,162.486 436.000 C 161.999 436.000,161.611 436.630,161.625 437.400 M164.000 445.876 C 164.000 446.164,164.720 447.120,165.600 448.000 C 166.480 448.880,167.200 449.296,167.200 448.924 C 167.200 448.552,166.480 447.596,165.600 446.800 C 164.720 446.004,164.000 445.588,164.000 445.876 M49.142 450.212 C 48.036 450.969,46.936 453.858,48.005 453.197 C 48.754 452.734,50.706 449.587,50.228 449.612 C 50.103 449.619,49.614 449.889,49.142 450.212 M236.000 454.000 C 236.548 454.660,237.762 455.151,238.698 455.091 C 240.328 454.987,240.324 454.967,238.600 454.635 C 237.610 454.445,236.800 453.954,236.800 453.544 C 236.800 453.135,236.396 452.800,235.902 452.800 C 235.282 452.800,235.312 453.171,236.000 454.000 M334.682 455.995 C 333.737 456.376,332.746 457.040,332.481 457.469 C 331.750 458.651,335.000 457.605,336.072 456.314 C 337.118 455.052,337.054 455.038,334.682 455.995 M196.812 458.200 C 196.819 458.970,197.157 460.126,197.564 460.768 C 198.100 461.616,198.283 461.232,198.230 459.368 C 198.155 456.759,196.790 455.633,196.812 458.200 M254.532 459.115 C 253.724 459.617,253.870 459.884,255.132 460.214 C 256.048 460.454,257.034 460.268,257.323 459.801 C 257.616 459.327,257.470 459.186,256.992 459.481 C 256.522 459.772,256.016 459.659,255.868 459.231 C 255.716 458.789,255.137 458.739,254.532 459.115 M144.800 464.035 C 144.800 464.348,145.340 465.052,146.000 465.600 C 146.997 466.428,147.200 466.331,147.200 465.031 C 147.200 464.171,146.660 463.467,146.000 463.467 C 145.340 463.467,144.800 463.723,144.800 464.035 M200.000 475.506 C 200.000 476.166,200.360 476.928,200.800 477.200 C 201.240 477.472,201.600 477.154,201.600 476.494 C 201.600 475.834,201.240 475.072,200.800 474.800 C 200.360 474.528,200.000 474.846,200.000 475.506 M75.402 478.000 C 75.411 479.760,75.574 480.386,75.766 479.391 C 75.957 478.396,75.950 476.956,75.750 476.191 C 75.549 475.426,75.393 476.240,75.402 478.000 M357.304 478.816 C 357.033 479.523,356.449 479.877,356.006 479.603 C 355.563 479.330,355.200 479.487,355.200 479.953 C 355.200 480.419,355.516 480.800,355.902 480.800 C 356.847 480.800,358.735 478.468,358.213 477.946 C 357.984 477.718,357.576 478.109,357.304 478.816 M151.600 483.200 C 152.396 484.080,153.185 484.800,153.352 484.800 C 153.519 484.800,153.271 484.080,152.800 483.200 C 152.329 482.320,151.541 481.600,151.048 481.600 C 150.555 481.600,150.804 482.320,151.600 483.200 M201.757 484.803 C 201.661 486.063,201.952 487.323,202.404 487.603 C 202.856 487.882,203.017 488.448,202.762 488.861 C 202.507 489.274,202.861 490.175,203.549 490.863 C 204.237 491.551,204.800 491.750,204.800 491.304 C 204.800 490.859,204.434 490.268,203.987 489.992 C 203.540 489.716,203.366 489.179,203.600 488.800 C 203.834 488.421,203.657 487.883,203.207 487.604 C 202.756 487.326,202.545 486.227,202.738 485.162 C 202.931 484.097,202.829 483.065,202.511 482.868 C 202.192 482.672,201.853 483.542,201.757 484.803 M181.637 492.400 C 181.630 492.840,181.939 493.696,182.323 494.302 C 183.093 495.518,184.807 494.858,184.788 493.353 C 184.780 492.722,184.541 492.771,184.081 493.496 C 183.521 494.381,183.220 494.304,182.518 493.096 C 182.040 492.273,181.643 491.960,181.637 492.400 M32.000 497.200 C 31.184 498.183,31.239 498.400,32.302 498.400 C 33.016 498.400,33.600 497.860,33.600 497.200 C 33.600 496.540,33.464 496.000,33.298 496.000 C 33.132 496.000,32.548 496.540,32.000 497.200 M26.966 499.469 C 27.262 499.948,26.925 500.065,26.131 499.761 C 25.399 499.480,24.800 499.599,24.800 500.025 C 24.800 501.164,26.864 500.969,27.889 499.733 C 28.557 498.928,28.492 498.667,27.622 498.667 C 26.989 498.667,26.694 499.028,26.966 499.469 M22.133 499.733 C 21.162 500.705,21.581 501.557,22.800 501.089 C 23.460 500.836,24.000 500.307,24.000 499.914 C 24.000 499.076,22.898 498.969,22.133 499.733 M186.400 499.787 C 186.400 500.350,189.016 502.341,189.800 502.375 C 191.128 502.431,190.266 501.144,188.394 500.275 C 187.297 499.767,186.400 499.547,186.400 499.787 M288.800 500.000 C 287.733 500.689,287.733 500.775,288.800 500.775 C 289.460 500.775,290.540 500.427,291.200 500.000 C 292.267 499.311,292.267 499.225,291.200 499.225 C 290.540 499.225,289.460 499.573,288.800 500.000 M275.733 501.333 C 274.685 502.382,275.227 503.043,276.800 502.632 C 277.680 502.402,278.400 501.895,278.400 501.507 C 278.400 500.680,276.509 500.557,275.733 501.333 M200.063 502.143 C 200.028 502.661,199.434 503.651,198.743 504.343 C 198.051 505.034,197.827 505.600,198.245 505.600 C 199.459 505.600,200.990 503.349,200.539 502.227 C 200.260 501.533,200.106 501.506,200.063 502.143 M260.000 504.886 C 260.000 505.373,259.441 505.557,258.758 505.295 C 258.047 505.022,257.725 505.156,258.006 505.609 C 258.718 506.762,261.061 506.576,262.847 505.225 C 264.335 504.100,264.307 504.050,262.200 504.025 C 260.990 504.011,260.000 504.399,260.000 504.886 M243.558 507.132 C 243.806 507.534,243.558 508.046,243.005 508.269 C 242.452 508.491,242.900 508.686,244.000 508.701 C 245.100 508.716,247.080 508.233,248.400 507.629 L 250.800 506.530 246.953 506.465 C 244.815 506.429,243.307 506.725,243.558 507.132 M71.851 512.200 C 71.509 518.166,71.636 521.599,72.200 521.600 C 72.530 521.600,72.800 518.900,72.800 515.600 C 72.800 509.628,72.135 507.245,71.851 512.200 M228.200 510.130 C 227.650 510.352,227.200 510.838,227.200 511.211 C 227.200 511.872,231.797 510.870,232.642 510.025 C 233.171 509.496,229.560 509.581,228.200 510.130 M69.734 524.425 C 68.875 526.310,68.922 526.391,70.406 525.597 C 71.283 525.128,72.000 524.216,72.000 523.572 C 72.000 521.729,70.748 522.201,69.734 524.425 M42.200 529.365 C 43.190 529.555,44.810 529.555,45.800 529.365 C 46.790 529.174,45.980 529.018,44.000 529.018 C 42.020 529.018,41.210 529.174,42.200 529.365 " stroke="none" fill="#ff0055" fill-rule="evenodd"></path></g></svg>